EncodeSans-ExtendedBold.ufo
<glyph name="exclam" format="2">
  <advance width="736.0"/>
  <unicode hex="0021"/>
  <outline>
    <contour>
      <point x="232.0" y="532.0" type="line"/>
      <point x="510.0" y="532.0" type="line"/>
      <point x="612.0" y="996.0" type="line"/>
      <point x="612.0" y="1480.0" type="line"/>
      <point x="124.0" y="1480.0" type="line"/>
      <point x="124.0" y="996.0" type="line"/>
    </contour>
    <contour>
      <point x="368.0" y="-20.0" type="curve" smooth="yes"/>
      <point x="550.0" y="-20.0"/>
      <point x="658.0" y="74.0"/>
      <point x="658.0" y="216.0" type="curve" smooth="yes"/>
      <point x="658.0" y="358.0"/>
      <point x="554.0" y="452.0"/>
      <point x="368.0" y="452.0" type="curve" smooth="yes"/>
      <point x="182.0" y="452.0"/>
      <point x="78.0" y="362.0"/>
      <point x="78.0" y="216.0" type="curve" smooth="yes"/>
      <point x="78.0" y="70.0"/>
      <point x="186.0" y="-20.0"/>
    </contour>
  </outline>
</glyph>
<glyph name="numbersign" format="2">
  <advance width="1440.0"/>
  <unicode hex="0023"/>
  <outline>
    <contour>
      <point x="702.0" y="0.0" type="line"/>
      <point x="1056.0" y="0.0" type="line"/>
      <point x="1240.0" y="1480.0" type="line"/>
      <point x="886.0" y="1480.0" type="line"/>
    </contour>
    <contour>
      <point x="110.0" y="320.0" type="line"/>
      <point x="1330.0" y="320.0" type="line"/>
      <point x="1330.0" y="666.0" type="line"/>
      <point x="110.0" y="666.0" type="line"/>
    </contour>
    <contour>
      <point x="200.0" y="0.0" type="line"/>
      <point x="554.0" y="0.0" type="line"/>
      <point x="738.0" y="1480.0" type="line"/>
      <point x="384.0" y="1480.0" type="line"/>
    </contour>
    <contour>
      <point x="110.0" y="814.0" type="line"/>
      <point x="1330.0" y="814.0" type="line"/>
      <point x="1330.0" y="1160.0" type="line"/>
      <point x="110.0" y="1160.0" type="line"/>
    </contour>
  </outline>
</glyph>
<glyph name="ampersand" format="2">
  <advance width="1846.0"/>
  <unicode hex="0026"/>
  <outline>
    <contour>
      <point x="1666.0" y="-20.0" type="line"/>
      <point x="1846.0" y="310.0" type="line"/>
      <point x="836.0" y="862.0" type="line" smooth="yes"/>
      <point x="746.0" y="912.0"/>
      <point x="710.0" y="952.0"/>
      <point x="710.0" y="1002.0" type="curve" smooth="yes"/>
      <point x="710.0" y="1080.0"/>
      <point x="768.0" y="1138.0"/>
      <point x="1024.0" y="1138.0" type="curve" smooth="yes"/>
      <point x="1116.0" y="1138.0"/>
      <point x="1220.0" y="1126.0"/>
      <point x="1294.0" y="1112.0" type="curve"/>
      <point x="1294.0" y="1480.0" type="line"/>
      <point x="1204.0" y="1492.0"/>
      <point x="1108.0" y="1500.0"/>
      <point x="992.0" y="1500.0" type="curve" smooth="yes"/>
      <point x="484.0" y="1500.0"/>
      <point x="244.0" y="1318.0"/>
      <point x="244.0" y="1024.0" type="curve" smooth="yes"/>
      <point x="244.0" y="878.0"/>
      <point x="312.0" y="720.0"/>
      <point x="656.0" y="532.0" type="curve" smooth="yes"/>
    </contour>
    <contour>
      <point x="792.0" y="-18.0" type="curve" smooth="yes"/>
      <point x="1290.0" y="-18.0"/>
      <point x="1582.0" y="212.0"/>
      <point x="1582.0" y="666.0" type="curve" smooth="yes"/>
      <point x="1582.0" y="738.0"/>
      <point x="1570.0" y="826.0"/>
      <point x="1550.0" y="906.0" type="curve"/>
      <point x="1192.0" y="906.0" type="line"/>
      <point x="1212.0" y="826.0"/>
      <point x="1226.0" y="736.0"/>
      <point x="1226.0" y="662.0" type="curve" smooth="yes"/>
      <point x="1226.0" y="376.0"/>
      <point x="1060.0" y="290.0"/>
      <point x="848.0" y="290.0" type="curve" smooth="yes"/>
      <point x="676.0" y="290.0"/>
      <point x="572.0" y="348.0"/>
      <point x="572.0" y="454.0" type="curve" smooth="yes"/>
      <point x="572.0" y="532.0"/>
      <point x="612.0" y="586.0"/>
      <point x="666.0" y="632.0" type="curve"/>
      <point x="424.0" y="786.0" type="line"/>
      <point x="252.0" y="740.0"/>
      <point x="106.0" y="602.0"/>
      <point x="106.0" y="406.0" type="curve" smooth="yes"/>
      <point x="106.0" y="148.0"/>
      <point x="336.0" y="-18.0"/>
    </contour>
  </outline>
</glyph>
<glyph name="quotesingle" format="2">
  <advance width="580.0"/>
  <unicode hex="0027"/>
  <outline>
    <contour>
      <point x="150.0" y="784.0" type="line"/>
      <point x="430.0" y="784.0" type="line"/>
      <point x="510.0" y="1616.0" type="line"/>
      <point x="70.0" y="1616.0" type="line"/>
    </contour>
  </outline>
</glyph>
<glyph name="parenleft" format="2">
  <advance width="834.0"/>
  <unicode hex="0028"/>
  <outline>
    <contour>
      <point x="522.0" y="-440.0" type="curve"/>
      <point x="1020.0" y="-440.0" type="line"/>
      <point x="692.0" y="-130.0"/>
      <point x="572.0" y="172.0"/>
      <point x="572.0" y="588.0" type="curve" smooth="yes"/>
      <point x="572.0" y="1004.0"/>
      <point x="692.0" y="1306.0"/>
      <point x="1020.0" y="1616.0" type="curve"/>
      <point x="522.0" y="1616.0" type="line"/>
      <point x="218.0" y="1364.0"/>
      <point x="104.0" y="1002.0"/>
      <point x="104.0" y="588.0" type="curve" smooth="yes"/>
      <point x="104.0" y="174.0"/>
      <point x="218.0" y="-188.0"/>
    </contour>
  </outline>
</glyph>
<glyph name="plus" format="2">
  <advance width="1196.0"/>
  <unicode hex="002B"/>
  <outline>
    <contour>
      <point x="420.0" y="270.0" type="line"/>
      <point x="776.0" y="270.0" type="line"/>
      <point x="776.0" y="590.0" type="line"/>
      <point x="1082.0" y="590.0" type="line"/>
      <point x="1082.0" y="930.0" type="line"/>
      <point x="776.0" y="930.0" type="line"/>
      <point x="776.0" y="1250.0" type="line"/>
      <point x="420.0" y="1250.0" type="line"/>
      <point x="420.0" y="930.0" type="line"/>
      <point x="114.0" y="930.0" type="line"/>
      <point x="114.0" y="590.0" type="line"/>
      <point x="420.0" y="590.0" type="line"/>
    </contour>
  </outline>
</glyph>
<glyph name="slash" format="2">
  <advance width="1058.0"/>
  <unicode hex="002F"/>
  <outline>
    <contour>
      <point x="0.0" y="-240.0" type="line"/>
      <point x="466.0" y="-240.0" type="line"/>
      <point x="1058.0" y="1616.0" type="line"/>
      <point x="592.0" y="1616.0" type="line"/>
    </contour>
  </outline>
</glyph>
<glyph name="zero" format="2">
  <advance width="1574.0"/>
  <unicode hex="0030"/>
  <note>
600
</note>
  <outline>
    <contour>
      <point x="786.0" y="-20.0" type="curve" smooth="yes"/>
      <point x="1208.0" y="-20.0"/>
      <point x="1480.0" y="238.0"/>
      <point x="1480.0" y="740.0" type="curve" smooth="yes"/>
      <point x="1480.0" y="1242.0"/>
      <point x="1208.0" y="1500.0"/>
      <point x="786.0" y="1500.0" type="curve" smooth="yes"/>
      <point x="364.0" y="1500.0"/>
      <point x="94.0" y="1242.0"/>
      <point x="94.0" y="740.0" type="curve" smooth="yes"/>
      <point x="94.0" y="238.0"/>
      <point x="364.0" y="-20.0"/>
    </contour>
    <contour>
      <point x="788.0" y="358.0" type="curve" smooth="yes"/>
      <point x="640.0" y="358.0"/>
      <point x="556.0" y="450.0"/>
      <point x="556.0" y="740.0" type="curve" smooth="yes"/>
      <point x="556.0" y="1030.0"/>
      <point x="644.0" y="1122.0"/>
      <point x="788.0" y="1122.0" type="curve" smooth="yes"/>
      <point x="930.0" y="1122.0"/>
      <point x="1018.0" y="1030.0"/>
      <point x="1018.0" y="740.0" type="curve" smooth="yes"/>
      <point x="1018.0" y="450.0"/>
      <point x="930.0" y="358.0"/>
    </contour>
  </outline>
</glyph>
<glyph name="two" format="2">
  <advance width="1282.0"/>
  <unicode hex="0032"/>
  <outline>
    <contour>
      <point x="48.0" y="0.0" type="line"/>
      <point x="1228.0" y="0.0" type="line"/>
      <point x="1228.0" y="368.0" type="line"/>
      <point x="570.0" y="368.0" type="line"/>
      <point x="568.0" y="248.0" type="line"/>
      <point x="924.0" y="594.0" type="line" smooth="yes"/>
      <point x="1094.0" y="760.0"/>
      <point x="1156.0" y="896.0"/>
      <point x="1156.0" y="1050.0" type="curve" smooth="yes"/>
      <point x="1156.0" y="1352.0"/>
      <point x="948.0" y="1500.0"/>
      <point x="462.0" y="1500.0" type="curve" smooth="yes"/>
      <point x="320.0" y="1500.0"/>
      <point x="130.0" y="1470.0"/>
      <point x="30.0" y="1440.0" type="curve"/>
      <point x="30.0" y="1072.0" type="line"/>
      <point x="126.0" y="1106.0"/>
      <point x="282.0" y="1138.0"/>
      <point x="426.0" y="1138.0" type="curve" smooth="yes"/>
      <point x="628.0" y="1138.0"/>
      <point x="690.0" y="1090.0"/>
      <point x="690.0" y="996.0" type="curve" smooth="yes"/>
      <point x="690.0" y="928.0"/>
      <point x="650.0" y="860.0"/>
      <point x="526.0" y="734.0" type="curve" smooth="yes"/>
      <point x="48.0" y="242.0" type="line"/>
    </contour>
  </outline>
</glyph>
<glyph name="three" format="2">
  <advance width="1290.0"/>
  <unicode hex="0033"/>
  <outline>
    <contour>
      <point x="530.0" y="-20.0" type="curve" smooth="yes"/>
      <point x="1022.0" y="-20.0"/>
      <point x="1220.0" y="156.0"/>
      <point x="1220.0" y="424.0" type="curve" smooth="yes"/>
      <point x="1220.0" y="630.0"/>
      <point x="1092.0" y="736.0"/>
      <point x="900.0" y="768.0" type="curve"/>
      <point x="900.0" y="756.0" type="line"/>
      <point x="1062.0" y="794.0"/>
      <point x="1166.0" y="916.0"/>
      <point x="1166.0" y="1076.0" type="curve" smooth="yes"/>
      <point x="1166.0" y="1344.0"/>
      <point x="960.0" y="1500.0"/>
      <point x="516.0" y="1500.0" type="curve" smooth="yes"/>
      <point x="370.0" y="1500.0"/>
      <point x="188.0" y="1474.0"/>
      <point x="80.0" y="1440.0" type="curve"/>
      <point x="80.0" y="1110.0" type="line"/>
      <point x="194.0" y="1148.0"/>
      <point x="346.0" y="1172.0"/>
      <point x="472.0" y="1172.0" type="curve" smooth="yes"/>
      <point x="648.0" y="1172.0"/>
      <point x="714.0" y="1122.0"/>
      <point x="714.0" y="1040.0" type="curve" smooth="yes"/>
      <point x="714.0" y="968.0"/>
      <point x="662.0" y="920.0"/>
      <point x="466.0" y="920.0" type="curve" smooth="yes"/>
      <point x="208.0" y="920.0" type="line"/>
      <point x="208.0" y="590.0" type="line"/>
      <point x="510.0" y="590.0" type="line" smooth="yes"/>
      <point x="722.0" y="590.0"/>
      <point x="782.0" y="542.0"/>
      <point x="782.0" y="452.0" type="curve" smooth="yes"/>
      <point x="782.0" y="362.0"/>
      <point x="708.0" y="308.0"/>
      <point x="502.0" y="308.0" type="curve" smooth="yes"/>
      <point x="346.0" y="308.0"/>
      <point x="180.0" y="334.0"/>
      <point x="54.0" y="364.0" type="curve"/>
      <point x="54.0" y="34.0" type="line"/>
      <point x="190.0" y="2.0"/>
      <point x="350.0" y="-20.0"/>
    </contour>
  </outline>
</glyph>
<glyph name="equal" format="2">
  <advance width="1196.0"/>
  <unicode hex="003D"/>
  <outline>
    <contour>
      <point x="114.0" y="840.0" type="line"/>
      <point x="1082.0" y="840.0" type="line"/>
      <point x="1082.0" y="1180.0" type="line"/>
      <point x="114.0" y="1180.0" type="line"/>
    </contour>
    <contour>
      <point x="114.0" y="340.0" type="line"/>
      <point x="1082.0" y="340.0" type="line"/>
      <point x="1082.0" y="680.0" type="line"/>
      <point x="114.0" y="680.0" type="line"/>
    </contour>
  </outline>
</glyph>
<glyph name="greater" format="2">
  <advance width="1196.0"/>
  <unicode hex="003E"/>
  <outline>
    <contour>
      <point x="114.0" y="220.0" type="line"/>
      <point x="1082.0" y="546.0" type="line"/>
      <point x="1082.0" y="974.0" type="line"/>
      <point x="114.0" y="1300.0" type="line"/>
      <point x="114.0" y="960.0" type="line"/>
      <point x="844.0" y="736.0" type="line"/>
      <point x="844.0" y="794.0" type="line"/>
      <point x="114.0" y="560.0" type="line"/>
    </contour>
  </outline>
</glyph>
<glyph name="J" format="2">
  <advance width="736.0"/>
  <unicode hex="004A"/>
  <anchor x="606.0" y="0.0" name="bottom"/>
  <anchor x="370.0" y="1520.0" name="top"/>
  <outline>
    <contour>
      <point x="280.0" y="-358.0" type="line"/>
      <point x="524.0" y="-140.0"/>
      <point x="606.0" y="68.0"/>
      <point x="606.0" y="318.0" type="curve" smooth="yes"/>
      <point x="606.0" y="1480.0" type="line"/>
      <point x="134.0" y="1480.0" type="line"/>
      <point x="134.0" y="302.0" type="line" smooth="yes"/>
      <point x="134.0" y="96.0"/>
      <point x="98.0" y="-30.0"/>
      <point x="-12.0" y="-162.0" type="curve"/>
    </contour>
  </outline>
</glyph>
<glyph name="P" format="2">
  <advance width="1528.0"/>
  <unicode hex="0050"/>
  <outline>
    <contour>
      <point x="130.0" y="0.0" type="line"/>
      <point x="606.0" y="0.0" type="line"/>
      <point x="606.0" y="390.0" type="line"/>
      <point x="644.0" y="390.0"/>
      <point x="688.0" y="388.0"/>
      <point x="730.0" y="388.0" type="curve" smooth="yes"/>
      <point x="1202.0" y="388.0"/>
      <point x="1450.0" y="574.0"/>
      <point x="1450.0" y="944.0" type="curve" smooth="yes"/>
      <point x="1450.0" y="1330.0"/>
      <point x="1196.0" y="1500.0"/>
      <point x="676.0" y="1500.0" type="curve" smooth="yes"/>
      <point x="472.0" y="1500.0"/>
      <point x="294.0" y="1480.0"/>
      <point x="130.0" y="1450.0" type="curve"/>
    </contour>
    <contour>
      <point x="734.0" y="714.0" type="curve" smooth="yes"/>
      <point x="686.0" y="714.0"/>
      <point x="652.0" y="716.0"/>
      <point x="606.0" y="722.0" type="curve"/>
      <point x="606.0" y="1166.0" type="line"/>
      <point x="644.0" y="1172.0"/>
      <point x="678.0" y="1174.0"/>
      <point x="722.0" y="1174.0" type="curve" smooth="yes"/>
      <point x="910.0" y="1174.0"/>
      <point x="992.0" y="1106.0"/>
      <point x="992.0" y="944.0" type="curve" smooth="yes"/>
      <point x="992.0" y="772.0"/>
      <point x="910.0" y="714.0"/>
    </contour>
  </outline>
</glyph>
<glyph name="Q" format="2">
  <advance width="1892.0"/>
  <unicode hex="0051"/>
  <outline>
    <contour>
      <point x="1730.0" y="-394.0" type="curve"/>
      <point x="1800.0" y="-44.0" type="line"/>
      <point x="1490.0" y="-6.0"/>
      <point x="1210.0" y="50.0"/>
      <point x="948.0" y="140.0" type="curve"/>
      <point x="786.0" y="28.0" type="line"/>
      <point x="1492.0" y="-60.0"/>
      <point x="1808.0" y="274.0"/>
      <point x="1808.0" y="740.0" type="curve" smooth="yes"/>
      <point x="1808.0" y="1206.0"/>
      <point x="1482.0" y="1500.0"/>
      <point x="946.0" y="1500.0" type="curve" smooth="yes"/>
      <point x="410.0" y="1500.0"/>
      <point x="84.0" y="1210.0"/>
      <point x="84.0" y="720.0" type="curve" smooth="yes"/>
      <point x="84.0" y="224.0"/>
      <point x="420.0" y="-204.0"/>
    </contour>
    <contour>
      <point x="946.0" y="348.0" type="curve" smooth="yes"/>
      <point x="696.0" y="348.0"/>
      <point x="568.0" y="476.0"/>
      <point x="568.0" y="748.0" type="curve" smooth="yes"/>
      <point x="568.0" y="1000.0"/>
      <point x="706.0" y="1132.0"/>
      <point x="946.0" y="1132.0" type="curve" smooth="yes"/>
      <point x="1186.0" y="1132.0"/>
      <point x="1324.0" y="994.0"/>
      <point x="1324.0" y="732.0" type="curve" smooth="yes"/>
      <point x="1324.0" y="486.0"/>
      <point x="1192.0" y="348.0"/>
    </contour>
  </outline>
</glyph>
<glyph name="X" format="2">
  <advance width="1592.0"/>
  <unicode hex="0058"/>
  <outline>
    <contour>
      <point x="1134.0" y="0.0" type="line"/>
      <point x="1662.0" y="0.0" type="line"/>
      <point x="1072.0" y="782.0" type="line"/>
      <point x="798.0" y="1086.0" type="line"/>
      <point x="506.0" y="1480.0" type="line"/>
      <point x="-22.0" y="1480.0" type="line"/>
      <point x="514.0" y="774.0" type="line"/>
      <point x="788.0" y="470.0" type="line"/>
    </contour>
    <contour>
      <point x="-68.0" y="0.0" type="line"/>
      <point x="444.0" y="0.0" type="line"/>
      <point x="788.0" y="470.0" type="line"/>
      <point x="1072.0" y="782.0" type="line"/>
      <point x="1598.0" y="1480.0" type="line"/>
      <point x="1088.0" y="1480.0" type="line"/>
      <point x="798.0" y="1086.0" type="line"/>
      <point x="514.0" y="774.0" type="line"/>
    </contour>
  </outline>
</glyph>
<glyph name="bracketleft" format="2">
  <advance width="834.0"/>
  <unicode hex="005B"/>
  <outline>
    <contour>
      <point x="150.0" y="-440.0" type="line"/>
      <point x="836.0" y="-440.0" type="line"/>
      <point x="836.0" y="-80.0" type="line"/>
      <point x="614.0" y="-80.0" type="line"/>
      <point x="614.0" y="1256.0" type="line"/>
      <point x="856.0" y="1256.0" type="line"/>
      <point x="856.0" y="1616.0" type="line"/>
      <point x="150.0" y="1616.0" type="line"/>
    </contour>
  </outline>
</glyph>
<glyph name="f" format="2">
  <advance width="980.0"/>
  <unicode hex="0066"/>
  <outline>
    <contour>
      <point x="230.0" y="0.0" type="line"/>
      <point x="694.0" y="0.0" type="line"/>
      <point x="694.0" y="1114.0" type="line" smooth="yes"/>
      <point x="694.0" y="1222.0"/>
      <point x="760.0" y="1282.0"/>
      <point x="916.0" y="1282.0" type="curve" smooth="yes"/>
      <point x="954.0" y="1282.0"/>
      <point x="986.0" y="1280.0"/>
      <point x="1026.0" y="1276.0" type="curve"/>
      <point x="1026.0" y="1624.0" type="line"/>
      <point x="960.0" y="1632.0"/>
      <point x="914.0" y="1636.0"/>
      <point x="836.0" y="1636.0" type="curve" smooth="yes"/>
      <point x="458.0" y="1636.0"/>
      <point x="230.0" y="1424.0"/>
      <point x="230.0" y="1100.0" type="curve" smooth="yes"/>
    </contour>
    <contour>
      <point x="50.0" y="740.0" type="line"/>
      <point x="970.0" y="740.0" type="line"/>
      <point x="970.0" y="1100.0" type="line"/>
      <point x="50.0" y="1100.0" type="line"/>
    </contour>
  </outline>
</glyph>
<glyph name="h" format="2">
  <advance width="1462.0"/>
  <unicode hex="0068"/>
  <anchor x="736.0" y="0.0" name="bottom"/>
  <anchor x="736.0" y="550.0" name="center"/>
  <anchor x="116.0" y="1350.0" name="stroke"/>
  <anchor x="736.0" y="1616.0" name="top"/>
  <outline>
    <contour>
      <point x="116.0" y="0.0" type="line"/>
      <point x="580.0" y="0.0" type="line"/>
      <point x="580.0" y="670.0" type="line"/>
      <point x="620.0" y="708.0"/>
      <point x="686.0" y="734.0"/>
      <point x="756.0" y="734.0" type="curve" smooth="yes"/>
      <point x="844.0" y="734.0"/>
      <point x="890.0" y="698.0"/>
      <point x="890.0" y="582.0" type="curve" smooth="yes"/>
      <point x="890.0" y="0.0" type="line"/>
      <point x="1354.0" y="0.0" type="line"/>
      <point x="1354.0" y="608.0" type="line" smooth="yes"/>
      <point x="1354.0" y="968.0"/>
      <point x="1162.0" y="1118.0"/>
      <point x="916.0" y="1118.0" type="curve" smooth="yes"/>
      <point x="798.0" y="1118.0"/>
      <point x="684.0" y="1080.0"/>
      <point x="600.0" y="1006.0" type="curve"/>
      <point x="580.0" y="1006.0" type="line"/>
      <point x="580.0" y="1616.0" type="line"/>
      <point x="116.0" y="1616.0" type="line"/>
    </contour>
  </outline>
</glyph>
<glyph name="m" format="2">
  <advance width="2126.0"/>
  <unicode hex="006D"/>
  <anchor x="1076.0" y="0.0" name="bottom"/>
  <anchor x="1076.0" y="1200.0" name="top"/>
  <outline>
    <contour>
      <point x="116.0" y="0.0" type="line"/>
      <point x="580.0" y="0.0" type="line"/>
      <point x="580.0" y="670.0" type="line"/>
      <point x="612.0" y="708.0"/>
      <point x="666.0" y="734.0"/>
      <point x="734.0" y="734.0" type="curve" smooth="yes"/>
      <point x="810.0" y="734.0"/>
      <point x="848.0" y="698.0"/>
      <point x="848.0" y="582.0" type="curve" smooth="yes"/>
      <point x="848.0" y="0.0" type="line"/>
      <point x="1302.0" y="0.0" type="line"/>
      <point x="1302.0" y="614.0" type="line" smooth="yes"/>
      <point x="1302.0" y="968.0"/>
      <point x="1124.0" y="1118.0"/>
      <point x="878.0" y="1118.0" type="curve" smooth="yes"/>
      <point x="738.0" y="1118.0"/>
      <point x="622.0" y="1076.0"/>
      <point x="542.0" y="1004.0" type="curve"/>
      <point x="522.0" y="1004.0" type="line"/>
      <point x="494.0" y="1100.0" type="line"/>
      <point x="116.0" y="1100.0" type="line"/>
    </contour>
    <contour>
      <point x="1556.0" y="0.0" type="line"/>
      <point x="2018.0" y="0.0" type="line"/>
      <point x="2018.0" y="608.0" type="line" smooth="yes"/>
      <point x="2018.0" y="968.0"/>
      <point x="1834.0" y="1118.0"/>
      <point x="1570.0" y="1118.0" type="curve" smooth="yes"/>
      <point x="1436.0" y="1118.0"/>
      <point x="1300.0" y="1078.0"/>
      <point x="1180.0" y="968.0" type="curve"/>
      <point x="1278.0" y="670.0" type="line"/>
      <point x="1310.0" y="708.0"/>
      <point x="1354.0" y="734.0"/>
      <point x="1434.0" y="734.0" type="curve" smooth="yes"/>
      <point x="1508.0" y="734.0"/>
      <point x="1556.0" y="698.0"/>
      <point x="1556.0" y="582.0" type="curve" smooth="yes"/>
    </contour>
  </outline>
</glyph>
<glyph name="o" format="2">
  <advance width="1464.0"/>
  <unicode hex="006F"/>
  <anchor x="732.0" y="0.0" name="bottom"/>
  <anchor x="732.0" y="550.0" name="center"/>
  <anchor x="942.0" y="0.0" name="ogonek"/>
  <anchor x="732.0" y="1200.0" name="top"/>
  <anchor x="734.0" y="1100.0" name="topright"/>
  <outline>
    <contour>
      <point x="732.0" y="-22.0" type="curve" smooth="yes"/>
      <point x="1134.0" y="-22.0"/>
      <point x="1398.0" y="194.0"/>
      <point x="1398.0" y="550.0" type="curve" smooth="yes"/>
      <point x="1398.0" y="906.0"/>
      <point x="1156.0" y="1118.0"/>
      <point x="732.0" y="1118.0" type="curve" smooth="yes"/>
      <point x="308.0" y="1118.0"/>
      <point x="66.0" y="906.0"/>
      <point x="66.0" y="550.0" type="curve" smooth="yes"/>
      <point x="66.0" y="194.0"/>
      <point x="330.0" y="-22.0"/>
    </contour>
    <contour>
      <point x="732.0" y="326.0" type="curve" smooth="yes"/>
      <point x="596.0" y="326.0"/>
      <point x="524.0" y="396.0"/>
      <point x="524.0" y="550.0" type="curve" smooth="yes"/>
      <point x="524.0" y="704.0"/>
      <point x="596.0" y="770.0"/>
      <point x="732.0" y="770.0" type="curve" smooth="yes"/>
      <point x="868.0" y="770.0"/>
      <point x="940.0" y="704.0"/>
      <point x="940.0" y="550.0" type="curve" smooth="yes"/>
      <point x="940.0" y="396.0"/>
      <point x="868.0" y="326.0"/>
    </contour>
  </outline>
</glyph>
<glyph name="q" format="2">
  <advance width="1490.0"/>
  <unicode hex="0071"/>
  <outline>
    <contour>
      <point x="910.0" y="-440.0" type="line"/>
      <point x="1374.0" y="-440.0" type="line"/>
      <point x="1374.0" y="1046.0" type="line"/>
      <point x="1222.0" y="1092.0"/>
      <point x="1000.0" y="1118.0"/>
      <point x="816.0" y="1118.0" type="curve" smooth="yes"/>
      <point x="320.0" y="1118.0"/>
      <point x="66.0" y="902.0"/>
      <point x="66.0" y="516.0" type="curve" smooth="yes"/>
      <point x="66.0" y="156.0"/>
      <point x="296.0" y="-22.0"/>
      <point x="564.0" y="-22.0" type="curve" smooth="yes"/>
      <point x="700.0" y="-22.0"/>
      <point x="808.0" y="16.0"/>
      <point x="890.0" y="90.0" type="curve"/>
      <point x="910.0" y="90.0" type="line"/>
    </contour>
    <contour>
      <point x="734.0" y="342.0" type="curve" smooth="yes"/>
      <point x="604.0" y="342.0"/>
      <point x="524.0" y="400.0"/>
      <point x="524.0" y="548.0" type="curve" smooth="yes"/>
      <point x="524.0" y="702.0"/>
      <point x="612.0" y="778.0"/>
      <point x="774.0" y="778.0" type="curve" smooth="yes"/>
      <point x="828.0" y="778.0"/>
      <point x="874.0" y="772.0"/>
      <point x="910.0" y="764.0" type="curve"/>
      <point x="910.0" y="380.0" type="line"/>
      <point x="858.0" y="354.0"/>
      <point x="794.0" y="342.0"/>
    </contour>
  </outline>
</glyph>
<glyph name="x" format="2">
  <advance width="1356.0"/>
  <unicode hex="0078"/>
  <anchor x="678.0" y="0.0" name="bottom"/>
  <anchor x="678.0" y="1200.0" name="top"/>
  <outline>
    <contour>
      <point x="856.0" y="0.0" type="line"/>
      <point x="1366.0" y="0.0" type="line"/>
      <point x="942.0" y="560.0" type="line"/>
      <point x="684.0" y="856.0" type="line"/>
      <point x="506.0" y="1100.0" type="line"/>
      <point x="-4.0" y="1100.0" type="line"/>
      <point x="410.0" y="554.0" type="line"/>
      <point x="674.0" y="258.0" type="line"/>
    </contour>
    <contour>
      <point x="-12.0" y="0.0" type="line"/>
      <point x="484.0" y="0.0" type="line"/>
      <point x="674.0" y="258.0" type="line"/>
      <point x="942.0" y="560.0" type="line"/>
      <point x="1352.0" y="1100.0" type="line"/>
      <point x="856.0" y="1100.0" type="line"/>
      <point x="684.0" y="856.0" type="line"/>
      <point x="410.0" y="554.0" type="line"/>
    </contour>
  </outline>
</glyph>
<glyph name="z" format="2">
  <advance width="1274.0"/>
  <unicode hex="007A"/>
  <anchor x="650.0" y="0.0" name="bottom"/>
  <anchor x="650.0" y="1200.0" name="top"/>
  <outline>
    <contour>
      <point x="92.0" y="0.0" type="line"/>
      <point x="1206.0" y="0.0" type="line"/>
      <point x="1206.0" y="360.0" type="line"/>
      <point x="638.0" y="360.0" type="line"/>
      <point x="638.0" y="288.0" type="line"/>
      <point x="1196.0" y="800.0" type="line"/>
      <point x="1196.0" y="1100.0" type="line"/>
      <point x="102.0" y="1100.0" type="line"/>
      <point x="102.0" y="740.0" type="line"/>
      <point x="650.0" y="740.0" type="line"/>
      <point x="650.0" y="812.0" type="line"/>
      <point x="92.0" y="300.0" type="line"/>
    </contour>
  </outline>
</glyph>
<glyph name="braceleft" format="2">
  <advance width="874.0"/>
  <unicode hex="007B"/>
  <outline>
    <contour>
      <point x="682.0" y="-460.0" type="curve" smooth="yes"/>
      <point x="766.0" y="-460.0"/>
      <point x="834.0" y="-454.0"/>
      <point x="896.0" y="-446.0" type="curve"/>
      <point x="896.0" y="-94.0" type="line"/>
      <point x="770.0" y="-94.0" type="line" smooth="yes"/>
      <point x="694.0" y="-94.0"/>
      <point x="654.0" y="-68.0"/>
      <point x="654.0" y="10.0" type="curve" smooth="yes"/>
      <point x="654.0" y="352.0" type="line" smooth="yes"/>
      <point x="654.0" y="548.0"/>
      <point x="534.0" y="656.0"/>
      <point x="242.0" y="656.0" type="curve"/>
      <point x="242.0" y="608.0" type="line"/>
      <point x="534.0" y="608.0"/>
      <point x="654.0" y="716.0"/>
      <point x="654.0" y="912.0" type="curve" smooth="yes"/>
      <point x="654.0" y="1166.0" type="line" smooth="yes"/>
      <point x="654.0" y="1244.0"/>
      <point x="694.0" y="1270.0"/>
      <point x="770.0" y="1270.0" type="curve" smooth="yes"/>
      <point x="896.0" y="1270.0" type="line"/>
      <point x="896.0" y="1622.0" type="line"/>
      <point x="834.0" y="1630.0"/>
      <point x="766.0" y="1636.0"/>
      <point x="682.0" y="1636.0" type="curve" smooth="yes"/>
      <point x="356.0" y="1636.0"/>
      <point x="190.0" y="1480.0"/>
      <point x="190.0" y="1202.0" type="curve" smooth="yes"/>
      <point x="190.0" y="930.0" type="line" smooth="yes"/>
      <point x="190.0" y="860.0"/>
      <point x="142.0" y="812.0"/>
      <point x="72.0" y="812.0" type="curve" smooth="yes"/>
      <point x="-2.0" y="812.0" type="line"/>
      <point x="-2.0" y="452.0" type="line"/>
      <point x="72.0" y="452.0" type="line" smooth="yes"/>
      <point x="142.0" y="452.0"/>
      <point x="190.0" y="404.0"/>
      <point x="190.0" y="334.0" type="curve" smooth="yes"/>
      <point x="190.0" y="-26.0" type="line" smooth="yes"/>
      <point x="190.0" y="-304.0"/>
      <point x="356.0" y="-460.0"/>
    </contour>
  </outline>
</glyph>
<glyph name="asciitilde" format="2">
  <advance width="1196.0"/>
  <unicode hex="007E"/>
  <outline>
    <contour>
      <point x="814.0" y="534.0" type="curve" smooth="yes"/>
      <point x="930.0" y="534.0"/>
      <point x="1010.0" y="564.0"/>
      <point x="1082.0" y="636.0" type="curve"/>
      <point x="1082.0" y="978.0" type="line"/>
      <point x="996.0" y="900.0"/>
      <point x="920.0" y="868.0"/>
      <point x="818.0" y="868.0" type="curve" smooth="yes"/>
      <point x="680.0" y="868.0"/>
      <point x="554.0" y="986.0"/>
      <point x="382.0" y="986.0" type="curve" smooth="yes"/>
      <point x="266.0" y="986.0"/>
      <point x="186.0" y="956.0"/>
      <point x="114.0" y="884.0" type="curve"/>
      <point x="114.0" y="542.0" type="line"/>
      <point x="200.0" y="620.0"/>
      <point x="276.0" y="652.0"/>
      <point x="378.0" y="652.0" type="curve" smooth="yes"/>
      <point x="516.0" y="652.0"/>
      <point x="642.0" y="534.0"/>
    </contour>
  </outline>
</glyph>
<glyph name="exclamdown" format="2">
  <advance width="736.0"/>
  <unicode hex="00A1"/>
  <outline>
    <contour>
      <point x="232.0" y="528.0" type="line"/>
      <point x="124.0" y="84.0" type="line"/>
      <point x="124.0" y="-380.0" type="line"/>
      <point x="612.0" y="-380.0" type="line"/>
      <point x="612.0" y="84.0" type="line"/>
      <point x="510.0" y="528.0" type="line"/>
    </contour>
    <contour>
      <point x="368.0" y="1120.0" type="curve" smooth="yes"/>
      <point x="186.0" y="1120.0"/>
      <point x="78.0" y="1022.0"/>
      <point x="78.0" y="864.0" type="curve" smooth="yes"/>
      <point x="78.0" y="706.0"/>
      <point x="182.0" y="608.0"/>
      <point x="368.0" y="608.0" type="curve" smooth="yes"/>
      <point x="554.0" y="608.0"/>
      <point x="658.0" y="710.0"/>
      <point x="658.0" y="864.0" type="curve" smooth="yes"/>
      <point x="658.0" y="1018.0"/>
      <point x="550.0" y="1120.0"/>
    </contour>
  </outline>
</glyph>
<glyph name="sterling" format="2">
  <advance width="1584.0"/>
  <unicode hex="00A3"/>
  <outline>
    <contour>
      <point x="290.0" y="124.0" type="line"/>
      <point x="744.0" y="124.0" type="line"/>
      <point x="744.0" y="972.0" type="line" smooth="yes"/>
      <point x="744.0" y="1094.0"/>
      <point x="810.0" y="1138.0"/>
      <point x="1070.0" y="1138.0" type="curve" smooth="yes"/>
      <point x="1196.0" y="1138.0"/>
      <point x="1354.0" y="1118.0"/>
      <point x="1454.0" y="1090.0" type="curve"/>
      <point x="1454.0" y="1458.0" type="line"/>
      <point x="1348.0" y="1482.0"/>
      <point x="1204.0" y="1500.0"/>
      <point x="1046.0" y="1500.0" type="curve" smooth="yes"/>
      <point x="536.0" y="1500.0"/>
      <point x="290.0" y="1308.0"/>
      <point x="290.0" y="946.0" type="curve" smooth="yes"/>
    </contour>
    <contour>
      <point x="90.0" y="0.0" type="line"/>
      <point x="1514.0" y="0.0" type="line"/>
      <point x="1514.0" y="350.0" type="line"/>
      <point x="90.0" y="350.0" type="line"/>
    </contour>
    <contour>
      <point x="90.0" y="590.0" type="line"/>
      <point x="1214.0" y="590.0" type="line"/>
      <point x="1214.0" y="910.0" type="line"/>
      <point x="90.0" y="910.0" type="line"/>
    </contour>
  </outline>
</glyph>
<glyph name="currency" format="2">
  <advance width="1440.0"/>
  <unicode hex="00A4"/>
  <outline>
    <contour>
      <point x="496.0" y="800.0" type="line"/>
      <point x="660.0" y="964.0" type="line"/>
      <point x="456.0" y="1200.0" type="line"/>
      <point x="316.0" y="1342.0" type="line"/>
      <point x="118.0" y="1144.0" type="line"/>
      <point x="260.0" y="1004.0" type="line"/>
    </contour>
    <contour>
      <point x="944.0" y="800.0" type="line"/>
      <point x="1180.0" y="1004.0" type="line"/>
      <point x="1322.0" y="1144.0" type="line"/>
      <point x="1124.0" y="1342.0" type="line"/>
      <point x="984.0" y="1200.0" type="line"/>
      <point x="780.0" y="964.0" type="line"/>
    </contour>
    <contour>
      <point x="1124.0" y="138.0" type="line"/>
      <point x="1322.0" y="336.0" type="line"/>
      <point x="1180.0" y="476.0" type="line"/>
      <point x="944.0" y="680.0" type="line"/>
      <point x="780.0" y="516.0" type="line"/>
      <point x="984.0" y="280.0" type="line"/>
    </contour>
    <contour>
      <point x="316.0" y="138.0" type="line"/>
      <point x="456.0" y="280.0" type="line"/>
      <point x="660.0" y="516.0" type="line"/>
      <point x="496.0" y="680.0" type="line"/>
      <point x="260.0" y="476.0" type="line"/>
      <point x="118.0" y="336.0" type="line"/>
    </contour>
    <contour>
      <point x="720.0" y="356.0" type="curve" smooth="yes"/>
      <point x="940.0" y="356.0"/>
      <point x="1110.0" y="510.0"/>
      <point x="1110.0" y="740.0" type="curve" smooth="yes"/>
      <point x="1110.0" y="968.0"/>
      <point x="940.0" y="1122.0"/>
      <point x="720.0" y="1122.0" type="curve" smooth="yes"/>
      <point x="500.0" y="1122.0"/>
      <point x="330.0" y="968.0"/>
      <point x="330.0" y="740.0" type="curve" smooth="yes"/>
      <point x="330.0" y="510.0"/>
      <point x="500.0" y="356.0"/>
    </contour>
    <contour>
      <point x="720.0" y="580.0" type="curve" smooth="yes"/>
      <point x="636.0" y="580.0"/>
      <point x="572.0" y="640.0"/>
      <point x="572.0" y="740.0" type="curve" smooth="yes"/>
      <point x="572.0" y="840.0"/>
      <point x="636.0" y="900.0"/>
      <point x="722.0" y="900.0" type="curve" smooth="yes"/>
      <point x="808.0" y="900.0"/>
      <point x="868.0" y="832.0"/>
      <point x="868.0" y="740.0" type="curve" smooth="yes"/>
      <point x="868.0" y="640.0"/>
      <point x="804.0" y="580.0"/>
    </contour>
  </outline>
</glyph>
<glyph name="section" format="2">
  <advance width="1364.0"/>
  <unicode hex="00A7"/>
  <outline>
    <contour>
      <point x="574.0" y="-22.0" type="curve" smooth="yes"/>
      <point x="1002.0" y="-22.0"/>
      <point x="1198.0" y="120.0"/>
      <point x="1198.0" y="350.0" type="curve" smooth="yes"/>
      <point x="1198.0" y="522.0"/>
      <point x="1070.0" y="608.0"/>
      <point x="876.0" y="640.0" type="curve" smooth="yes"/>
      <point x="568.0" y="690.0" type="line" smooth="yes"/>
      <point x="494.0" y="702.0"/>
      <point x="472.0" y="730.0"/>
      <point x="472.0" y="764.0" type="curve" smooth="yes"/>
      <point x="472.0" y="784.0"/>
      <point x="482.0" y="814.0"/>
      <point x="520.0" y="860.0" type="curve"/>
      <point x="296.0" y="1008.0" type="line"/>
      <point x="168.0" y="946.0"/>
      <point x="92.0" y="858.0"/>
      <point x="92.0" y="732.0" type="curve" smooth="yes"/>
      <point x="92.0" y="542.0"/>
      <point x="228.0" y="446.0"/>
      <point x="416.0" y="416.0" type="curve" smooth="yes"/>
      <point x="722.0" y="368.0" type="line" smooth="yes"/>
      <point x="766.0" y="362.0"/>
      <point x="784.0" y="348.0"/>
      <point x="784.0" y="322.0" type="curve" smooth="yes"/>
      <point x="784.0" y="294.0"/>
      <point x="750.0" y="268.0"/>
      <point x="566.0" y="268.0" type="curve" smooth="yes"/>
      <point x="430.0" y="268.0"/>
      <point x="288.0" y="282.0"/>
      <point x="156.0" y="314.0" type="curve"/>
      <point x="156.0" y="24.0" type="line"/>
      <point x="282.0" y="-6.0"/>
      <point x="450.0" y="-22.0"/>
    </contour>
    <contour>
      <point x="1046.0" y="460.0" type="line"/>
      <point x="1186.0" y="524.0"/>
      <point x="1272.0" y="616.0"/>
      <point x="1272.0" y="750.0" type="curve" smooth="yes"/>
      <point x="1272.0" y="942.0"/>
      <point x="1144.0" y="1034.0"/>
      <point x="952.0" y="1062.0" type="curve" smooth="yes"/>
      <point x="626.0" y="1108.0" type="line" smooth="yes"/>
      <point x="582.0" y="1114.0"/>
      <point x="560.0" y="1126.0"/>
      <point x="560.0" y="1150.0" type="curve" smooth="yes"/>
      <point x="560.0" y="1174.0"/>
      <point x="600.0" y="1208.0"/>
      <point x="860.0" y="1208.0" type="curve" smooth="yes"/>
      <point x="960.0" y="1208.0"/>
      <point x="1060.0" y="1198.0"/>
      <point x="1156.0" y="1178.0" type="curve"/>
      <point x="1156.0" y="1468.0" type="line"/>
      <point x="1064.0" y="1486.0"/>
      <point x="934.0" y="1498.0"/>
      <point x="822.0" y="1498.0" type="curve" smooth="yes"/>
      <point x="328.0" y="1498.0"/>
      <point x="146.0" y="1350.0"/>
      <point x="146.0" y="1122.0" type="curve" smooth="yes"/>
      <point x="146.0" y="962.0"/>
      <point x="280.0" y="870.0"/>
      <point x="492.0" y="836.0" type="curve" smooth="yes"/>
      <point x="798.0" y="786.0" type="line" smooth="yes"/>
      <point x="872.0" y="774.0"/>
      <point x="892.0" y="744.0"/>
      <point x="892.0" y="708.0" type="curve" smooth="yes"/>
      <point x="892.0" y="670.0"/>
      <point x="868.0" y="646.0"/>
      <point x="808.0" y="598.0" type="curve"/>
    </contour>
  </outline>
</glyph>
<glyph name="dieresis" format="2">
  <advance width="1200.0"/>
  <unicode hex="00A8"/>
  <anchor x="600.0" y="1200.0" name="_top"/>
  <anchor x="600.0" y="1616.0" name="top"/>
  <outline>
    <contour>
      <point x="886.0" y="1210.0" type="curve" smooth="yes"/>
      <point x="1048.0" y="1210.0"/>
      <point x="1120.0" y="1288.0"/>
      <point x="1120.0" y="1418.0" type="curve" smooth="yes"/>
      <point x="1120.0" y="1548.0"/>
      <point x="1048.0" y="1626.0"/>
      <point x="886.0" y="1626.0" type="curve" smooth="yes"/>
      <point x="724.0" y="1626.0"/>
      <point x="652.0" y="1548.0"/>
      <point x="652.0" y="1418.0" type="curve" smooth="yes"/>
      <point x="652.0" y="1288.0"/>
      <point x="724.0" y="1210.0"/>
    </contour>
    <contour>
      <point x="314.0" y="1210.0" type="curve" smooth="yes"/>
      <point x="476.0" y="1210.0"/>
      <point x="548.0" y="1288.0"/>
      <point x="548.0" y="1418.0" type="curve" smooth="yes"/>
      <point x="548.0" y="1548.0"/>
      <point x="476.0" y="1626.0"/>
      <point x="314.0" y="1626.0" type="curve" smooth="yes"/>
      <point x="152.0" y="1626.0"/>
      <point x="80.0" y="1548.0"/>
      <point x="80.0" y="1418.0" type="curve" smooth="yes"/>
      <point x="80.0" y="1288.0"/>
      <point x="152.0" y="1210.0"/>
    </contour>
  </outline>
</glyph>
<glyph name="ordfeminine" format="2">
  <advance width="1126.0"/>
  <unicode hex="00AA"/>
  <outline>
    <contour>
      <point x="392.0" y="592.0" type="curve" smooth="yes"/>
      <point x="494.0" y="592.0"/>
      <point x="590.0" y="620.0"/>
      <point x="650.0" y="684.0" type="curve"/>
      <point x="668.0" y="684.0" type="line"/>
      <point x="698.0" y="610.0" type="line"/>
      <point x="1058.0" y="610.0" type="line"/>
      <point x="1058.0" y="1046.0" type="line" smooth="yes"/>
      <point x="1058.0" y="1386.0"/>
      <point x="896.0" y="1502.0"/>
      <point x="494.0" y="1502.0" type="curve" smooth="yes"/>
      <point x="386.0" y="1502.0"/>
      <point x="248.0" y="1490.0"/>
      <point x="126.0" y="1460.0" type="curve"/>
      <point x="126.0" y="1176.0" type="line"/>
      <point x="214.0" y="1198.0"/>
      <point x="326.0" y="1212.0"/>
      <point x="416.0" y="1212.0" type="curve" smooth="yes"/>
      <point x="600.0" y="1212.0"/>
      <point x="628.0" y="1178.0"/>
      <point x="628.0" y="1118.0" type="curve" smooth="yes"/>
      <point x="628.0" y="856.0" type="line"/>
      <point x="600.0" y="850.0"/>
      <point x="568.0" y="848.0"/>
      <point x="546.0" y="848.0" type="curve" smooth="yes"/>
      <point x="480.0" y="848.0"/>
      <point x="454.0" y="872.0"/>
      <point x="454.0" y="904.0" type="curve" smooth="yes"/>
      <point x="454.0" y="938.0"/>
      <point x="476.0" y="960.0"/>
      <point x="544.0" y="962.0" type="curve" smooth="yes"/>
      <point x="744.0" y="968.0" type="line"/>
      <point x="698.0" y="1148.0" type="line"/>
      <point x="470.0" y="1140.0" type="line" smooth="yes"/>
      <point x="162.0" y="1130.0"/>
      <point x="30.0" y="1038.0"/>
      <point x="30.0" y="860.0" type="curve" smooth="yes"/>
      <point x="30.0" y="708.0"/>
      <point x="134.0" y="592.0"/>
    </contour>
  </outline>
</glyph>
<glyph name="plusminus" format="2">
  <advance width="1196.0"/>
  <unicode hex="00B1"/>
  <outline>
    <contour>
      <point x="420.0" y="410.0" type="line"/>
      <point x="776.0" y="410.0" type="line"/>
      <point x="776.0" y="670.0" type="line"/>
      <point x="1082.0" y="670.0" type="line"/>
      <point x="1082.0" y="1010.0" type="line"/>
      <point x="776.0" y="1010.0" type="line"/>
      <point x="776.0" y="1270.0" type="line"/>
      <point x="420.0" y="1270.0" type="line"/>
      <point x="420.0" y="1010.0" type="line"/>
      <point x="114.0" y="1010.0" type="line"/>
      <point x="114.0" y="670.0" type="line"/>
      <point x="420.0" y="670.0" type="line"/>
    </contour>
    <contour>
      <point x="114.0" y="0.0" type="line"/>
      <point x="1082.0" y="0.0" type="line"/>
      <point x="1082.0" y="340.0" type="line"/>
      <point x="114.0" y="340.0" type="line"/>
    </contour>
  </outline>
</glyph>
<glyph name="paragraph" format="2">
  <advance width="1528.0"/>
  <unicode hex="00B6"/>
  <outline>
    <contour>
      <point x="612.0" y="0.0" type="line"/>
      <point x="930.0" y="0.0" type="line"/>
      <point x="930.0" y="1480.0" type="line"/>
      <point x="822.0" y="1494.0"/>
      <point x="710.0" y="1500.0"/>
      <point x="598.0" y="1500.0" type="curve" smooth="yes"/>
      <point x="242.0" y="1500.0"/>
      <point x="78.0" y="1330.0"/>
      <point x="78.0" y="944.0" type="curve" smooth="yes"/>
      <point x="78.0" y="574.0"/>
      <point x="238.0" y="388.0"/>
      <point x="542.0" y="388.0" type="curve" smooth="yes"/>
      <point x="566.0" y="388.0"/>
      <point x="590.0" y="390.0"/>
      <point x="612.0" y="390.0" type="curve"/>
    </contour>
    <contour>
      <point x="1080.0" y="0.0" type="line"/>
      <point x="1398.0" y="0.0" type="line"/>
      <point x="1398.0" y="1480.0" type="line"/>
      <point x="1080.0" y="1480.0" type="line"/>
    </contour>
  </outline>
</glyph>
<glyph name="threequarters" format="2">
  <advance width="2476.0"/>
  <unicode hex="00BE"/>
  <outline>
    <contour>
      <point x="400.0" y="602.0" type="curve" smooth="yes"/>
      <point x="752.0" y="602.0"/>
      <point x="890.0" y="722.0"/>
      <point x="890.0" y="904.0" type="curve" smooth="yes"/>
      <point x="890.0" y="1042.0"/>
      <point x="806.0" y="1112.0"/>
      <point x="686.0" y="1134.0" type="curve"/>
      <point x="686.0" y="1128.0" type="line"/>
      <point x="788.0" y="1152.0"/>
      <point x="852.0" y="1234.0"/>
      <point x="852.0" y="1338.0" type="curve" smooth="yes"/>
      <point x="852.0" y="1524.0"/>
      <point x="708.0" y="1630.0"/>
      <point x="384.0" y="1630.0" type="curve" smooth="yes"/>
      <point x="280.0" y="1630.0"/>
      <point x="148.0" y="1612.0"/>
      <point x="76.0" y="1590.0" type="curve"/>
      <point x="76.0" y="1344.0" type="line"/>
      <point x="152.0" y="1370.0"/>
      <point x="266.0" y="1388.0"/>
      <point x="348.0" y="1388.0" type="curve" smooth="yes"/>
      <point x="466.0" y="1388.0"/>
      <point x="504.0" y="1358.0"/>
      <point x="504.0" y="1312.0" type="curve" smooth="yes"/>
      <point x="504.0" y="1276.0"/>
      <point x="480.0" y="1248.0"/>
      <point x="376.0" y="1248.0" type="curve" smooth="yes"/>
      <point x="156.0" y="1248.0" type="line"/>
      <point x="156.0" y="1004.0" type="line"/>
      <point x="396.0" y="1004.0" type="line" smooth="yes"/>
      <point x="518.0" y="1004.0"/>
      <point x="552.0" y="976.0"/>
      <point x="552.0" y="926.0" type="curve" smooth="yes"/>
      <point x="552.0" y="876.0"/>
      <point x="508.0" y="846.0"/>
      <point x="378.0" y="846.0" type="curve" smooth="yes"/>
      <point x="282.0" y="846.0"/>
      <point x="164.0" y="860.0"/>
      <point x="62.0" y="884.0" type="curve"/>
      <point x="62.0" y="638.0" type="line"/>
      <point x="166.0" y="614.0"/>
      <point x="278.0" y="602.0"/>
    </contour>
    <contour>
      <point x="600.0" y="-136.0" type="line"/>
      <point x="982.0" y="-136.0" type="line"/>
      <point x="1876.0" y="1616.0" type="line"/>
      <point x="1494.0" y="1616.0" type="line"/>
    </contour>
    <contour>
      <point x="1516.0" y="26.0" type="line"/>
      <point x="2456.0" y="26.0" type="line"/>
      <point x="2456.0" y="294.0" type="line"/>
      <point x="1828.0" y="294.0" type="line"/>
      <point x="1846.0" y="212.0" type="line"/>
      <point x="2134.0" y="864.0" type="line"/>
      <point x="1804.0" y="864.0" type="line"/>
      <point x="1516.0" y="212.0" type="line"/>
    </contour>
    <contour>
      <point x="2012.0" y="-136.0" type="line"/>
      <point x="2332.0" y="-136.0" type="line"/>
      <point x="2332.0" y="526.0" type="line"/>
      <point x="2062.0" y="526.0" type="line"/>
      <point x="2012.0" y="294.0" type="line"/>
    </contour>
  </outline>
</glyph>
<glyph name="questiondown" format="2">
  <advance width="1188.0"/>
  <unicode hex="00BF"/>
  <outline>
    <contour>
      <point x="782.0" y="568.0" type="line"/>
      <point x="504.0" y="568.0" type="line"/>
      <point x="476.0" y="442.0" type="line"/>
      <point x="226.0" y="384.0"/>
      <point x="60.0" y="256.0"/>
      <point x="60.0" y="34.0" type="curve" smooth="yes"/>
      <point x="60.0" y="-244.0"/>
      <point x="266.0" y="-400.0"/>
      <point x="710.0" y="-400.0" type="curve" smooth="yes"/>
      <point x="856.0" y="-400.0"/>
      <point x="1038.0" y="-374.0"/>
      <point x="1146.0" y="-340.0" type="curve"/>
      <point x="1146.0" y="10.0" type="line"/>
      <point x="1032.0" y="-28.0"/>
      <point x="884.0" y="-52.0"/>
      <point x="758.0" y="-52.0" type="curve" smooth="yes"/>
      <point x="578.0" y="-52.0"/>
      <point x="512.0" y="-8.0"/>
      <point x="512.0" y="64.0" type="curve" smooth="yes"/>
      <point x="512.0" y="130.0"/>
      <point x="584.0" y="196.0"/>
      <point x="862.0" y="222.0" type="curve"/>
    </contour>
    <contour>
      <point x="642.0" y="1120.0" type="curve" smooth="yes"/>
      <point x="460.0" y="1120.0"/>
      <point x="352.0" y="1026.0"/>
      <point x="352.0" y="884.0" type="curve" smooth="yes"/>
      <point x="352.0" y="742.0"/>
      <point x="456.0" y="648.0"/>
      <point x="642.0" y="648.0" type="curve" smooth="yes"/>
      <point x="828.0" y="648.0"/>
      <point x="932.0" y="738.0"/>
      <point x="932.0" y="884.0" type="curve" smooth="yes"/>
      <point x="932.0" y="1030.0"/>
      <point x="824.0" y="1120.0"/>
    </contour>
  </outline>
</glyph>
<glyph name="AE" format="2">
  <advance width="2382.0"/>
  <unicode hex="00C6"/>
  <anchor x="1236.0" y="0.0" name="bottom"/>
  <anchor x="1236.0" y="1520.0" name="top"/>
  <outline>
    <contour>
      <point x="16.0" y="0.0" type="line"/>
      <point x="476.0" y="0.0" type="line"/>
      <point x="846.0" y="1130.0" type="line"/>
      <point x="1202.0" y="1130.0" type="line"/>
      <point x="1202.0" y="1480.0" type="line"/>
      <point x="536.0" y="1480.0" type="line"/>
    </contour>
    <contour>
      <point x="500.0" y="334.0" type="line"/>
      <point x="1194.0" y="334.0" type="line"/>
      <point x="1194.0" y="684.0" type="line"/>
      <point x="610.0" y="684.0" type="line"/>
    </contour>
    <contour>
      <point x="1116.0" y="0.0" type="line"/>
      <point x="2296.0" y="0.0" type="line"/>
      <point x="2296.0" y="350.0" type="line"/>
      <point x="1562.0" y="350.0" type="line"/>
      <point x="1484.0" y="1130.0" type="line"/>
      <point x="2286.0" y="1130.0" type="line"/>
      <point x="2286.0" y="1480.0" type="line"/>
      <point x="988.0" y="1480.0" type="line"/>
    </contour>
    <contour>
      <point x="1242.0" y="580.0" type="line"/>
      <point x="2180.0" y="580.0" type="line"/>
      <point x="2180.0" y="930.0" type="line"/>
      <point x="1242.0" y="930.0" type="line"/>
    </contour>
  </outline>
</glyph>
<glyph name="Ccedilla" format="2">
  <advance width="1488.0"/>
  <unicode hex="00C7"/>
  <anchor x="880.0" y="0.0" name="_bottom"/>
  <anchor x="880.0" y="0.0" name="bottom"/>
  <anchor x="880.0" y="1520.0" name="top"/>
  <outline>
    <contour>
      <point x="1048.0" y="-20.0" type="curve" smooth="yes"/>
      <point x="1176.0" y="-20.0"/>
      <point x="1308.0" y="-4.0"/>
      <point x="1416.0" y="20.0" type="curve"/>
      <point x="1416.0" y="396.0" type="line"/>
      <point x="1318.0" y="376.0"/>
      <point x="1202.0" y="360.0"/>
      <point x="1078.0" y="360.0" type="curve" smooth="yes"/>
      <point x="728.0" y="360.0"/>
      <point x="582.0" y="496.0"/>
      <point x="582.0" y="740.0" type="curve" smooth="yes"/>
      <point x="582.0" y="984.0"/>
      <point x="728.0" y="1120.0"/>
      <point x="1098.0" y="1120.0" type="curve" smooth="yes"/>
      <point x="1214.0" y="1120.0"/>
      <point x="1318.0" y="1110.0"/>
      <point x="1416.0" y="1092.0" type="curve"/>
      <point x="1416.0" y="1468.0" type="line"/>
      <point x="1302.0" y="1490.0"/>
      <point x="1184.0" y="1500.0"/>
      <point x="1058.0" y="1500.0" type="curve" smooth="yes"/>
      <point x="414.0" y="1500.0"/>
      <point x="84.0" y="1202.0"/>
      <point x="84.0" y="736.0" type="curve" smooth="yes"/>
      <point x="84.0" y="242.0"/>
      <point x="408.0" y="-20.0"/>
    </contour>
    <contour>
      <point x="834.0" y="-460.0" type="curve" smooth="yes"/>
      <point x="1046.0" y="-460.0"/>
      <point x="1152.0" y="-382.0"/>
      <point x="1152.0" y="-260.0" type="curve" smooth="yes"/>
      <point x="1152.0" y="-142.0"/>
      <point x="1066.0" y="-66.0"/>
      <point x="858.0" y="-66.0" type="curve"/>
      <point x="954.0" y="-122.0" type="line"/>
      <point x="954.0" y="20.0" type="line"/>
      <point x="752.0" y="20.0" type="line"/>
      <point x="752.0" y="-184.0" type="line"/>
      <point x="814.0" y="-184.0" type="line" smooth="yes"/>
      <point x="888.0" y="-184.0"/>
      <point x="928.0" y="-200.0"/>
      <point x="928.0" y="-246.0" type="curve" smooth="yes"/>
      <point x="928.0" y="-288.0"/>
      <point x="888.0" y="-304.0"/>
      <point x="812.0" y="-304.0" type="curve" smooth="yes"/>
      <point x="748.0" y="-304.0"/>
      <point x="670.0" y="-294.0"/>
      <point x="606.0" y="-274.0" type="curve"/>
      <point x="606.0" y="-428.0" type="line"/>
      <point x="674.0" y="-448.0"/>
      <point x="744.0" y="-460.0"/>
    </contour>
  </outline>
</glyph>
<glyph name="Ntilde" format="2">
  <advance width="1804.0"/>
  <unicode hex="00D1"/>
  <anchor x="902.0" y="1520.0" name="_top"/>
  <anchor x="902.0" y="0.0" name="bottom"/>
  <anchor x="902.0" y="1520.0" name="top"/>
  <outline>
    <contour>
      <point x="130.0" y="0.0" type="line"/>
      <point x="578.0" y="0.0" type="line"/>
      <point x="578.0" y="934.0" type="line"/>
      <point x="504.0" y="934.0" type="line"/>
      <point x="1198.0" y="0.0" type="line"/>
      <point x="1674.0" y="0.0" type="line"/>
      <point x="1674.0" y="1480.0" type="line"/>
      <point x="1226.0" y="1480.0" type="line"/>
      <point x="1226.0" y="546.0" type="line"/>
      <point x="1300.0" y="546.0" type="line"/>
      <point x="606.0" y="1480.0" type="line"/>
      <point x="130.0" y="1480.0" type="line"/>
    </contour>
    <contour>
      <point x="1100.0" y="1586.0" type="curve" smooth="yes"/>
      <point x="1208.0" y="1586.0"/>
      <point x="1280.0" y="1608.0"/>
      <point x="1346.0" y="1660.0" type="curve"/>
      <point x="1346.0" y="1892.0" type="line"/>
      <point x="1270.0" y="1848.0"/>
      <point x="1206.0" y="1828.0"/>
      <point x="1112.0" y="1828.0" type="curve" smooth="yes"/>
      <point x="968.0" y="1828.0"/>
      <point x="864.0" y="1902.0"/>
      <point x="704.0" y="1902.0" type="curve" smooth="yes"/>
      <point x="596.0" y="1902.0"/>
      <point x="524.0" y="1878.0"/>
      <point x="458.0" y="1826.0" type="curve"/>
      <point x="458.0" y="1594.0" type="line"/>
      <point x="534.0" y="1638.0"/>
      <point x="598.0" y="1658.0"/>
      <point x="692.0" y="1658.0" type="curve" smooth="yes"/>
      <point x="836.0" y="1658.0"/>
      <point x="940.0" y="1586.0"/>
    </contour>
  </outline>
</glyph>
<glyph name="iacute" format="2">
  <advance width="696.0"/>
  <unicode hex="00ED"/>
  <anchor x="348.0" y="1200.0" name="_top"/>
  <anchor x="348.0" y="0.0" name="bottom"/>
  <anchor x="580.0" y="0.0" name="ogonek"/>
  <anchor x="348.0" y="1200.0" name="top"/>
  <outline>
    <contour>
      <point x="116.0" y="0.0" type="line"/>
      <point x="580.0" y="0.0" type="line"/>
      <point x="580.0" y="1100.0" type="line"/>
      <point x="116.0" y="1100.0" type="line"/>
    </contour>
    <contour>
      <point x="128.0" y="1220.0" type="line"/>
      <point x="568.0" y="1220.0" type="line"/>
      <point x="894.0" y="1616.0" type="line"/>
      <point x="386.0" y="1616.0" type="line"/>
    </contour>
  </outline>
</glyph>
<glyph name="odieresis" format="2">
  <advance width="1464.0"/>
  <unicode hex="00F6"/>
  <anchor x="732.0" y="1200.0" name="_top"/>
  <anchor x="732.0" y="0.0" name="bottom"/>
  <anchor x="732.0" y="550.0" name="center"/>
  <anchor x="942.0" y="0.0" name="ogonek"/>
  <anchor x="732.0" y="1200.0" name="top"/>
  <anchor x="734.0" y="1100.0" name="topright"/>
  <outline>
    <contour>
      <point x="732.0" y="-22.0" type="curve" smooth="yes"/>
      <point x="1134.0" y="-22.0"/>
      <point x="1398.0" y="194.0"/>
      <point x="1398.0" y="550.0" type="curve" smooth="yes"/>
      <point x="1398.0" y="906.0"/>
      <point x="1156.0" y="1118.0"/>
      <point x="732.0" y="1118.0" type="curve" smooth="yes"/>
      <point x="308.0" y="1118.0"/>
      <point x="66.0" y="906.0"/>
      <point x="66.0" y="550.0" type="curve" smooth="yes"/>
      <point x="66.0" y="194.0"/>
      <point x="330.0" y="-22.0"/>
    </contour>
    <contour>
      <point x="732.0" y="326.0" type="curve" smooth="yes"/>
      <point x="596.0" y="326.0"/>
      <point x="524.0" y="396.0"/>
      <point x="524.0" y="550.0" type="curve" smooth="yes"/>
      <point x="524.0" y="704.0"/>
      <point x="596.0" y="770.0"/>
      <point x="732.0" y="770.0" type="curve" smooth="yes"/>
      <point x="868.0" y="770.0"/>
      <point x="940.0" y="704.0"/>
      <point x="940.0" y="550.0" type="curve" smooth="yes"/>
      <point x="940.0" y="396.0"/>
      <point x="868.0" y="326.0"/>
    </contour>
    <contour>
      <point x="1018.0" y="1210.0" type="curve" smooth="yes"/>
      <point x="1180.0" y="1210.0"/>
      <point x="1252.0" y="1288.0"/>
      <point x="1252.0" y="1418.0" type="curve" smooth="yes"/>
      <point x="1252.0" y="1548.0"/>
      <point x="1180.0" y="1626.0"/>
      <point x="1018.0" y="1626.0" type="curve" smooth="yes"/>
      <point x="856.0" y="1626.0"/>
      <point x="784.0" y="1548.0"/>
      <point x="784.0" y="1418.0" type="curve" smooth="yes"/>
      <point x="784.0" y="1288.0"/>
      <point x="856.0" y="1210.0"/>
    </contour>
    <contour>
      <point x="446.0" y="1210.0" type="curve" smooth="yes"/>
      <point x="608.0" y="1210.0"/>
      <point x="680.0" y="1288.0"/>
      <point x="680.0" y="1418.0" type="curve" smooth="yes"/>
      <point x="680.0" y="1548.0"/>
      <point x="608.0" y="1626.0"/>
      <point x="446.0" y="1626.0" type="curve" smooth="yes"/>
      <point x="284.0" y="1626.0"/>
      <point x="212.0" y="1548.0"/>
      <point x="212.0" y="1418.0" type="curve" smooth="yes"/>
      <point x="212.0" y="1288.0"/>
      <point x="284.0" y="1210.0"/>
    </contour>
  </outline>
</glyph>
<glyph name="divide" format="2">
  <advance width="1196.0"/>
  <unicode hex="00F7"/>
  <outline>
    <contour>
      <point x="114.0" y="590.0" type="line"/>
      <point x="1082.0" y="590.0" type="line"/>
      <point x="1082.0" y="930.0" type="line"/>
      <point x="114.0" y="930.0" type="line"/>
    </contour>
    <contour>
      <point x="598.0" y="54.0" type="curve" smooth="yes"/>
      <point x="766.0" y="54.0"/>
      <point x="866.0" y="148.0"/>
      <point x="866.0" y="290.0" type="curve" smooth="yes"/>
      <point x="866.0" y="432.0"/>
      <point x="770.0" y="526.0"/>
      <point x="598.0" y="526.0" type="curve" smooth="yes"/>
      <point x="426.0" y="526.0"/>
      <point x="330.0" y="436.0"/>
      <point x="330.0" y="290.0" type="curve" smooth="yes"/>
      <point x="330.0" y="144.0"/>
      <point x="430.0" y="54.0"/>
    </contour>
    <contour>
      <point x="598.0" y="994.0" type="curve" smooth="yes"/>
      <point x="766.0" y="994.0"/>
      <point x="866.0" y="1088.0"/>
      <point x="866.0" y="1230.0" type="curve" smooth="yes"/>
      <point x="866.0" y="1372.0"/>
      <point x="770.0" y="1466.0"/>
      <point x="598.0" y="1466.0" type="curve" smooth="yes"/>
      <point x="426.0" y="1466.0"/>
      <point x="330.0" y="1376.0"/>
      <point x="330.0" y="1230.0" type="curve" smooth="yes"/>
      <point x="330.0" y="1084.0"/>
      <point x="430.0" y="994.0"/>
    </contour>
  </outline>
</glyph>
<glyph name="ucircumflex" format="2">
  <advance width="1452.0"/>
  <unicode hex="00FB"/>
  <anchor x="722.0" y="1200.0" name="_top"/>
  <anchor x="722.0" y="0.0" name="bottom"/>
  <anchor x="1336.0" y="0.0" name="ogonek"/>
  <anchor x="722.0" y="1200.0" name="top"/>
  <anchor x="892.0" y="1100.0" name="topright"/>
  <outline>
    <contour>
      <point x="586.0" y="-18.0" type="curve" smooth="yes"/>
      <point x="708.0" y="-18.0"/>
      <point x="824.0" y="24.0"/>
      <point x="914.0" y="96.0" type="curve"/>
      <point x="930.0" y="96.0" type="line"/>
      <point x="958.0" y="0.0" type="line"/>
      <point x="1336.0" y="0.0" type="line"/>
      <point x="1336.0" y="1100.0" type="line"/>
      <point x="872.0" y="1100.0" type="line"/>
      <point x="872.0" y="430.0" type="line"/>
      <point x="832.0" y="392.0"/>
      <point x="766.0" y="366.0"/>
      <point x="700.0" y="366.0" type="curve" smooth="yes"/>
      <point x="618.0" y="366.0"/>
      <point x="572.0" y="402.0"/>
      <point x="572.0" y="518.0" type="curve" smooth="yes"/>
      <point x="572.0" y="1100.0" type="line"/>
      <point x="108.0" y="1100.0" type="line"/>
      <point x="108.0" y="492.0" type="line" smooth="yes"/>
      <point x="108.0" y="132.0"/>
      <point x="304.0" y="-18.0"/>
    </contour>
    <contour>
      <point x="258.0" y="1220.0" type="line"/>
      <point x="592.0" y="1220.0" type="line"/>
      <point x="756.0" y="1456.0" type="line"/>
      <point x="688.0" y="1456.0" type="line"/>
      <point x="852.0" y="1220.0" type="line"/>
      <point x="1186.0" y="1220.0" type="line"/>
      <point x="900.0" y="1616.0" type="line"/>
      <point x="544.0" y="1616.0" type="line"/>
    </contour>
  </outline>
</glyph>
<glyph name="udieresis" format="2">
  <advance width="1452.0"/>
  <unicode hex="00FC"/>
  <anchor x="722.0" y="1200.0" name="_top"/>
  <anchor x="722.0" y="0.0" name="bottom"/>
  <anchor x="1336.0" y="0.0" name="ogonek"/>
  <anchor x="722.0" y="1200.0" name="top"/>
  <anchor x="892.0" y="1100.0" name="topright"/>
  <outline>
    <contour>
      <point x="586.0" y="-18.0" type="curve" smooth="yes"/>
      <point x="708.0" y="-18.0"/>
      <point x="824.0" y="24.0"/>
      <point x="914.0" y="96.0" type="curve"/>
      <point x="930.0" y="96.0" type="line"/>
      <point x="958.0" y="0.0" type="line"/>
      <point x="1336.0" y="0.0" type="line"/>
      <point x="1336.0" y="1100.0" type="line"/>
      <point x="872.0" y="1100.0" type="line"/>
      <point x="872.0" y="430.0" type="line"/>
      <point x="832.0" y="392.0"/>
      <point x="766.0" y="366.0"/>
      <point x="700.0" y="366.0" type="curve" smooth="yes"/>
      <point x="618.0" y="366.0"/>
      <point x="572.0" y="402.0"/>
      <point x="572.0" y="518.0" type="curve" smooth="yes"/>
      <point x="572.0" y="1100.0" type="line"/>
      <point x="108.0" y="1100.0" type="line"/>
      <point x="108.0" y="492.0" type="line" smooth="yes"/>
      <point x="108.0" y="132.0"/>
      <point x="304.0" y="-18.0"/>
    </contour>
    <contour>
      <point x="1008.0" y="1210.0" type="curve" smooth="yes"/>
      <point x="1170.0" y="1210.0"/>
      <point x="1242.0" y="1288.0"/>
      <point x="1242.0" y="1418.0" type="curve" smooth="yes"/>
      <point x="1242.0" y="1548.0"/>
      <point x="1170.0" y="1626.0"/>
      <point x="1008.0" y="1626.0" type="curve" smooth="yes"/>
      <point x="846.0" y="1626.0"/>
      <point x="774.0" y="1548.0"/>
      <point x="774.0" y="1418.0" type="curve" smooth="yes"/>
      <point x="774.0" y="1288.0"/>
      <point x="846.0" y="1210.0"/>
    </contour>
    <contour>
      <point x="436.0" y="1210.0" type="curve" smooth="yes"/>
      <point x="598.0" y="1210.0"/>
      <point x="670.0" y="1288.0"/>
      <point x="670.0" y="1418.0" type="curve" smooth="yes"/>
      <point x="670.0" y="1548.0"/>
      <point x="598.0" y="1626.0"/>
      <point x="436.0" y="1626.0" type="curve" smooth="yes"/>
      <point x="274.0" y="1626.0"/>
      <point x="202.0" y="1548.0"/>
      <point x="202.0" y="1418.0" type="curve" smooth="yes"/>
      <point x="202.0" y="1288.0"/>
      <point x="274.0" y="1210.0"/>
    </contour>
  </outline>
</glyph>
<glyph name="thorn" format="2">
  <advance width="1490.0"/>
  <unicode hex="00FE"/>
  <outline>
    <contour>
      <point x="116.0" y="-440.0" type="line"/>
      <point x="580.0" y="-440.0" type="line"/>
      <point x="580.0" y="-14.0" type="line"/>
      <point x="630.0" y="-18.0"/>
      <point x="690.0" y="-22.0"/>
      <point x="750.0" y="-22.0" type="curve" smooth="yes"/>
      <point x="1164.0" y="-22.0"/>
      <point x="1424.0" y="200.0"/>
      <point x="1424.0" y="574.0" type="curve" smooth="yes"/>
      <point x="1424.0" y="940.0"/>
      <point x="1194.0" y="1118.0"/>
      <point x="926.0" y="1118.0" type="curve" smooth="yes"/>
      <point x="790.0" y="1118.0"/>
      <point x="682.0" y="1080.0"/>
      <point x="600.0" y="1006.0" type="curve"/>
      <point x="580.0" y="1006.0" type="line"/>
      <point x="580.0" y="1616.0" type="line"/>
      <point x="116.0" y="1616.0" type="line"/>
    </contour>
    <contour>
      <point x="716.0" y="320.0" type="curve" smooth="yes"/>
      <point x="664.0" y="320.0"/>
      <point x="616.0" y="326.0"/>
      <point x="580.0" y="332.0" type="curve"/>
      <point x="580.0" y="706.0" type="line"/>
      <point x="628.0" y="740.0"/>
      <point x="696.0" y="754.0"/>
      <point x="758.0" y="754.0" type="curve" smooth="yes"/>
      <point x="884.0" y="754.0"/>
      <point x="966.0" y="696.0"/>
      <point x="966.0" y="544.0" type="curve" smooth="yes"/>
      <point x="966.0" y="396.0"/>
      <point x="886.0" y="320.0"/>
    </contour>
  </outline>
</glyph>
<glyph name="Aogonek" format="2">
  <advance width="1760.0"/>
  <unicode hex="0104"/>
  <anchor x="1744.0" y="0.0" name="_ogonek"/>
  <anchor x="880.0" y="0.0" name="bottom"/>
  <anchor x="1744.0" y="0.0" name="ogonek"/>
  <anchor x="878.0" y="1520.0" name="top"/>
  <outline>
    <contour>
      <point x="16.0" y="0.0" type="line"/>
      <point x="476.0" y="0.0" type="line"/>
      <point x="898.0" y="1284.0" type="line"/>
      <point x="858.0" y="1284.0" type="line"/>
      <point x="1280.0" y="0.0" type="line"/>
      <point x="1744.0" y="0.0" type="line"/>
      <point x="1224.0" y="1480.0" type="line"/>
      <point x="536.0" y="1480.0" type="line"/>
    </contour>
    <contour>
      <point x="500.0" y="334.0" type="line"/>
      <point x="1256.0" y="334.0" type="line"/>
      <point x="1148.0" y="684.0" type="line"/>
      <point x="610.0" y="684.0" type="line"/>
    </contour>
    <contour>
      <point x="1574.0" y="-460.0" type="curve" smooth="yes"/>
      <point x="1658.0" y="-460.0"/>
      <point x="1720.0" y="-448.0"/>
      <point x="1778.0" y="-430.0" type="curve"/>
      <point x="1778.0" y="-270.0" type="line"/>
      <point x="1722.0" y="-288.0"/>
      <point x="1678.0" y="-294.0"/>
      <point x="1646.0" y="-294.0" type="curve" smooth="yes"/>
      <point x="1542.0" y="-294.0"/>
      <point x="1498.0" y="-256.0"/>
      <point x="1498.0" y="-196.0" type="curve" smooth="yes"/>
      <point x="1498.0" y="-122.0"/>
      <point x="1560.0" y="-60.0"/>
      <point x="1744.0" y="0.0" type="curve"/>
      <point x="1632.0" y="78.0" type="line"/>
      <point x="1336.0" y="14.0"/>
      <point x="1242.0" y="-104.0"/>
      <point x="1242.0" y="-234.0" type="curve" smooth="yes"/>
      <point x="1242.0" y="-370.0"/>
      <point x="1348.0" y="-460.0"/>
    </contour>
  </outline>
</glyph>
<glyph name="Emacron" format="2">
  <advance width="1498.0"/>
  <unicode hex="0112"/>
  <anchor x="788.0" y="1520.0" name="_top"/>
  <anchor x="788.0" y="0.0" name="bottom"/>
  <anchor x="1312.0" y="0.0" name="ogonek"/>
  <anchor x="788.0" y="1520.0" name="top"/>
  <anchor x="40.0" y="1480.0" name="topleft"/>
  <outline>
    <contour>
      <point x="130.0" y="0.0" type="line"/>
      <point x="1412.0" y="0.0" type="line"/>
      <point x="1412.0" y="350.0" type="line"/>
      <point x="600.0" y="350.0" type="line"/>
      <point x="600.0" y="1130.0" type="line"/>
      <point x="1402.0" y="1130.0" type="line"/>
      <point x="1402.0" y="1480.0" type="line"/>
      <point x="130.0" y="1480.0" type="line"/>
    </contour>
    <contour>
      <point x="358.0" y="580.0" type="line"/>
      <point x="1296.0" y="580.0" type="line"/>
      <point x="1296.0" y="930.0" type="line"/>
      <point x="358.0" y="930.0" type="line"/>
    </contour>
    <contour>
      <point x="344.0" y="1620.0" type="line"/>
      <point x="1232.0" y="1620.0" type="line"/>
      <point x="1232.0" y="1870.0" type="line"/>
      <point x="344.0" y="1870.0" type="line"/>
    </contour>
  </outline>
</glyph>
<glyph name="Gbreve" format="2">
  <advance width="1678.0"/>
  <unicode hex="011E"/>
  <anchor x="940.0" y="1520.0" name="_top"/>
  <anchor x="940.0" y="0.0" name="bottom"/>
  <anchor x="940.0" y="1520.0" name="top"/>
  <outline>
    <contour>
      <point x="1096.0" y="-20.0" type="curve" smooth="yes"/>
      <point x="1248.0" y="-20.0"/>
      <point x="1394.0" y="-4.0"/>
      <point x="1540.0" y="20.0" type="curve"/>
      <point x="1540.0" y="720.0" type="line"/>
      <point x="1098.0" y="720.0" type="line"/>
      <point x="1098.0" y="154.0" type="line"/>
      <point x="1356.0" y="376.0" type="line"/>
      <point x="1270.0" y="364.0"/>
      <point x="1160.0" y="356.0"/>
      <point x="1068.0" y="356.0" type="curve" smooth="yes"/>
      <point x="724.0" y="356.0"/>
      <point x="578.0" y="496.0"/>
      <point x="578.0" y="724.0" type="curve" smooth="yes"/>
      <point x="578.0" y="982.0"/>
      <point x="730.0" y="1118.0"/>
      <point x="1156.0" y="1120.0" type="curve" smooth="yes"/>
      <point x="1270.0" y="1120.0"/>
      <point x="1384.0" y="1110.0"/>
      <point x="1482.0" y="1092.0" type="curve"/>
      <point x="1482.0" y="1468.0" type="line"/>
      <point x="1366.0" y="1490.0"/>
      <point x="1230.0" y="1500.0"/>
      <point x="1120.0" y="1500.0" type="curve" smooth="yes"/>
      <point x="418.0" y="1500.0"/>
      <point x="84.0" y="1202.0"/>
      <point x="84.0" y="732.0" type="curve" smooth="yes"/>
      <point x="84.0" y="242.0"/>
      <point x="408.0" y="-20.0"/>
    </contour>
    <contour>
      <point x="940.0" y="1586.0" type="curve" smooth="yes"/>
      <point x="1252.0" y="1586.0"/>
      <point x="1394.0" y="1726.0"/>
      <point x="1424.0" y="1902.0" type="curve"/>
      <point x="1150.0" y="1902.0" type="line"/>
      <point x="1130.0" y="1840.0"/>
      <point x="1068.0" y="1794.0"/>
      <point x="940.0" y="1794.0" type="curve" smooth="yes"/>
      <point x="812.0" y="1794.0"/>
      <point x="750.0" y="1840.0"/>
      <point x="730.0" y="1902.0" type="curve"/>
      <point x="456.0" y="1902.0" type="line"/>
      <point x="486.0" y="1726.0"/>
      <point x="628.0" y="1586.0"/>
    </contour>
  </outline>
</glyph>
<glyph name="iogonek" format="2">
  <advance width="696.0"/>
  <unicode hex="012F"/>
  <anchor x="348.0" y="1200.0" name="_top"/>
  <anchor x="348.0" y="0.0" name="bottom"/>
  <anchor x="580.0" y="0.0" name="ogonek"/>
  <anchor x="348.0" y="1200.0" name="top"/>
  <outline>
    <contour>
      <point x="116.0" y="0.0" type="line"/>
      <point x="580.0" y="0.0" type="line"/>
      <point x="580.0" y="1100.0" type="line"/>
      <point x="116.0" y="1100.0" type="line"/>
    </contour>
    <contour>
      <point x="348.0" y="1206.0" type="curve" smooth="yes"/>
      <point x="538.0" y="1206.0"/>
      <point x="622.0" y="1280.0"/>
      <point x="622.0" y="1418.0" type="curve" smooth="yes"/>
      <point x="622.0" y="1556.0"/>
      <point x="538.0" y="1630.0"/>
      <point x="348.0" y="1630.0" type="curve" smooth="yes"/>
      <point x="158.0" y="1630.0"/>
      <point x="74.0" y="1556.0"/>
      <point x="74.0" y="1418.0" type="curve" smooth="yes"/>
      <point x="74.0" y="1280.0"/>
      <point x="158.0" y="1206.0"/>
    </contour>
    <contour>
      <point x="410.0" y="-460.0" type="curve" smooth="yes"/>
      <point x="494.0" y="-460.0"/>
      <point x="546.0" y="-448.0"/>
      <point x="600.0" y="-430.0" type="curve"/>
      <point x="600.0" y="-270.0" type="line"/>
      <point x="556.0" y="-288.0"/>
      <point x="514.0" y="-294.0"/>
      <point x="482.0" y="-294.0" type="curve" smooth="yes"/>
      <point x="396.0" y="-294.0"/>
      <point x="354.0" y="-256.0"/>
      <point x="354.0" y="-200.0" type="curve" smooth="yes"/>
      <point x="354.0" y="-122.0"/>
      <point x="406.0" y="-60.0"/>
      <point x="580.0" y="0.0" type="curve"/>
      <point x="468.0" y="78.0" type="line"/>
      <point x="182.0" y="14.0"/>
      <point x="98.0" y="-104.0"/>
      <point x="98.0" y="-234.0" type="curve" smooth="yes"/>
      <point x="98.0" y="-370.0"/>
      <point x="200.0" y="-460.0"/>
    </contour>
  </outline>
</glyph>
<glyph name="Lcommaaccent" format="2">
  <advance width="1362.0"/>
  <unicode hex="013B"/>
  <anchor x="740.0" y="0.0" name="_bottom"/>
  <anchor x="740.0" y="0.0" name="bottom"/>
  <anchor x="916.0" y="1616.0" name="caronalt"/>
  <anchor x="1038.0" y="930.0" name="periodcentered"/>
  <anchor x="368.0" y="854.0" name="slash"/>
  <anchor x="368.0" y="1520.0" name="top"/>
  <outline>
    <contour>
      <point x="130.0" y="0.0" type="line"/>
      <point x="1350.0" y="0.0" type="line"/>
      <point x="1350.0" y="368.0" type="line"/>
      <point x="606.0" y="368.0" type="line"/>
      <point x="606.0" y="1480.0" type="line"/>
      <point x="130.0" y="1480.0" type="line"/>
    </contour>
    <contour>
      <point x="612.0" y="-520.0" type="curve"/>
      <point x="892.0" y="-520.0" type="line"/>
      <point x="950.0" y="-460.0"/>
      <point x="988.0" y="-364.0"/>
      <point x="988.0" y="-282.0" type="curve" smooth="yes"/>
      <point x="988.0" y="-170.0"/>
      <point x="916.0" y="-104.0"/>
      <point x="740.0" y="-104.0" type="curve" smooth="yes"/>
      <point x="564.0" y="-104.0"/>
      <point x="492.0" y="-154.0"/>
      <point x="492.0" y="-240.0" type="curve" smooth="yes"/>
      <point x="492.0" y="-322.0"/>
      <point x="554.0" y="-374.0"/>
      <point x="740.0" y="-374.0" type="curve" smooth="yes"/>
      <point x="768.0" y="-374.0" type="line"/>
      <point x="684.0" y="-296.0" type="line"/>
      <point x="684.0" y="-370.0"/>
      <point x="666.0" y="-426.0"/>
    </contour>
  </outline>
</glyph>
<glyph name="Ldot" format="2">
  <advance width="1362.0"/>
  <unicode hex="013F"/>
  <anchor x="1038.0" y="930.0" name="_periodcentered"/>
  <anchor x="740.0" y="0.0" name="bottom"/>
  <anchor x="916.0" y="1616.0" name="caronalt"/>
  <anchor x="1038.0" y="930.0" name="periodcentered"/>
  <anchor x="368.0" y="854.0" name="slash"/>
  <anchor x="368.0" y="1520.0" name="top"/>
  <outline>
    <contour>
      <point x="130.0" y="0.0" type="line"/>
      <point x="1350.0" y="0.0" type="line"/>
      <point x="1350.0" y="368.0" type="line"/>
      <point x="606.0" y="368.0" type="line"/>
      <point x="606.0" y="1480.0" type="line"/>
      <point x="130.0" y="1480.0" type="line"/>
    </contour>
    <contour>
      <point x="1038.0" y="718.0" type="curve" smooth="yes"/>
      <point x="1228.0" y="718.0"/>
      <point x="1312.0" y="792.0"/>
      <point x="1312.0" y="930.0" type="curve" smooth="yes"/>
      <point x="1312.0" y="1068.0"/>
      <point x="1228.0" y="1142.0"/>
      <point x="1038.0" y="1142.0" type="curve" smooth="yes"/>
      <point x="848.0" y="1142.0"/>
      <point x="764.0" y="1068.0"/>
      <point x="764.0" y="930.0" type="curve" smooth="yes"/>
      <point x="764.0" y="792.0"/>
      <point x="848.0" y="718.0"/>
    </contour>
  </outline>
</glyph>
<glyph name="Ncaron" format="2">
  <advance width="1804.0"/>
  <unicode hex="0147"/>
  <anchor x="902.0" y="1520.0" name="_top"/>
  <anchor x="902.0" y="0.0" name="bottom"/>
  <anchor x="902.0" y="1520.0" name="top"/>
  <outline>
    <contour>
      <point x="130.0" y="0.0" type="line"/>
      <point x="578.0" y="0.0" type="line"/>
      <point x="578.0" y="934.0" type="line"/>
      <point x="504.0" y="934.0" type="line"/>
      <point x="1198.0" y="0.0" type="line"/>
      <point x="1674.0" y="0.0" type="line"/>
      <point x="1674.0" y="1480.0" type="line"/>
      <point x="1226.0" y="1480.0" type="line"/>
      <point x="1226.0" y="546.0" type="line"/>
      <point x="1300.0" y="546.0" type="line"/>
      <point x="606.0" y="1480.0" type="line"/>
      <point x="130.0" y="1480.0" type="line"/>
    </contour>
    <contour>
      <point x="710.0" y="1586.0" type="line"/>
      <point x="1094.0" y="1586.0" type="line"/>
      <point x="1426.0" y="1902.0" type="line"/>
      <point x="1062.0" y="1902.0" type="line"/>
      <point x="864.0" y="1710.0" type="line"/>
      <point x="940.0" y="1710.0" type="line"/>
      <point x="742.0" y="1902.0" type="line"/>
      <point x="378.0" y="1902.0" type="line"/>
    </contour>
  </outline>
</glyph>
<glyph name="Eng" format="2">
  <advance width="1804.0"/>
  <unicode hex="014A"/>
  <outline>
    <contour>
      <point x="1278.0" y="-104.0" type="line"/>
      <point x="1372.0" y="450.0" type="line"/>
      <point x="606.0" y="1480.0" type="line"/>
      <point x="130.0" y="1480.0" type="line"/>
      <point x="130.0" y="0.0" type="line"/>
      <point x="578.0" y="0.0" type="line"/>
      <point x="578.0" y="934.0" type="line"/>
      <point x="504.0" y="934.0" type="line"/>
    </contour>
    <contour>
      <point x="1352.0" y="-476.0" type="line"/>
      <point x="1592.0" y="-258.0"/>
      <point x="1674.0" y="-54.0"/>
      <point x="1674.0" y="236.0" type="curve" smooth="yes"/>
      <point x="1674.0" y="1480.0" type="line"/>
      <point x="1226.0" y="1480.0" type="line"/>
      <point x="1226.0" y="180.0" type="line" smooth="yes"/>
      <point x="1226.0" y="-26.0"/>
      <point x="1174.0" y="-152.0"/>
      <point x="1064.0" y="-284.0" type="curve"/>
    </contour>
  </outline>
</glyph>
<glyph name="eng" format="2">
  <advance width="1462.0"/>
  <unicode hex="014B"/>
  <outline>
    <contour>
      <point x="1032.0" y="-476.0" type="line"/>
      <point x="1272.0" y="-258.0"/>
      <point x="1354.0" y="-54.0"/>
      <point x="1354.0" y="196.0" type="curve" smooth="yes"/>
      <point x="1354.0" y="608.0" type="line" smooth="yes"/>
      <point x="1354.0" y="968.0"/>
      <point x="1162.0" y="1118.0"/>
      <point x="894.0" y="1118.0" type="curve" smooth="yes"/>
      <point x="754.0" y="1118.0"/>
      <point x="628.0" y="1076.0"/>
      <point x="542.0" y="1004.0" type="curve"/>
      <point x="522.0" y="1004.0" type="line"/>
      <point x="494.0" y="1100.0" type="line"/>
      <point x="116.0" y="1100.0" type="line"/>
      <point x="116.0" y="0.0" type="line"/>
      <point x="580.0" y="0.0" type="line"/>
      <point x="580.0" y="670.0" type="line"/>
      <point x="620.0" y="708.0"/>
      <point x="686.0" y="734.0"/>
      <point x="756.0" y="734.0" type="curve" smooth="yes"/>
      <point x="844.0" y="734.0"/>
      <point x="890.0" y="698.0"/>
      <point x="890.0" y="582.0" type="curve" smooth="yes"/>
      <point x="890.0" y="180.0" type="line" smooth="yes"/>
      <point x="890.0" y="-26.0"/>
      <point x="854.0" y="-152.0"/>
      <point x="744.0" y="-284.0" type="curve"/>
    </contour>
  </outline>
</glyph>
<glyph name="oe" format="2">
  <advance width="2194.0"/>
  <unicode hex="0153"/>
  <anchor x="1168.0" y="0.0" name="bottom"/>
  <anchor x="1168.0" y="1100.0" name="top"/>
  <outline>
    <contour>
      <point x="712.0" y="-22.0" type="curve" smooth="yes"/>
      <point x="1114.0" y="-22.0"/>
      <point x="1318.0" y="214.0"/>
      <point x="1318.0" y="550.0" type="curve" smooth="yes"/>
      <point x="1318.0" y="886.0"/>
      <point x="1136.0" y="1118.0"/>
      <point x="712.0" y="1118.0" type="curve" smooth="yes"/>
      <point x="308.0" y="1118.0"/>
      <point x="66.0" y="906.0"/>
      <point x="66.0" y="550.0" type="curve" smooth="yes"/>
      <point x="66.0" y="194.0"/>
      <point x="330.0" y="-22.0"/>
    </contour>
    <contour>
      <point x="732.0" y="326.0" type="curve" smooth="yes"/>
      <point x="596.0" y="326.0"/>
      <point x="524.0" y="396.0"/>
      <point x="524.0" y="550.0" type="curve" smooth="yes"/>
      <point x="524.0" y="704.0"/>
      <point x="596.0" y="770.0"/>
      <point x="732.0" y="770.0" type="curve" smooth="yes"/>
      <point x="868.0" y="770.0"/>
      <point x="940.0" y="704.0"/>
      <point x="940.0" y="550.0" type="curve" smooth="yes"/>
      <point x="940.0" y="396.0"/>
      <point x="868.0" y="326.0"/>
    </contour>
    <contour>
      <point x="1678.0" y="-22.0" type="curve" smooth="yes"/>
      <point x="1792.0" y="-22.0"/>
      <point x="1920.0" y="-16.0"/>
      <point x="2062.0" y="8.0" type="curve"/>
      <point x="2062.0" y="326.0" type="line"/>
      <point x="1962.0" y="312.0"/>
      <point x="1844.0" y="302.0"/>
      <point x="1752.0" y="302.0" type="curve" smooth="yes"/>
      <point x="1446.0" y="302.0"/>
      <point x="1396.0" y="348.0"/>
      <point x="1396.0" y="476.0" type="curve" smooth="yes"/>
      <point x="1396.0" y="652.0" type="line" smooth="yes"/>
      <point x="1396.0" y="786.0"/>
      <point x="1446.0" y="846.0"/>
      <point x="1554.0" y="846.0" type="curve" smooth="yes"/>
      <point x="1662.0" y="846.0"/>
      <point x="1712.0" y="784.0"/>
      <point x="1712.0" y="650.0" type="curve"/>
      <point x="1780.0" y="668.0" type="line"/>
      <point x="1286.0" y="668.0" type="line"/>
      <point x="1286.0" y="428.0" type="line"/>
      <point x="2138.0" y="428.0" type="line"/>
      <point x="2138.0" y="530.0" type="line" smooth="yes"/>
      <point x="2138.0" y="892.0"/>
      <point x="1942.0" y="1118.0"/>
      <point x="1582.0" y="1118.0" type="curve" smooth="yes"/>
      <point x="1230.0" y="1118.0"/>
      <point x="1002.0" y="872.0"/>
      <point x="1002.0" y="568.0" type="curve"/>
      <point x="982.0" y="546.0" type="line"/>
      <point x="982.0" y="176.0"/>
      <point x="1168.0" y="-22.0"/>
    </contour>
  </outline>
</glyph>
<glyph name="rcaron" format="2">
  <advance width="958.0"/>
  <unicode hex="0159"/>
  <anchor x="532.0" y="1200.0" name="_top"/>
  <anchor x="348.0" y="0.0" name="bottom"/>
  <anchor x="532.0" y="1200.0" name="top"/>
  <outline>
    <contour>
      <point x="116.0" y="0.0" type="line"/>
      <point x="580.0" y="0.0" type="line"/>
      <point x="580.0" y="642.0" type="line"/>
      <point x="630.0" y="690.0"/>
      <point x="730.0" y="714.0"/>
      <point x="818.0" y="714.0" type="curve" smooth="yes"/>
      <point x="856.0" y="714.0"/>
      <point x="906.0" y="712.0"/>
      <point x="946.0" y="704.0" type="curve"/>
      <point x="946.0" y="1110.0" type="line"/>
      <point x="920.0" y="1114.0"/>
      <point x="882.0" y="1118.0"/>
      <point x="846.0" y="1118.0" type="curve" smooth="yes"/>
      <point x="714.0" y="1118.0"/>
      <point x="610.0" y="1072.0"/>
      <point x="548.0" y="976.0" type="curve"/>
      <point x="528.0" y="976.0" type="line"/>
      <point x="492.0" y="1100.0" type="line"/>
      <point x="116.0" y="1100.0" type="line"/>
    </contour>
    <contour>
      <point x="354.0" y="1220.0" type="line"/>
      <point x="710.0" y="1220.0" type="line"/>
      <point x="996.0" y="1616.0" type="line"/>
      <point x="662.0" y="1616.0" type="line"/>
      <point x="498.0" y="1380.0" type="line"/>
      <point x="566.0" y="1380.0" type="line"/>
      <point x="402.0" y="1616.0" type="line"/>
      <point x="68.0" y="1616.0" type="line"/>
    </contour>
  </outline>
</glyph>
<glyph name="Tcedilla" format="2">
  <advance width="1532.0"/>
  <unicode hex="0162"/>
  <anchor x="766.0" y="0.0" name="_bottom"/>
  <anchor x="766.0" y="0.0" name="bottom"/>
  <anchor x="766.0" y="700.0" name="center"/>
  <anchor x="766.0" y="1520.0" name="top"/>
  <outline>
    <contour>
      <point x="528.0" y="0.0" type="line"/>
      <point x="1004.0" y="0.0" type="line"/>
      <point x="1004.0" y="1112.0" type="line"/>
      <point x="1510.0" y="1112.0" type="line"/>
      <point x="1510.0" y="1480.0" type="line"/>
      <point x="22.0" y="1480.0" type="line"/>
      <point x="22.0" y="1112.0" type="line"/>
      <point x="528.0" y="1112.0" type="line"/>
    </contour>
    <contour>
      <point x="720.0" y="-460.0" type="curve" smooth="yes"/>
      <point x="932.0" y="-460.0"/>
      <point x="1038.0" y="-382.0"/>
      <point x="1038.0" y="-260.0" type="curve" smooth="yes"/>
      <point x="1038.0" y="-142.0"/>
      <point x="952.0" y="-66.0"/>
      <point x="744.0" y="-66.0" type="curve"/>
      <point x="840.0" y="-122.0" type="line"/>
      <point x="840.0" y="20.0" type="line"/>
      <point x="638.0" y="20.0" type="line"/>
      <point x="638.0" y="-184.0" type="line"/>
      <point x="700.0" y="-184.0" type="line" smooth="yes"/>
      <point x="774.0" y="-184.0"/>
      <point x="814.0" y="-200.0"/>
      <point x="814.0" y="-246.0" type="curve" smooth="yes"/>
      <point x="814.0" y="-288.0"/>
      <point x="774.0" y="-304.0"/>
      <point x="698.0" y="-304.0" type="curve" smooth="yes"/>
      <point x="634.0" y="-304.0"/>
      <point x="556.0" y="-294.0"/>
      <point x="492.0" y="-274.0" type="curve"/>
      <point x="492.0" y="-428.0" type="line"/>
      <point x="560.0" y="-448.0"/>
      <point x="630.0" y="-460.0"/>
    </contour>
  </outline>
</glyph>
<glyph name="tcedilla" format="2">
  <advance width="1024.0"/>
  <unicode hex="0163"/>
  <anchor x="592.0" y="0.0" name="_bottom"/>
  <anchor x="592.0" y="0.0" name="bottom"/>
  <anchor x="790.0" y="1616.0" name="caronalt"/>
  <anchor x="222.0" y="550.0" name="stroke"/>
  <anchor x="454.0" y="1520.0" name="top"/>
  <anchor x="890.0" y="1616.0" name="topright"/>
  <outline>
    <contour>
      <point x="710.0" y="-22.0" type="curve" smooth="yes"/>
      <point x="794.0" y="-22.0"/>
      <point x="896.0" y="-8.0"/>
      <point x="962.0" y="6.0" type="curve"/>
      <point x="962.0" y="354.0" type="line"/>
      <point x="916.0" y="346.0"/>
      <point x="882.0" y="342.0"/>
      <point x="848.0" y="342.0" type="curve" smooth="yes"/>
      <point x="730.0" y="342.0"/>
      <point x="686.0" y="380.0"/>
      <point x="686.0" y="512.0" type="curve" smooth="yes"/>
      <point x="686.0" y="1480.0" type="line"/>
      <point x="308.0" y="1480.0" type="line"/>
      <point x="222.0" y="1100.0" type="line"/>
      <point x="222.0" y="424.0" type="line" smooth="yes"/>
      <point x="222.0" y="126.0"/>
      <point x="390.0" y="-22.0"/>
    </contour>
    <contour>
      <point x="42.0" y="740.0" type="line"/>
      <point x="962.0" y="740.0" type="line"/>
      <point x="962.0" y="1100.0" type="line"/>
      <point x="42.0" y="1100.0" type="line"/>
    </contour>
    <contour>
      <point x="586.0" y="-460.0" type="curve" smooth="yes"/>
      <point x="782.0" y="-460.0"/>
      <point x="884.0" y="-386.0"/>
      <point x="884.0" y="-266.0" type="curve" smooth="yes"/>
      <point x="884.0" y="-146.0"/>
      <point x="802.0" y="-66.0"/>
      <point x="610.0" y="-66.0" type="curve"/>
      <point x="706.0" y="-122.0" type="line"/>
      <point x="706.0" y="20.0" type="line"/>
      <point x="504.0" y="20.0" type="line"/>
      <point x="504.0" y="-184.0" type="line"/>
      <point x="566.0" y="-184.0" type="line" smooth="yes"/>
      <point x="626.0" y="-184.0"/>
      <point x="660.0" y="-200.0"/>
      <point x="660.0" y="-244.0" type="curve" smooth="yes"/>
      <point x="660.0" y="-288.0"/>
      <point x="626.0" y="-304.0"/>
      <point x="564.0" y="-304.0" type="curve" smooth="yes"/>
      <point x="512.0" y="-304.0"/>
      <point x="430.0" y="-294.0"/>
      <point x="378.0" y="-274.0" type="curve"/>
      <point x="378.0" y="-428.0" type="line"/>
      <point x="436.0" y="-448.0"/>
      <point x="508.0" y="-460.0"/>
    </contour>
  </outline>
</glyph>
<glyph name="Tcaron" format="2">
  <advance width="1532.0"/>
  <unicode hex="0164"/>
  <anchor x="766.0" y="1520.0" name="_top"/>
  <anchor x="766.0" y="0.0" name="bottom"/>
  <anchor x="766.0" y="700.0" name="center"/>
  <anchor x="766.0" y="1520.0" name="top"/>
  <outline>
    <contour>
      <point x="528.0" y="0.0" type="line"/>
      <point x="1004.0" y="0.0" type="line"/>
      <point x="1004.0" y="1112.0" type="line"/>
      <point x="1510.0" y="1112.0" type="line"/>
      <point x="1510.0" y="1480.0" type="line"/>
      <point x="22.0" y="1480.0" type="line"/>
      <point x="22.0" y="1112.0" type="line"/>
      <point x="528.0" y="1112.0" type="line"/>
    </contour>
    <contour>
      <point x="574.0" y="1586.0" type="line"/>
      <point x="958.0" y="1586.0" type="line"/>
      <point x="1290.0" y="1902.0" type="line"/>
      <point x="926.0" y="1902.0" type="line"/>
      <point x="728.0" y="1710.0" type="line"/>
      <point x="804.0" y="1710.0" type="line"/>
      <point x="606.0" y="1902.0" type="line"/>
      <point x="242.0" y="1902.0" type="line"/>
    </contour>
  </outline>
</glyph>
<glyph name="tcaron" format="2">
  <advance width="1024.0"/>
  <unicode hex="0165"/>
  <anchor x="790.0" y="1616.0" name="_caronalt"/>
  <anchor x="592.0" y="0.0" name="bottom"/>
  <anchor x="790.0" y="1616.0" name="caronalt"/>
  <anchor x="222.0" y="550.0" name="stroke"/>
  <anchor x="454.0" y="1520.0" name="top"/>
  <anchor x="890.0" y="1616.0" name="topright"/>
  <outline>
    <contour>
      <point x="710.0" y="-22.0" type="curve" smooth="yes"/>
      <point x="794.0" y="-22.0"/>
      <point x="896.0" y="-8.0"/>
      <point x="962.0" y="6.0" type="curve"/>
      <point x="962.0" y="354.0" type="line"/>
      <point x="916.0" y="346.0"/>
      <point x="882.0" y="342.0"/>
      <point x="848.0" y="342.0" type="curve" smooth="yes"/>
      <point x="730.0" y="342.0"/>
      <point x="686.0" y="380.0"/>
      <point x="686.0" y="512.0" type="curve" smooth="yes"/>
      <point x="686.0" y="1480.0" type="line"/>
      <point x="308.0" y="1480.0" type="line"/>
      <point x="222.0" y="1100.0" type="line"/>
      <point x="222.0" y="424.0" type="line" smooth="yes"/>
      <point x="222.0" y="126.0"/>
      <point x="390.0" y="-22.0"/>
    </contour>
    <contour>
      <point x="42.0" y="740.0" type="line"/>
      <point x="962.0" y="740.0" type="line"/>
      <point x="962.0" y="1100.0" type="line"/>
      <point x="42.0" y="1100.0" type="line"/>
    </contour>
    <contour>
      <point x="754.0" y="1180.0" type="curve"/>
      <point x="994.0" y="1180.0" type="line"/>
      <point x="1048.0" y="1290.0"/>
      <point x="1084.0" y="1446.0"/>
      <point x="1084.0" y="1616.0" type="curve"/>
      <point x="790.0" y="1616.0" type="line"/>
      <point x="790.0" y="1452.0"/>
      <point x="780.0" y="1334.0"/>
    </contour>
  </outline>
</glyph>
<glyph name="Uogonek" format="2">
  <advance width="1756.0"/>
  <unicode hex="0172"/>
  <outline>
    <contour>
      <point x="970.0" y="-460.0" type="curve" smooth="yes"/>
      <point x="1054.0" y="-460.0"/>
      <point x="1116.0" y="-448.0"/>
      <point x="1174.0" y="-430.0" type="curve"/>
      <point x="1174.0" y="-270.0" type="line"/>
      <point x="1118.0" y="-288.0"/>
      <point x="1074.0" y="-294.0"/>
      <point x="1042.0" y="-294.0" type="curve" smooth="yes"/>
      <point x="938.0" y="-294.0"/>
      <point x="894.0" y="-256.0"/>
      <point x="894.0" y="-196.0" type="curve" smooth="yes"/>
      <point x="894.0" y="-118.0"/>
      <point x="956.0" y="-54.0"/>
      <point x="1204.0" y="22.0" type="curve" smooth="yes"/>
      <point x="1504.0" y="114.0"/>
      <point x="1632.0" y="350.0"/>
      <point x="1632.0" y="694.0" type="curve" smooth="yes"/>
      <point x="1632.0" y="1480.0" type="line"/>
      <point x="1164.0" y="1480.0" type="line"/>
      <point x="1164.0" y="656.0" type="line" smooth="yes"/>
      <point x="1164.0" y="450.0"/>
      <point x="1070.0" y="356.0"/>
      <point x="882.0" y="356.0" type="curve" smooth="yes"/>
      <point x="694.0" y="356.0"/>
      <point x="600.0" y="450.0"/>
      <point x="600.0" y="656.0" type="curve" smooth="yes"/>
      <point x="600.0" y="1480.0" type="line"/>
      <point x="124.0" y="1480.0" type="line"/>
      <point x="124.0" y="694.0" type="line" smooth="yes"/>
      <point x="124.0" y="246.0"/>
      <point x="340.0" y="-20.0"/>
      <point x="882.0" y="-20.0" type="curve" smooth="yes"/>
      <point x="938.0" y="-20.0" type="line"/>
      <point x="976.0" y="68.0" type="line"/>
      <point x="720.0" y="0.0"/>
      <point x="638.0" y="-112.0"/>
      <point x="638.0" y="-234.0" type="curve" smooth="yes"/>
      <point x="638.0" y="-370.0"/>
      <point x="744.0" y="-460.0"/>
    </contour>
  </outline>
</glyph>
<glyph name="uogonek" format="2">
  <advance width="1452.0"/>
  <unicode hex="0173"/>
  <anchor x="1336.0" y="0.0" name="_ogonek"/>
  <anchor x="722.0" y="0.0" name="bottom"/>
  <anchor x="1336.0" y="0.0" name="ogonek"/>
  <anchor x="722.0" y="1200.0" name="top"/>
  <anchor x="892.0" y="1100.0" name="topright"/>
  <outline>
    <contour>
      <point x="586.0" y="-18.0" type="curve" smooth="yes"/>
      <point x="708.0" y="-18.0"/>
      <point x="824.0" y="24.0"/>
      <point x="914.0" y="96.0" type="curve"/>
      <point x="930.0" y="96.0" type="line"/>
      <point x="958.0" y="0.0" type="line"/>
      <point x="1336.0" y="0.0" type="line"/>
      <point x="1336.0" y="1100.0" type="line"/>
      <point x="872.0" y="1100.0" type="line"/>
      <point x="872.0" y="430.0" type="line"/>
      <point x="832.0" y="392.0"/>
      <point x="766.0" y="366.0"/>
      <point x="700.0" y="366.0" type="curve" smooth="yes"/>
      <point x="618.0" y="366.0"/>
      <point x="572.0" y="402.0"/>
      <point x="572.0" y="518.0" type="curve" smooth="yes"/>
      <point x="572.0" y="1100.0" type="line"/>
      <point x="108.0" y="1100.0" type="line"/>
      <point x="108.0" y="492.0" type="line" smooth="yes"/>
      <point x="108.0" y="132.0"/>
      <point x="304.0" y="-18.0"/>
    </contour>
    <contour>
      <point x="1166.0" y="-460.0" type="curve" smooth="yes"/>
      <point x="1250.0" y="-460.0"/>
      <point x="1302.0" y="-448.0"/>
      <point x="1356.0" y="-430.0" type="curve"/>
      <point x="1356.0" y="-270.0" type="line"/>
      <point x="1312.0" y="-288.0"/>
      <point x="1270.0" y="-294.0"/>
      <point x="1238.0" y="-294.0" type="curve" smooth="yes"/>
      <point x="1152.0" y="-294.0"/>
      <point x="1110.0" y="-256.0"/>
      <point x="1110.0" y="-200.0" type="curve" smooth="yes"/>
      <point x="1110.0" y="-122.0"/>
      <point x="1162.0" y="-60.0"/>
      <point x="1336.0" y="0.0" type="curve"/>
      <point x="1224.0" y="78.0" type="line"/>
      <point x="938.0" y="14.0"/>
      <point x="854.0" y="-104.0"/>
      <point x="854.0" y="-234.0" type="curve" smooth="yes"/>
      <point x="854.0" y="-370.0"/>
      <point x="956.0" y="-460.0"/>
    </contour>
  </outline>
</glyph>
<glyph name="Ycircumflex" format="2">
  <advance width="1532.0"/>
  <unicode hex="0176"/>
  <anchor x="764.0" y="1520.0" name="_top"/>
  <anchor x="764.0" y="0.0" name="bottom"/>
  <anchor x="764.0" y="1520.0" name="top"/>
  <anchor x="12.0" y="1480.0" name="topleft"/>
  <outline>
    <contour>
      <point x="532.0" y="0.0" type="line"/>
      <point x="1008.0" y="0.0" type="line"/>
      <point x="1008.0" y="776.0" type="line"/>
      <point x="916.0" y="466.0" type="line"/>
      <point x="1572.0" y="1480.0" type="line"/>
      <point x="1104.0" y="1480.0" type="line"/>
      <point x="712.0" y="872.0" type="line"/>
      <point x="844.0" y="872.0" type="line"/>
      <point x="442.0" y="1480.0" type="line"/>
      <point x="-60.0" y="1480.0" type="line"/>
      <point x="624.0" y="466.0" type="line"/>
      <point x="532.0" y="782.0" type="line"/>
    </contour>
    <contour>
      <point x="240.0" y="1586.0" type="line"/>
      <point x="604.0" y="1586.0" type="line"/>
      <point x="802.0" y="1778.0" type="line"/>
      <point x="726.0" y="1778.0" type="line"/>
      <point x="924.0" y="1586.0" type="line"/>
      <point x="1288.0" y="1586.0" type="line"/>
      <point x="956.0" y="1902.0" type="line"/>
      <point x="572.0" y="1902.0" type="line"/>
    </contour>
  </outline>
</glyph>
<glyph name="Zacute" format="2">
  <advance width="1482.0"/>
  <unicode hex="0179"/>
  <anchor x="742.0" y="1520.0" name="_top"/>
  <anchor x="742.0" y="0.0" name="bottom"/>
  <anchor x="742.0" y="1520.0" name="top"/>
  <outline>
    <contour>
      <point x="84.0" y="0.0" type="line"/>
      <point x="1398.0" y="0.0" type="line"/>
      <point x="1398.0" y="368.0" type="line"/>
      <point x="628.0" y="368.0" type="line"/>
      <point x="628.0" y="280.0" type="line"/>
      <point x="1388.0" y="1226.0" type="line"/>
      <point x="1388.0" y="1480.0" type="line"/>
      <point x="94.0" y="1480.0" type="line"/>
      <point x="94.0" y="1112.0" type="line"/>
      <point x="844.0" y="1112.0" type="line"/>
      <point x="844.0" y="1200.0" type="line"/>
      <point x="84.0" y="254.0" type="line"/>
    </contour>
    <contour>
      <point x="528.0" y="1586.0" type="line"/>
      <point x="948.0" y="1586.0" type="line"/>
      <point x="1220.0" y="1902.0" type="line"/>
      <point x="732.0" y="1902.0" type="line"/>
    </contour>
  </outline>
</glyph>
<glyph name="Zdotaccent" format="2">
  <advance width="1482.0"/>
  <unicode hex="017B"/>
  <anchor x="742.0" y="1520.0" name="_top"/>
  <anchor x="742.0" y="0.0" name="bottom"/>
  <anchor x="742.0" y="1520.0" name="top"/>
  <outline>
    <contour>
      <point x="84.0" y="0.0" type="line"/>
      <point x="1398.0" y="0.0" type="line"/>
      <point x="1398.0" y="368.0" type="line"/>
      <point x="628.0" y="368.0" type="line"/>
      <point x="628.0" y="280.0" type="line"/>
      <point x="1388.0" y="1226.0" type="line"/>
      <point x="1388.0" y="1480.0" type="line"/>
      <point x="94.0" y="1480.0" type="line"/>
      <point x="94.0" y="1112.0" type="line"/>
      <point x="844.0" y="1112.0" type="line"/>
      <point x="844.0" y="1200.0" type="line"/>
      <point x="84.0" y="254.0" type="line"/>
    </contour>
    <contour>
      <point x="742.0" y="1570.0" type="curve" smooth="yes"/>
      <point x="934.0" y="1570.0"/>
      <point x="1010.0" y="1644.0"/>
      <point x="1010.0" y="1750.0" type="curve" smooth="yes"/>
      <point x="1010.0" y="1856.0"/>
      <point x="934.0" y="1930.0"/>
      <point x="742.0" y="1930.0" type="curve" smooth="yes"/>
      <point x="550.0" y="1930.0"/>
      <point x="474.0" y="1856.0"/>
      <point x="474.0" y="1750.0" type="curve" smooth="yes"/>
      <point x="474.0" y="1644.0"/>
      <point x="550.0" y="1570.0"/>
    </contour>
  </outline>
</glyph>
<glyph name="florin" format="2">
  <advance width="980.0"/>
  <unicode hex="0192"/>
  <outline>
    <contour>
      <point x="88.0" y="-460.0" type="curve" smooth="yes"/>
      <point x="466.0" y="-460.0"/>
      <point x="694.0" y="-248.0"/>
      <point x="694.0" y="76.0" type="curve" smooth="yes"/>
      <point x="694.0" y="1114.0" type="line" smooth="yes"/>
      <point x="694.0" y="1222.0"/>
      <point x="760.0" y="1282.0"/>
      <point x="916.0" y="1282.0" type="curve" smooth="yes"/>
      <point x="954.0" y="1282.0"/>
      <point x="986.0" y="1280.0"/>
      <point x="1026.0" y="1276.0" type="curve"/>
      <point x="1026.0" y="1624.0" type="line"/>
      <point x="960.0" y="1632.0"/>
      <point x="914.0" y="1636.0"/>
      <point x="836.0" y="1636.0" type="curve" smooth="yes"/>
      <point x="458.0" y="1636.0"/>
      <point x="230.0" y="1424.0"/>
      <point x="230.0" y="1100.0" type="curve" smooth="yes"/>
      <point x="230.0" y="62.0" type="line" smooth="yes"/>
      <point x="230.0" y="-46.0"/>
      <point x="164.0" y="-106.0"/>
      <point x="8.0" y="-106.0" type="curve" smooth="yes"/>
      <point x="-30.0" y="-106.0"/>
      <point x="-62.0" y="-104.0"/>
      <point x="-102.0" y="-100.0" type="curve"/>
      <point x="-102.0" y="-448.0" type="line"/>
      <point x="-36.0" y="-456.0"/>
      <point x="10.0" y="-460.0"/>
    </contour>
    <contour>
      <point x="50.0" y="740.0" type="line"/>
      <point x="970.0" y="740.0" type="line"/>
      <point x="970.0" y="1100.0" type="line"/>
      <point x="50.0" y="1100.0" type="line"/>
    </contour>
  </outline>
</glyph>
<glyph name="nj" format="2">
  <advance width="2158.0"/>
  <unicode hex="01CC"/>
  <anchor x="1800.0" y="1200.0" name="_top"/>
  <anchor x="12.0" y="1200.0" name="apostrophe"/>
  <anchor x="736.0" y="0.0" name="bottom"/>
  <anchor x="736.0" y="1200.0" name="top"/>
  <outline>
    <contour>
      <point x="116.0" y="0.0" type="line"/>
      <point x="580.0" y="0.0" type="line"/>
      <point x="580.0" y="670.0" type="line"/>
      <point x="620.0" y="708.0"/>
      <point x="686.0" y="734.0"/>
      <point x="756.0" y="734.0" type="curve" smooth="yes"/>
      <point x="844.0" y="734.0"/>
      <point x="890.0" y="698.0"/>
      <point x="890.0" y="582.0" type="curve" smooth="yes"/>
      <point x="890.0" y="0.0" type="line"/>
      <point x="1354.0" y="0.0" type="line"/>
      <point x="1354.0" y="608.0" type="line" smooth="yes"/>
      <point x="1354.0" y="968.0"/>
      <point x="1162.0" y="1118.0"/>
      <point x="894.0" y="1118.0" type="curve" smooth="yes"/>
      <point x="754.0" y="1118.0"/>
      <point x="628.0" y="1076.0"/>
      <point x="542.0" y="1004.0" type="curve"/>
      <point x="522.0" y="1004.0" type="line"/>
      <point x="494.0" y="1100.0" type="line"/>
      <point x="116.0" y="1100.0" type="line"/>
    </contour>
    <contour>
      <point x="1720.0" y="-476.0" type="line"/>
      <point x="1960.0" y="-258.0"/>
      <point x="2042.0" y="-54.0"/>
      <point x="2042.0" y="196.0" type="curve" smooth="yes"/>
      <point x="2042.0" y="1100.0" type="line"/>
      <point x="1578.0" y="1100.0" type="line"/>
      <point x="1578.0" y="180.0" type="line" smooth="yes"/>
      <point x="1578.0" y="-26.0"/>
      <point x="1542.0" y="-152.0"/>
      <point x="1432.0" y="-284.0" type="curve"/>
    </contour>
    <contour>
      <point x="1800.0" y="1206.0" type="curve" smooth="yes"/>
      <point x="1990.0" y="1206.0"/>
      <point x="2074.0" y="1280.0"/>
      <point x="2074.0" y="1418.0" type="curve" smooth="yes"/>
      <point x="2074.0" y="1556.0"/>
      <point x="1990.0" y="1630.0"/>
      <point x="1800.0" y="1630.0" type="curve" smooth="yes"/>
      <point x="1610.0" y="1630.0"/>
      <point x="1526.0" y="1556.0"/>
      <point x="1526.0" y="1418.0" type="curve" smooth="yes"/>
      <point x="1526.0" y="1280.0"/>
      <point x="1610.0" y="1206.0"/>
    </contour>
  </outline>
</glyph>
<glyph name="Ainvertedbreve" format="2">
  <advance width="1760.0"/>
  <unicode hex="0202"/>
  <anchor x="878.0" y="1520.0" name="_top"/>
  <anchor x="880.0" y="0.0" name="bottom"/>
  <anchor x="1744.0" y="0.0" name="ogonek"/>
  <anchor x="878.0" y="1520.0" name="top"/>
  <outline>
    <contour>
      <point x="16.0" y="0.0" type="line"/>
      <point x="476.0" y="0.0" type="line"/>
      <point x="898.0" y="1284.0" type="line"/>
      <point x="858.0" y="1284.0" type="line"/>
      <point x="1280.0" y="0.0" type="line"/>
      <point x="1744.0" y="0.0" type="line"/>
      <point x="1224.0" y="1480.0" type="line"/>
      <point x="536.0" y="1480.0" type="line"/>
    </contour>
    <contour>
      <point x="500.0" y="334.0" type="line"/>
      <point x="1256.0" y="334.0" type="line"/>
      <point x="1148.0" y="684.0" type="line"/>
      <point x="610.0" y="684.0" type="line"/>
    </contour>
    <contour>
      <point x="394.0" y="1586.0" type="curve"/>
      <point x="668.0" y="1586.0" type="line"/>
      <point x="688.0" y="1648.0"/>
      <point x="750.0" y="1694.0"/>
      <point x="878.0" y="1694.0" type="curve" smooth="yes"/>
      <point x="1006.0" y="1694.0"/>
      <point x="1068.0" y="1648.0"/>
      <point x="1088.0" y="1586.0" type="curve"/>
      <point x="1362.0" y="1586.0" type="line"/>
      <point x="1332.0" y="1762.0"/>
      <point x="1190.0" y="1902.0"/>
      <point x="878.0" y="1902.0" type="curve" smooth="yes"/>
      <point x="566.0" y="1902.0"/>
      <point x="424.0" y="1762.0"/>
    </contour>
  </outline>
</glyph>
<glyph name="idblgrave" format="2">
  <advance width="696.0"/>
  <unicode hex="0209"/>
  <anchor x="348.0" y="1200.0" name="_top"/>
  <anchor x="348.0" y="0.0" name="bottom"/>
  <anchor x="580.0" y="0.0" name="ogonek"/>
  <anchor x="348.0" y="1200.0" name="top"/>
  <outline>
    <contour>
      <point x="116.0" y="0.0" type="line"/>
      <point x="580.0" y="0.0" type="line"/>
      <point x="580.0" y="1100.0" type="line"/>
      <point x="116.0" y="1100.0" type="line"/>
    </contour>
    <contour>
      <point x="422.0" y="1220.0" type="line"/>
      <point x="746.0" y="1220.0" type="line"/>
      <point x="582.0" y="1616.0" type="line"/>
      <point x="234.0" y="1616.0" type="line"/>
    </contour>
    <contour>
      <point x="-50.0" y="1220.0" type="line"/>
      <point x="274.0" y="1220.0" type="line"/>
      <point x="110.0" y="1616.0" type="line"/>
      <point x="-238.0" y="1616.0" type="line"/>
    </contour>
  </outline>
</glyph>
<glyph name="tcommaaccent" format="2">
  <advance width="1024.0"/>
  <unicode hex="021B"/>
  <anchor x="592.0" y="0.0" name="_bottom"/>
  <anchor x="592.0" y="0.0" name="bottom"/>
  <anchor x="790.0" y="1616.0" name="caronalt"/>
  <anchor x="222.0" y="550.0" name="stroke"/>
  <anchor x="454.0" y="1520.0" name="top"/>
  <anchor x="890.0" y="1616.0" name="topright"/>
  <outline>
    <contour>
      <point x="710.0" y="-22.0" type="curve" smooth="yes"/>
      <point x="794.0" y="-22.0"/>
      <point x="896.0" y="-8.0"/>
      <point x="962.0" y="6.0" type="curve"/>
      <point x="962.0" y="354.0" type="line"/>
      <point x="916.0" y="346.0"/>
      <point x="882.0" y="342.0"/>
      <point x="848.0" y="342.0" type="curve" smooth="yes"/>
      <point x="730.0" y="342.0"/>
      <point x="686.0" y="380.0"/>
      <point x="686.0" y="512.0" type="curve" smooth="yes"/>
      <point x="686.0" y="1480.0" type="line"/>
      <point x="308.0" y="1480.0" type="line"/>
      <point x="222.0" y="1100.0" type="line"/>
      <point x="222.0" y="424.0" type="line" smooth="yes"/>
      <point x="222.0" y="126.0"/>
      <point x="390.0" y="-22.0"/>
    </contour>
    <contour>
      <point x="42.0" y="740.0" type="line"/>
      <point x="962.0" y="740.0" type="line"/>
      <point x="962.0" y="1100.0" type="line"/>
      <point x="42.0" y="1100.0" type="line"/>
    </contour>
    <contour>
      <point x="464.0" y="-520.0" type="curve"/>
      <point x="744.0" y="-520.0" type="line"/>
      <point x="802.0" y="-460.0"/>
      <point x="840.0" y="-364.0"/>
      <point x="840.0" y="-282.0" type="curve" smooth="yes"/>
      <point x="840.0" y="-170.0"/>
      <point x="768.0" y="-104.0"/>
      <point x="592.0" y="-104.0" type="curve" smooth="yes"/>
      <point x="416.0" y="-104.0"/>
      <point x="344.0" y="-154.0"/>
      <point x="344.0" y="-240.0" type="curve" smooth="yes"/>
      <point x="344.0" y="-322.0"/>
      <point x="406.0" y="-374.0"/>
      <point x="592.0" y="-374.0" type="curve" smooth="yes"/>
      <point x="620.0" y="-374.0" type="line"/>
      <point x="536.0" y="-296.0" type="line"/>
      <point x="536.0" y="-370.0"/>
      <point x="518.0" y="-426.0"/>
    </contour>
  </outline>
</glyph>
<glyph name="ymacron" format="2">
  <advance width="1424.0"/>
  <unicode hex="0233"/>
  <anchor x="712.0" y="1200.0" name="_top"/>
  <anchor x="1206.0" y="0.0" name="bottom"/>
  <anchor x="712.0" y="1200.0" name="top"/>
  <outline>
    <contour>
      <point x="358.0" y="-440.0" type="line"/>
      <point x="810.0" y="-440.0" type="line"/>
      <point x="1438.0" y="1100.0" type="line"/>
      <point x="986.0" y="1100.0" type="line"/>
      <point x="718.0" y="370.0" type="line"/>
      <point x="540.0" y="0.0" type="line"/>
    </contour>
    <contour>
      <point x="432.0" y="0.0" type="line"/>
      <point x="878.0" y="0.0" type="line"/>
      <point x="474.0" y="1100.0" type="line"/>
      <point x="-14.0" y="1100.0" type="line"/>
    </contour>
    <contour>
      <point x="296.0" y="1294.0" type="line"/>
      <point x="1128.0" y="1294.0" type="line"/>
      <point x="1128.0" y="1544.0" type="line"/>
      <point x="296.0" y="1544.0" type="line"/>
    </contour>
  </outline>
</glyph>
<glyph name="jdotless" format="2">
  <advance width="696.0"/>
  <unicode hex="0237"/>
  <anchor x="338.0" y="1200.0" name="top"/>
  <outline>
    <contour>
      <point x="258.0" y="-476.0" type="line"/>
      <point x="498.0" y="-258.0"/>
      <point x="580.0" y="-54.0"/>
      <point x="580.0" y="196.0" type="curve" smooth="yes"/>
      <point x="580.0" y="1100.0" type="line"/>
      <point x="116.0" y="1100.0" type="line"/>
      <point x="116.0" y="180.0" type="line" smooth="yes"/>
      <point x="116.0" y="-26.0"/>
      <point x="80.0" y="-152.0"/>
      <point x="-30.0" y="-284.0" type="curve"/>
    </contour>
  </outline>
</glyph>
<glyph name="apostrophemod" format="2">
  <advance width="1200.0"/>
  <unicode hex="02BC"/>
  <anchor x="600.0" y="1200.0" name="_apostrophe"/>
  <outline>
    <contour>
      <point x="720.0" y="1212.0" type="curve"/>
      <point x="1000.0" y="1212.0" type="line"/>
      <point x="1058.0" y="1272.0"/>
      <point x="1096.0" y="1368.0"/>
      <point x="1096.0" y="1450.0" type="curve" smooth="yes"/>
      <point x="1096.0" y="1562.0"/>
      <point x="1024.0" y="1628.0"/>
      <point x="848.0" y="1628.0" type="curve" smooth="yes"/>
      <point x="672.0" y="1628.0"/>
      <point x="600.0" y="1578.0"/>
      <point x="600.0" y="1492.0" type="curve" smooth="yes"/>
      <point x="600.0" y="1410.0"/>
      <point x="662.0" y="1358.0"/>
      <point x="848.0" y="1358.0" type="curve" smooth="yes"/>
      <point x="876.0" y="1358.0" type="line"/>
      <point x="792.0" y="1436.0" type="line"/>
      <point x="792.0" y="1362.0"/>
      <point x="774.0" y="1306.0"/>
    </contour>
  </outline>
</glyph>
<glyph name="circumflex" format="2">
  <advance width="1200.0"/>
  <unicode hex="02C6"/>
  <anchor x="600.0" y="1200.0" name="_top"/>
  <anchor x="600.0" y="1676.0" name="top"/>
  <outline>
    <contour>
      <point x="136.0" y="1220.0" type="line"/>
      <point x="470.0" y="1220.0" type="line"/>
      <point x="634.0" y="1456.0" type="line"/>
      <point x="566.0" y="1456.0" type="line"/>
      <point x="730.0" y="1220.0" type="line"/>
      <point x="1064.0" y="1220.0" type="line"/>
      <point x="778.0" y="1616.0" type="line"/>
      <point x="422.0" y="1616.0" type="line"/>
    </contour>
  </outline>
</glyph>
<glyph name="dieresiscomb" format="2">
  <unicode hex="0308"/>
  <anchor x="600.0" y="1200.0" name="_top"/>
  <anchor x="600.0" y="1616.0" name="top"/>
  <outline>
    <contour>
      <point x="886.0" y="1210.0" type="curve" smooth="yes"/>
      <point x="1048.0" y="1210.0"/>
      <point x="1120.0" y="1288.0"/>
      <point x="1120.0" y="1418.0" type="curve" smooth="yes"/>
      <point x="1120.0" y="1548.0"/>
      <point x="1048.0" y="1626.0"/>
      <point x="886.0" y="1626.0" type="curve" smooth="yes"/>
      <point x="724.0" y="1626.0"/>
      <point x="652.0" y="1548.0"/>
      <point x="652.0" y="1418.0" type="curve" smooth="yes"/>
      <point x="652.0" y="1288.0"/>
      <point x="724.0" y="1210.0"/>
    </contour>
    <contour>
      <point x="314.0" y="1210.0" type="curve" smooth="yes"/>
      <point x="476.0" y="1210.0"/>
      <point x="548.0" y="1288.0"/>
      <point x="548.0" y="1418.0" type="curve" smooth="yes"/>
      <point x="548.0" y="1548.0"/>
      <point x="476.0" y="1626.0"/>
      <point x="314.0" y="1626.0" type="curve" smooth="yes"/>
      <point x="152.0" y="1626.0"/>
      <point x="80.0" y="1548.0"/>
      <point x="80.0" y="1418.0" type="curve" smooth="yes"/>
      <point x="80.0" y="1288.0"/>
      <point x="152.0" y="1210.0"/>
    </contour>
  </outline>
</glyph>
<glyph name="caroncomb" format="2">
  <unicode hex="030C"/>
  <anchor x="600.0" y="1200.0" name="_top"/>
  <anchor x="600.0" y="1656.0" name="top"/>
  <outline>
    <contour>
      <point x="422.0" y="1220.0" type="line"/>
      <point x="778.0" y="1220.0" type="line"/>
      <point x="1064.0" y="1616.0" type="line"/>
      <point x="730.0" y="1616.0" type="line"/>
      <point x="566.0" y="1380.0" type="line"/>
      <point x="634.0" y="1380.0" type="line"/>
      <point x="470.0" y="1616.0" type="line"/>
      <point x="136.0" y="1616.0" type="line"/>
    </contour>
  </outline>
</glyph>
<glyph name="dblgravecomb" format="2">
  <unicode hex="030F"/>
  <anchor x="600.0" y="1200.0" name="_top"/>
  <anchor x="600.0" y="1656.0" name="top"/>
  <outline>
    <contour>
      <point x="674.0" y="1220.0" type="line"/>
      <point x="998.0" y="1220.0" type="line"/>
      <point x="834.0" y="1616.0" type="line"/>
      <point x="486.0" y="1616.0" type="line"/>
    </contour>
    <contour>
      <point x="202.0" y="1220.0" type="line"/>
      <point x="526.0" y="1220.0" type="line"/>
      <point x="362.0" y="1616.0" type="line"/>
      <point x="14.0" y="1616.0" type="line"/>
    </contour>
  </outline>
</glyph>
<glyph name="horncomb" format="2">
  <unicode hex="031B"/>
  <anchor x="400.0" y="1480.0" name="_topright"/>
  <anchor x="400.0" y="1480.0" name="topright"/>
  <outline>
    <contour>
      <point x="400.0" y="1282.0" type="line"/>
      <point x="696.0" y="1282.0" type="line" smooth="yes"/>
      <point x="912.0" y="1282.0"/>
      <point x="1050.0" y="1394.0"/>
      <point x="1050.0" y="1618.0" type="curve" smooth="yes"/>
      <point x="1050.0" y="1660.0"/>
      <point x="1048.0" y="1706.0"/>
      <point x="1032.0" y="1770.0" type="curve"/>
      <point x="760.0" y="1770.0" type="line"/>
      <point x="770.0" y="1704.0"/>
      <point x="772.0" y="1666.0"/>
      <point x="772.0" y="1630.0" type="curve" smooth="yes"/>
      <point x="772.0" y="1518.0"/>
      <point x="702.0" y="1480.0"/>
      <point x="574.0" y="1480.0" type="curve" smooth="yes"/>
      <point x="400.0" y="1480.0" type="line"/>
    </contour>
  </outline>
</glyph>
<glyph name="dotbelowcomb" format="2">
  <unicode hex="0323"/>
  <anchor x="600.0" y="0.0" name="_bottom"/>
  <anchor x="600.0" y="-520.0" name="bottom"/>
  <outline>
    <contour>
      <point x="600.0" y="-500.0" type="curve" smooth="yes"/>
      <point x="762.0" y="-500.0"/>
      <point x="834.0" y="-422.0"/>
      <point x="834.0" y="-302.0" type="curve" smooth="yes"/>
      <point x="834.0" y="-182.0"/>
      <point x="762.0" y="-104.0"/>
      <point x="600.0" y="-104.0" type="curve" smooth="yes"/>
      <point x="438.0" y="-104.0"/>
      <point x="366.0" y="-182.0"/>
      <point x="366.0" y="-302.0" type="curve" smooth="yes"/>
      <point x="366.0" y="-422.0"/>
      <point x="438.0" y="-500.0"/>
    </contour>
  </outline>
</glyph>
<glyph name="cedillacomb" format="2">
  <unicode hex="0327"/>
  <anchor x="600.0" y="0.0" name="_bottom"/>
  <outline>
    <contour>
      <point x="594.0" y="-460.0" type="curve" smooth="yes"/>
      <point x="790.0" y="-460.0"/>
      <point x="892.0" y="-386.0"/>
      <point x="892.0" y="-266.0" type="curve" smooth="yes"/>
      <point x="892.0" y="-146.0"/>
      <point x="810.0" y="-66.0"/>
      <point x="618.0" y="-66.0" type="curve"/>
      <point x="714.0" y="-122.0" type="line"/>
      <point x="714.0" y="20.0" type="line"/>
      <point x="512.0" y="20.0" type="line"/>
      <point x="512.0" y="-184.0" type="line"/>
      <point x="574.0" y="-184.0" type="line" smooth="yes"/>
      <point x="634.0" y="-184.0"/>
      <point x="668.0" y="-200.0"/>
      <point x="668.0" y="-244.0" type="curve" smooth="yes"/>
      <point x="668.0" y="-288.0"/>
      <point x="634.0" y="-304.0"/>
      <point x="572.0" y="-304.0" type="curve" smooth="yes"/>
      <point x="520.0" y="-304.0"/>
      <point x="438.0" y="-294.0"/>
      <point x="386.0" y="-274.0" type="curve"/>
      <point x="386.0" y="-428.0" type="line"/>
      <point x="444.0" y="-448.0"/>
      <point x="516.0" y="-460.0"/>
    </contour>
  </outline>
</glyph>
<glyph name="Delta" format="2">
  <advance width="1760.0"/>
  <unicode hex="0394"/>
  <outline>
    <contour>
      <point x="16.0" y="0.0" type="line"/>
      <point x="1744.0" y="0.0" type="line"/>
      <point x="1224.0" y="1480.0" type="line"/>
      <point x="536.0" y="1480.0" type="line"/>
    </contour>
    <contour>
      <point x="528.0" y="154.0" type="line"/>
      <point x="898.0" y="1284.0" type="line"/>
      <point x="858.0" y="1284.0" type="line"/>
      <point x="1228.0" y="154.0" type="line"/>
      <point x="1250.0" y="350.0" type="line"/>
      <point x="506.0" y="350.0" type="line"/>
    </contour>
  </outline>
</glyph>
<glyph name="mu" format="2">
  <advance width="1452.0"/>
  <unicode hex="03BC"/>
  <outline>
    <contour>
      <point x="672.0" y="-18.0" type="curve" smooth="yes"/>
      <point x="762.0" y="-18.0"/>
      <point x="848.0" y="24.0"/>
      <point x="914.0" y="96.0" type="curve"/>
      <point x="930.0" y="96.0" type="line"/>
      <point x="958.0" y="0.0" type="line"/>
      <point x="1336.0" y="0.0" type="line"/>
      <point x="1336.0" y="1100.0" type="line"/>
      <point x="872.0" y="1100.0" type="line"/>
      <point x="872.0" y="430.0" type="line"/>
      <point x="832.0" y="392.0"/>
      <point x="766.0" y="366.0"/>
      <point x="700.0" y="366.0" type="curve" smooth="yes"/>
      <point x="618.0" y="366.0"/>
      <point x="572.0" y="402.0"/>
      <point x="572.0" y="518.0" type="curve" smooth="yes"/>
      <point x="572.0" y="700.0" type="line"/>
      <point x="320.0" y="700.0" type="line"/>
      <point x="320.0" y="492.0" type="line" smooth="yes"/>
      <point x="320.0" y="132.0"/>
      <point x="464.0" y="-18.0"/>
    </contour>
    <contour>
      <point x="108.0" y="-440.0" type="line"/>
      <point x="572.0" y="-440.0" type="line"/>
      <point x="572.0" y="1098.0" type="line"/>
      <point x="108.0" y="1098.0" type="line"/>
    </contour>
  </outline>
</glyph>
<glyph name="Hdotbelow" format="2">
  <advance width="1794.0"/>
  <unicode hex="1E24"/>
  <anchor x="898.0" y="0.0" name="_bottom"/>
  <anchor x="898.0" y="0.0" name="bottom"/>
  <anchor x="898.0" y="1222.0" name="center"/>
  <anchor x="898.0" y="1520.0" name="top"/>
  <anchor x="44.0" y="1480.0" name="topleft"/>
  <outline>
    <contour>
      <point x="130.0" y="0.0" type="line"/>
      <point x="606.0" y="0.0" type="line"/>
      <point x="606.0" y="554.0" type="line"/>
      <point x="1188.0" y="554.0" type="line"/>
      <point x="1188.0" y="0.0" type="line"/>
      <point x="1664.0" y="0.0" type="line"/>
      <point x="1664.0" y="1480.0" type="line"/>
      <point x="1188.0" y="1480.0" type="line"/>
      <point x="1188.0" y="956.0" type="line"/>
      <point x="606.0" y="956.0" type="line"/>
      <point x="606.0" y="1480.0" type="line"/>
      <point x="130.0" y="1480.0" type="line"/>
    </contour>
    <contour>
      <point x="898.0" y="-464.0" type="curve" smooth="yes"/>
      <point x="1090.0" y="-464.0"/>
      <point x="1166.0" y="-390.0"/>
      <point x="1166.0" y="-284.0" type="curve" smooth="yes"/>
      <point x="1166.0" y="-178.0"/>
      <point x="1090.0" y="-104.0"/>
      <point x="898.0" y="-104.0" type="curve" smooth="yes"/>
      <point x="706.0" y="-104.0"/>
      <point x="630.0" y="-178.0"/>
      <point x="630.0" y="-284.0" type="curve" smooth="yes"/>
      <point x="630.0" y="-390.0"/>
      <point x="706.0" y="-464.0"/>
    </contour>
  </outline>
</glyph>
<glyph name="umacrondieresis" format="2">
  <advance width="1452.0"/>
  <unicode hex="1E7B"/>
  <anchor x="722.0" y="0.0" name="bottom"/>
  <anchor x="1336.0" y="0.0" name="ogonek"/>
  <anchor x="722.0" y="1200.0" name="top"/>
  <anchor x="892.0" y="1100.0" name="topright"/>
  <outline>
    <contour>
      <point x="586.0" y="-18.0" type="curve" smooth="yes"/>
      <point x="708.0" y="-18.0"/>
      <point x="824.0" y="24.0"/>
      <point x="914.0" y="96.0" type="curve"/>
      <point x="930.0" y="96.0" type="line"/>
      <point x="958.0" y="0.0" type="line"/>
      <point x="1336.0" y="0.0" type="line"/>
      <point x="1336.0" y="1100.0" type="line"/>
      <point x="872.0" y="1100.0" type="line"/>
      <point x="872.0" y="430.0" type="line"/>
      <point x="832.0" y="392.0"/>
      <point x="766.0" y="366.0"/>
      <point x="700.0" y="366.0" type="curve" smooth="yes"/>
      <point x="618.0" y="366.0"/>
      <point x="572.0" y="402.0"/>
      <point x="572.0" y="518.0" type="curve" smooth="yes"/>
      <point x="572.0" y="1100.0" type="line"/>
      <point x="108.0" y="1100.0" type="line"/>
      <point x="108.0" y="492.0" type="line" smooth="yes"/>
      <point x="108.0" y="132.0"/>
      <point x="304.0" y="-18.0"/>
    </contour>
    <component base="macroncomb" xOffset="122.0"/>
    <component base="dieresiscomb" xOffset="122.0" yOffset="416.0"/>
  </outline>
</glyph>
<glyph name="zdotbelow" format="2">
  <advance width="1274.0"/>
  <unicode hex="1E93"/>
  <anchor x="650.0" y="0.0" name="_bottom"/>
  <anchor x="650.0" y="0.0" name="bottom"/>
  <anchor x="650.0" y="1200.0" name="top"/>
  <outline>
    <contour>
      <point x="92.0" y="0.0" type="line"/>
      <point x="1206.0" y="0.0" type="line"/>
      <point x="1206.0" y="360.0" type="line"/>
      <point x="638.0" y="360.0" type="line"/>
      <point x="638.0" y="288.0" type="line"/>
      <point x="1196.0" y="800.0" type="line"/>
      <point x="1196.0" y="1100.0" type="line"/>
      <point x="102.0" y="1100.0" type="line"/>
      <point x="102.0" y="740.0" type="line"/>
      <point x="650.0" y="740.0" type="line"/>
      <point x="650.0" y="812.0" type="line"/>
      <point x="92.0" y="300.0" type="line"/>
    </contour>
    <contour>
      <point x="650.0" y="-500.0" type="curve" smooth="yes"/>
      <point x="812.0" y="-500.0"/>
      <point x="884.0" y="-422.0"/>
      <point x="884.0" y="-302.0" type="curve" smooth="yes"/>
      <point x="884.0" y="-182.0"/>
      <point x="812.0" y="-104.0"/>
      <point x="650.0" y="-104.0" type="curve" smooth="yes"/>
      <point x="488.0" y="-104.0"/>
      <point x="416.0" y="-182.0"/>
      <point x="416.0" y="-302.0" type="curve" smooth="yes"/>
      <point x="416.0" y="-422.0"/>
      <point x="488.0" y="-500.0"/>
    </contour>
  </outline>
</glyph>
<glyph name="acircumflexdotbelow" format="2">
  <advance width="1344.0"/>
  <unicode hex="1EAD"/>
  <anchor x="668.0" y="0.0" name="_bottom"/>
  <anchor x="668.0" y="0.0" name="bottom"/>
  <anchor x="1236.0" y="0.0" name="ogonek"/>
  <anchor x="668.0" y="1200.0" name="top"/>
  <outline>
    <contour>
      <point x="488.0" y="-22.0" type="curve" smooth="yes"/>
      <point x="612.0" y="-22.0"/>
      <point x="724.0" y="10.0"/>
      <point x="802.0" y="90.0" type="curve"/>
      <point x="822.0" y="90.0" type="line"/>
      <point x="852.0" y="0.0" type="line"/>
      <point x="1236.0" y="0.0" type="line"/>
      <point x="1236.0" y="574.0" type="line" smooth="yes"/>
      <point x="1236.0" y="984.0"/>
      <point x="1052.0" y="1118.0"/>
      <point x="596.0" y="1118.0" type="curve" smooth="yes"/>
      <point x="472.0" y="1118.0"/>
      <point x="308.0" y="1102.0"/>
      <point x="172.0" y="1066.0" type="curve"/>
      <point x="172.0" y="744.0" type="line"/>
      <point x="280.0" y="774.0"/>
      <point x="418.0" y="790.0"/>
      <point x="512.0" y="790.0" type="curve" smooth="yes"/>
      <point x="720.0" y="790.0"/>
      <point x="782.0" y="742.0"/>
      <point x="782.0" y="614.0" type="curve" smooth="yes"/>
      <point x="782.0" y="300.0" type="line"/>
      <point x="738.0" y="278.0"/>
      <point x="684.0" y="272.0"/>
      <point x="640.0" y="272.0" type="curve" smooth="yes"/>
      <point x="556.0" y="272.0"/>
      <point x="516.0" y="304.0"/>
      <point x="516.0" y="350.0" type="curve" smooth="yes"/>
      <point x="516.0" y="400.0"/>
      <point x="552.0" y="432.0"/>
      <point x="658.0" y="438.0" type="curve" smooth="yes"/>
      <point x="902.0" y="450.0" type="line"/>
      <point x="858.0" y="682.0" type="line"/>
      <point x="612.0" y="670.0" type="line" smooth="yes"/>
      <point x="226.0" y="652.0"/>
      <point x="58.0" y="526.0"/>
      <point x="58.0" y="312.0" type="curve" smooth="yes"/>
      <point x="58.0" y="124.0"/>
      <point x="200.0" y="-22.0"/>
    </contour>
    <contour>
      <point x="668.0" y="-500.0" type="curve" smooth="yes"/>
      <point x="830.0" y="-500.0"/>
      <point x="902.0" y="-422.0"/>
      <point x="902.0" y="-302.0" type="curve" smooth="yes"/>
      <point x="902.0" y="-182.0"/>
      <point x="830.0" y="-104.0"/>
      <point x="668.0" y="-104.0" type="curve" smooth="yes"/>
      <point x="506.0" y="-104.0"/>
      <point x="434.0" y="-182.0"/>
      <point x="434.0" y="-302.0" type="curve" smooth="yes"/>
      <point x="434.0" y="-422.0"/>
      <point x="506.0" y="-500.0"/>
    </contour>
    <contour>
      <point x="204.0" y="1220.0" type="line"/>
      <point x="538.0" y="1220.0" type="line"/>
      <point x="702.0" y="1456.0" type="line"/>
      <point x="634.0" y="1456.0" type="line"/>
      <point x="798.0" y="1220.0" type="line"/>
      <point x="1132.0" y="1220.0" type="line"/>
      <point x="846.0" y="1616.0" type="line"/>
      <point x="490.0" y="1616.0" type="line"/>
    </contour>
  </outline>
</glyph>
<glyph name="etilde" format="2">
  <advance width="1326.0"/>
  <unicode hex="1EBD"/>
  <anchor x="682.0" y="1200.0" name="_top"/>
  <anchor x="682.0" y="0.0" name="bottom"/>
  <anchor x="1184.0" y="0.0" name="ogonek"/>
  <anchor x="682.0" y="1200.0" name="top"/>
  <outline>
    <contour>
      <point x="810.0" y="-22.0" type="curve" smooth="yes"/>
      <point x="924.0" y="-22.0"/>
      <point x="1052.0" y="-16.0"/>
      <point x="1194.0" y="8.0" type="curve"/>
      <point x="1194.0" y="326.0" type="line"/>
      <point x="1094.0" y="312.0"/>
      <point x="976.0" y="302.0"/>
      <point x="884.0" y="302.0" type="curve" smooth="yes"/>
      <point x="570.0" y="302.0"/>
      <point x="520.0" y="348.0"/>
      <point x="520.0" y="476.0" type="curve" smooth="yes"/>
      <point x="520.0" y="652.0" type="line" smooth="yes"/>
      <point x="520.0" y="786.0"/>
      <point x="570.0" y="846.0"/>
      <point x="682.0" y="846.0" type="curve" smooth="yes"/>
      <point x="794.0" y="846.0"/>
      <point x="844.0" y="784.0"/>
      <point x="844.0" y="650.0" type="curve"/>
      <point x="912.0" y="668.0" type="line"/>
      <point x="270.0" y="668.0" type="line"/>
      <point x="270.0" y="428.0" type="line"/>
      <point x="1270.0" y="428.0" type="line"/>
      <point x="1270.0" y="530.0" type="line" smooth="yes"/>
      <point x="1270.0" y="892.0"/>
      <point x="1074.0" y="1118.0"/>
      <point x="690.0" y="1118.0" type="curve" smooth="yes"/>
      <point x="284.0" y="1118.0"/>
      <point x="66.0" y="892.0"/>
      <point x="66.0" y="546.0" type="curve" smooth="yes"/>
      <point x="66.0" y="156.0"/>
      <point x="292.0" y="-22.0"/>
    </contour>
    <contour>
      <point x="860.0" y="1240.0" type="curve" smooth="yes"/>
      <point x="960.0" y="1240.0"/>
      <point x="1032.0" y="1266.0"/>
      <point x="1098.0" y="1326.0" type="curve"/>
      <point x="1098.0" y="1588.0" type="line"/>
      <point x="1022.0" y="1522.0"/>
      <point x="958.0" y="1496.0"/>
      <point x="872.0" y="1496.0" type="curve" smooth="yes"/>
      <point x="748.0" y="1496.0"/>
      <point x="644.0" y="1598.0"/>
      <point x="504.0" y="1598.0" type="curve" smooth="yes"/>
      <point x="404.0" y="1598.0"/>
      <point x="332.0" y="1572.0"/>
      <point x="266.0" y="1512.0" type="curve"/>
      <point x="266.0" y="1250.0" type="line"/>
      <point x="342.0" y="1316.0"/>
      <point x="406.0" y="1342.0"/>
      <point x="492.0" y="1342.0" type="curve" smooth="yes"/>
      <point x="616.0" y="1342.0"/>
      <point x="720.0" y="1240.0"/>
    </contour>
  </outline>
</glyph>
<glyph name="ecircumflexhookabove" format="2">
  <advance width="1326.0"/>
  <unicode hex="1EC3"/>
  <anchor x="682.0" y="1200.0" name="_top"/>
  <anchor x="682.0" y="0.0" name="bottom"/>
  <anchor x="1184.0" y="0.0" name="ogonek"/>
  <anchor x="682.0" y="1200.0" name="top"/>
  <outline>
    <contour>
      <point x="810.0" y="-22.0" type="curve" smooth="yes"/>
      <point x="924.0" y="-22.0"/>
      <point x="1052.0" y="-16.0"/>
      <point x="1194.0" y="8.0" type="curve"/>
      <point x="1194.0" y="326.0" type="line"/>
      <point x="1094.0" y="312.0"/>
      <point x="976.0" y="302.0"/>
      <point x="884.0" y="302.0" type="curve" smooth="yes"/>
      <point x="570.0" y="302.0"/>
      <point x="520.0" y="348.0"/>
      <point x="520.0" y="476.0" type="curve" smooth="yes"/>
      <point x="520.0" y="652.0" type="line" smooth="yes"/>
      <point x="520.0" y="786.0"/>
      <point x="570.0" y="846.0"/>
      <point x="682.0" y="846.0" type="curve" smooth="yes"/>
      <point x="794.0" y="846.0"/>
      <point x="844.0" y="784.0"/>
      <point x="844.0" y="650.0" type="curve"/>
      <point x="912.0" y="668.0" type="line"/>
      <point x="270.0" y="668.0" type="line"/>
      <point x="270.0" y="428.0" type="line"/>
      <point x="1270.0" y="428.0" type="line"/>
      <point x="1270.0" y="530.0" type="line" smooth="yes"/>
      <point x="1270.0" y="892.0"/>
      <point x="1074.0" y="1118.0"/>
      <point x="690.0" y="1118.0" type="curve" smooth="yes"/>
      <point x="284.0" y="1118.0"/>
      <point x="66.0" y="892.0"/>
      <point x="66.0" y="546.0" type="curve" smooth="yes"/>
      <point x="66.0" y="156.0"/>
      <point x="292.0" y="-22.0"/>
    </contour>
    <contour>
      <point x="218.0" y="1220.0" type="line"/>
      <point x="552.0" y="1220.0" type="line"/>
      <point x="716.0" y="1456.0" type="line"/>
      <point x="648.0" y="1456.0" type="line"/>
      <point x="812.0" y="1220.0" type="line"/>
      <point x="1146.0" y="1220.0" type="line"/>
      <point x="860.0" y="1616.0" type="line"/>
      <point x="504.0" y="1616.0" type="line"/>
    </contour>
    <contour>
      <point x="932.0" y="1598.0" type="curve"/>
      <point x="1120.0" y="1598.0" type="line"/>
      <point x="1134.0" y="1678.0"/>
      <point x="1286.0" y="1678.0"/>
      <point x="1286.0" y="1768.0" type="curve" smooth="yes"/>
      <point x="1286.0" y="1858.0"/>
      <point x="1204.0" y="1894.0"/>
      <point x="1020.0" y="1894.0" type="curve" smooth="yes"/>
      <point x="958.0" y="1894.0"/>
      <point x="862.0" y="1886.0"/>
      <point x="810.0" y="1874.0" type="curve"/>
      <point x="810.0" y="1752.0" type="line"/>
      <point x="862.0" y="1762.0"/>
      <point x="930.0" y="1768.0"/>
      <point x="986.0" y="1768.0" type="curve" smooth="yes"/>
      <point x="1050.0" y="1768.0"/>
      <point x="1080.0" y="1760.0"/>
      <point x="1080.0" y="1740.0" type="curve" smooth="yes"/>
      <point x="1080.0" y="1710.0"/>
      <point x="940.0" y="1704.0"/>
    </contour>
  </outline>
</glyph>
<glyph name="Ocircumflexacute" format="2">
  <advance width="1892.0"/>
  <unicode hex="1ED0"/>
  <anchor x="946.0" y="1520.0" name="_top"/>
  <anchor x="946.0" y="0.0" name="bottom"/>
  <anchor x="946.0" y="740.0" name="center"/>
  <anchor x="1104.0" y="0.0" name="ogonek"/>
  <anchor x="946.0" y="1520.0" name="top"/>
  <anchor x="60.0" y="1480.0" name="topleft"/>
  <anchor x="1176.0" y="1480.0" name="topright"/>
  <outline>
    <contour>
      <point x="946.0" y="-20.0" type="curve" smooth="yes"/>
      <point x="1480.0" y="-20.0"/>
      <point x="1808.0" y="274.0"/>
      <point x="1808.0" y="740.0" type="curve" smooth="yes"/>
      <point x="1808.0" y="1206.0"/>
      <point x="1482.0" y="1500.0"/>
      <point x="946.0" y="1500.0" type="curve" smooth="yes"/>
      <point x="410.0" y="1500.0"/>
      <point x="84.0" y="1210.0"/>
      <point x="84.0" y="740.0" type="curve" smooth="yes"/>
      <point x="84.0" y="270.0"/>
      <point x="412.0" y="-20.0"/>
    </contour>
    <contour>
      <point x="946.0" y="348.0" type="curve" smooth="yes"/>
      <point x="700.0" y="348.0"/>
      <point x="568.0" y="480.0"/>
      <point x="568.0" y="748.0" type="curve" smooth="yes"/>
      <point x="568.0" y="1000.0"/>
      <point x="706.0" y="1132.0"/>
      <point x="946.0" y="1132.0" type="curve" smooth="yes"/>
      <point x="1186.0" y="1132.0"/>
      <point x="1324.0" y="994.0"/>
      <point x="1324.0" y="732.0" type="curve" smooth="yes"/>
      <point x="1324.0" y="486.0"/>
      <point x="1192.0" y="348.0"/>
    </contour>
    <contour>
      <point x="422.0" y="1586.0" type="line"/>
      <point x="786.0" y="1586.0" type="line"/>
      <point x="984.0" y="1752.0" type="line"/>
      <point x="908.0" y="1752.0" type="line"/>
      <point x="1106.0" y="1586.0" type="line"/>
      <point x="1470.0" y="1586.0" type="line"/>
      <point x="1138.0" y="1858.0" type="line"/>
      <point x="754.0" y="1858.0" type="line"/>
    </contour>
    <contour>
      <point x="1234.0" y="1828.0" type="line"/>
      <point x="1494.0" y="1828.0" type="line"/>
      <point x="1656.0" y="2064.0" type="line"/>
      <point x="1340.0" y="2064.0" type="line"/>
    </contour>
  </outline>
</glyph>
<glyph name="ocircumflexhookabove" format="2">
  <advance width="1464.0"/>
  <unicode hex="1ED5"/>
  <anchor x="732.0" y="1200.0" name="_top"/>
  <anchor x="732.0" y="0.0" name="bottom"/>
  <anchor x="732.0" y="550.0" name="center"/>
  <anchor x="942.0" y="0.0" name="ogonek"/>
  <anchor x="732.0" y="1200.0" name="top"/>
  <anchor x="734.0" y="1100.0" name="topright"/>
  <outline>
    <contour>
      <point x="732.0" y="-22.0" type="curve" smooth="yes"/>
      <point x="1134.0" y="-22.0"/>
      <point x="1398.0" y="194.0"/>
      <point x="1398.0" y="550.0" type="curve" smooth="yes"/>
      <point x="1398.0" y="906.0"/>
      <point x="1156.0" y="1118.0"/>
      <point x="732.0" y="1118.0" type="curve" smooth="yes"/>
      <point x="308.0" y="1118.0"/>
      <point x="66.0" y="906.0"/>
      <point x="66.0" y="550.0" type="curve" smooth="yes"/>
      <point x="66.0" y="194.0"/>
      <point x="330.0" y="-22.0"/>
    </contour>
    <contour>
      <point x="732.0" y="326.0" type="curve" smooth="yes"/>
      <point x="596.0" y="326.0"/>
      <point x="524.0" y="396.0"/>
      <point x="524.0" y="550.0" type="curve" smooth="yes"/>
      <point x="524.0" y="704.0"/>
      <point x="596.0" y="770.0"/>
      <point x="732.0" y="770.0" type="curve" smooth="yes"/>
      <point x="868.0" y="770.0"/>
      <point x="940.0" y="704.0"/>
      <point x="940.0" y="550.0" type="curve" smooth="yes"/>
      <point x="940.0" y="396.0"/>
      <point x="868.0" y="326.0"/>
    </contour>
    <contour>
      <point x="268.0" y="1220.0" type="line"/>
      <point x="602.0" y="1220.0" type="line"/>
      <point x="766.0" y="1456.0" type="line"/>
      <point x="698.0" y="1456.0" type="line"/>
      <point x="862.0" y="1220.0" type="line"/>
      <point x="1196.0" y="1220.0" type="line"/>
      <point x="910.0" y="1616.0" type="line"/>
      <point x="554.0" y="1616.0" type="line"/>
    </contour>
    <contour>
      <point x="982.0" y="1598.0" type="curve"/>
      <point x="1170.0" y="1598.0" type="line"/>
      <point x="1184.0" y="1678.0"/>
      <point x="1336.0" y="1678.0"/>
      <point x="1336.0" y="1768.0" type="curve" smooth="yes"/>
      <point x="1336.0" y="1858.0"/>
      <point x="1254.0" y="1894.0"/>
      <point x="1070.0" y="1894.0" type="curve" smooth="yes"/>
      <point x="1008.0" y="1894.0"/>
      <point x="912.0" y="1886.0"/>
      <point x="860.0" y="1874.0" type="curve"/>
      <point x="860.0" y="1752.0" type="line"/>
      <point x="912.0" y="1762.0"/>
      <point x="980.0" y="1768.0"/>
      <point x="1036.0" y="1768.0" type="curve" smooth="yes"/>
      <point x="1100.0" y="1768.0"/>
      <point x="1130.0" y="1760.0"/>
      <point x="1130.0" y="1740.0" type="curve" smooth="yes"/>
      <point x="1130.0" y="1710.0"/>
      <point x="990.0" y="1704.0"/>
    </contour>
  </outline>
</glyph>
<glyph name="Ocircumflextilde" format="2">
  <advance width="1892.0"/>
  <unicode hex="1ED6"/>
  <anchor x="946.0" y="1520.0" name="_top"/>
  <anchor x="946.0" y="0.0" name="bottom"/>
  <anchor x="946.0" y="740.0" name="center"/>
  <anchor x="1104.0" y="0.0" name="ogonek"/>
  <anchor x="946.0" y="1520.0" name="top"/>
  <anchor x="60.0" y="1480.0" name="topleft"/>
  <anchor x="1176.0" y="1480.0" name="topright"/>
  <outline>
    <contour>
      <point x="946.0" y="-20.0" type="curve" smooth="yes"/>
      <point x="1480.0" y="-20.0"/>
      <point x="1808.0" y="274.0"/>
      <point x="1808.0" y="740.0" type="curve" smooth="yes"/>
      <point x="1808.0" y="1206.0"/>
      <point x="1482.0" y="1500.0"/>
      <point x="946.0" y="1500.0" type="curve" smooth="yes"/>
      <point x="410.0" y="1500.0"/>
      <point x="84.0" y="1210.0"/>
      <point x="84.0" y="740.0" type="curve" smooth="yes"/>
      <point x="84.0" y="270.0"/>
      <point x="412.0" y="-20.0"/>
    </contour>
    <contour>
      <point x="946.0" y="348.0" type="curve" smooth="yes"/>
      <point x="700.0" y="348.0"/>
      <point x="568.0" y="480.0"/>
      <point x="568.0" y="748.0" type="curve" smooth="yes"/>
      <point x="568.0" y="1000.0"/>
      <point x="706.0" y="1132.0"/>
      <point x="946.0" y="1132.0" type="curve" smooth="yes"/>
      <point x="1186.0" y="1132.0"/>
      <point x="1324.0" y="994.0"/>
      <point x="1324.0" y="732.0" type="curve" smooth="yes"/>
      <point x="1324.0" y="486.0"/>
      <point x="1192.0" y="348.0"/>
    </contour>
    <contour>
      <point x="422.0" y="1586.0" type="line"/>
      <point x="786.0" y="1586.0" type="line"/>
      <point x="984.0" y="1752.0" type="line"/>
      <point x="908.0" y="1752.0" type="line"/>
      <point x="1106.0" y="1586.0" type="line"/>
      <point x="1470.0" y="1586.0" type="line"/>
      <point x="1138.0" y="1858.0" type="line"/>
      <point x="754.0" y="1858.0" type="line"/>
    </contour>
    <contour>
      <point x="1176.0" y="1900.0" type="curve" smooth="yes"/>
      <point x="1278.0" y="1900.0"/>
      <point x="1360.0" y="1908.0"/>
      <point x="1470.0" y="1962.0" type="curve"/>
      <point x="1470.0" y="2132.0" type="line"/>
      <point x="1348.0" y="2082.0"/>
      <point x="1274.0" y="2066.0"/>
      <point x="1180.0" y="2066.0" type="curve" smooth="yes"/>
      <point x="1032.0" y="2066.0"/>
      <point x="900.0" y="2124.0"/>
      <point x="716.0" y="2124.0" type="curve" smooth="yes"/>
      <point x="614.0" y="2124.0"/>
      <point x="532.0" y="2114.0"/>
      <point x="422.0" y="2060.0" type="curve"/>
      <point x="422.0" y="1890.0" type="line"/>
      <point x="544.0" y="1940.0"/>
      <point x="618.0" y="1956.0"/>
      <point x="712.0" y="1956.0" type="curve" smooth="yes"/>
      <point x="860.0" y="1956.0"/>
      <point x="992.0" y="1900.0"/>
    </contour>
  </outline>
</glyph>
<glyph name="ohorntilde" format="2">
  <advance width="1464.0"/>
  <unicode hex="1EE1"/>
  <outline>
    <contour>
      <point x="732.0" y="-22.0" type="curve" smooth="yes"/>
      <point x="1134.0" y="-22.0"/>
      <point x="1398.0" y="194.0"/>
      <point x="1398.0" y="550.0" type="curve" smooth="yes"/>
      <point x="1398.0" y="766.0"/>
      <point x="1308.0" y="930.0"/>
      <point x="1138.0" y="1024.0" type="curve"/>
      <point x="1112.0" y="908.0" type="line"/>
      <point x="1328.0" y="908.0"/>
      <point x="1466.0" y="1020.0"/>
      <point x="1466.0" y="1244.0" type="curve" smooth="yes"/>
      <point x="1466.0" y="1286.0"/>
      <point x="1464.0" y="1332.0"/>
      <point x="1450.0" y="1396.0" type="curve"/>
      <point x="1176.0" y="1396.0" type="line"/>
      <point x="1186.0" y="1330.0"/>
      <point x="1188.0" y="1292.0"/>
      <point x="1188.0" y="1256.0" type="curve" smooth="yes"/>
      <point x="1188.0" y="1144.0"/>
      <point x="1118.0" y="1106.0"/>
      <point x="990.0" y="1106.0" type="curve" smooth="yes"/>
      <point x="928.0" y="1106.0"/>
      <point x="864.0" y="1118.0"/>
      <point x="752.0" y="1118.0" type="curve" smooth="yes"/>
      <point x="308.0" y="1118.0"/>
      <point x="66.0" y="906.0"/>
      <point x="66.0" y="550.0" type="curve" smooth="yes"/>
      <point x="66.0" y="194.0"/>
      <point x="330.0" y="-22.0"/>
    </contour>
    <contour>
      <point x="732.0" y="326.0" type="curve" smooth="yes"/>
      <point x="596.0" y="326.0"/>
      <point x="524.0" y="396.0"/>
      <point x="524.0" y="550.0" type="curve" smooth="yes"/>
      <point x="524.0" y="704.0"/>
      <point x="596.0" y="770.0"/>
      <point x="732.0" y="770.0" type="curve" smooth="yes"/>
      <point x="868.0" y="770.0"/>
      <point x="940.0" y="704.0"/>
      <point x="940.0" y="550.0" type="curve" smooth="yes"/>
      <point x="940.0" y="396.0"/>
      <point x="868.0" y="326.0"/>
    </contour>
    <contour>
      <point x="902.0" y="1240.0" type="curve" smooth="yes"/>
      <point x="996.0" y="1240.0"/>
      <point x="1064.0" y="1266.0"/>
      <point x="1128.0" y="1326.0" type="curve"/>
      <point x="1128.0" y="1588.0" type="line"/>
      <point x="1056.0" y="1522.0"/>
      <point x="994.0" y="1496.0"/>
      <point x="912.0" y="1496.0" type="curve" smooth="yes"/>
      <point x="794.0" y="1496.0"/>
      <point x="696.0" y="1598.0"/>
      <point x="562.0" y="1598.0" type="curve" smooth="yes"/>
      <point x="468.0" y="1598.0"/>
      <point x="400.0" y="1572.0"/>
      <point x="336.0" y="1512.0" type="curve"/>
      <point x="336.0" y="1250.0" type="line"/>
      <point x="410.0" y="1316.0"/>
      <point x="470.0" y="1342.0"/>
      <point x="552.0" y="1342.0" type="curve" smooth="yes"/>
      <point x="670.0" y="1342.0"/>
      <point x="768.0" y="1240.0"/>
    </contour>
  </outline>
</glyph>
<glyph name="ygrave" format="2">
  <advance width="1424.0"/>
  <unicode hex="1EF3"/>
  <anchor x="712.0" y="1200.0" name="_top"/>
  <anchor x="1206.0" y="0.0" name="bottom"/>
  <anchor x="712.0" y="1200.0" name="top"/>
  <outline>
    <contour>
      <point x="358.0" y="-440.0" type="line"/>
      <point x="810.0" y="-440.0" type="line"/>
      <point x="1438.0" y="1100.0" type="line"/>
      <point x="986.0" y="1100.0" type="line"/>
      <point x="718.0" y="370.0" type="line"/>
      <point x="540.0" y="0.0" type="line"/>
    </contour>
    <contour>
      <point x="432.0" y="0.0" type="line"/>
      <point x="878.0" y="0.0" type="line"/>
      <point x="474.0" y="1100.0" type="line"/>
      <point x="-14.0" y="1100.0" type="line"/>
    </contour>
    <contour>
      <point x="492.0" y="1220.0" type="line"/>
      <point x="932.0" y="1220.0" type="line"/>
      <point x="674.0" y="1616.0" type="line"/>
      <point x="166.0" y="1616.0" type="line"/>
    </contour>
  </outline>
</glyph>
<glyph name="yhookabove" format="2">
  <advance width="1424.0"/>
  <unicode hex="1EF7"/>
  <anchor x="712.0" y="1200.0" name="_top"/>
  <anchor x="1206.0" y="0.0" name="bottom"/>
  <anchor x="712.0" y="1200.0" name="top"/>
  <outline>
    <contour>
      <point x="358.0" y="-440.0" type="line"/>
      <point x="810.0" y="-440.0" type="line"/>
      <point x="1438.0" y="1100.0" type="line"/>
      <point x="986.0" y="1100.0" type="line"/>
      <point x="718.0" y="370.0" type="line"/>
      <point x="540.0" y="0.0" type="line"/>
    </contour>
    <contour>
      <point x="432.0" y="0.0" type="line"/>
      <point x="878.0" y="0.0" type="line"/>
      <point x="474.0" y="1100.0" type="line"/>
      <point x="-14.0" y="1100.0" type="line"/>
    </contour>
    <contour>
      <point x="604.0" y="1220.0" type="curve"/>
      <point x="820.0" y="1220.0" type="line"/>
      <point x="834.0" y="1328.0"/>
      <point x="992.0" y="1322.0"/>
      <point x="992.0" y="1466.0" type="curve" smooth="yes"/>
      <point x="992.0" y="1578.0"/>
      <point x="904.0" y="1628.0"/>
      <point x="706.0" y="1628.0" type="curve" smooth="yes"/>
      <point x="644.0" y="1628.0"/>
      <point x="546.0" y="1620.0"/>
      <point x="486.0" y="1602.0" type="curve"/>
      <point x="486.0" y="1448.0" type="line"/>
      <point x="560.0" y="1466.0"/>
      <point x="622.0" y="1472.0"/>
      <point x="672.0" y="1472.0" type="curve" smooth="yes"/>
      <point x="748.0" y="1472.0"/>
      <point x="768.0" y="1462.0"/>
      <point x="768.0" y="1438.0" type="curve" smooth="yes"/>
      <point x="768.0" y="1380.0"/>
      <point x="612.0" y="1368.0"/>
    </contour>
  </outline>
</glyph>
<glyph name="endash" format="2">
  <advance width="1000.0"/>
  <unicode hex="2013"/>
  <outline>
    <contour>
      <point x="0.0" y="410.0" type="line"/>
      <point x="1000.0" y="410.0" type="line"/>
      <point x="1000.0" y="730.0" type="line"/>
      <point x="0.0" y="730.0" type="line"/>
    </contour>
  </outline>
</glyph>
<glyph name="quoteright" format="2">
  <advance width="696.0"/>
  <unicode hex="2019"/>
  <outline>
    <contour>
      <point x="168.0" y="784.0" type="curve"/>
      <point x="426.0" y="784.0" type="line"/>
      <point x="554.0" y="926.0"/>
      <point x="634.0" y="1120.0"/>
      <point x="634.0" y="1304.0" type="curve" smooth="yes"/>
      <point x="634.0" y="1524.0"/>
      <point x="534.0" y="1636.0"/>
      <point x="342.0" y="1636.0" type="curve" smooth="yes"/>
      <point x="162.0" y="1636.0"/>
      <point x="58.0" y="1538.0"/>
      <point x="58.0" y="1380.0" type="curve" smooth="yes"/>
      <point x="58.0" y="1222.0"/>
      <point x="166.0" y="1124.0"/>
      <point x="348.0" y="1124.0" type="curve" smooth="yes"/>
      <point x="404.0" y="1124.0" type="line"/>
      <point x="300.0" y="1196.0" type="line"/>
      <point x="300.0" y="1062.0"/>
      <point x="252.0" y="938.0"/>
    </contour>
  </outline>
</glyph>
<glyph name="quotedblbase" format="2">
  <advance width="1332.0"/>
  <unicode hex="201E"/>
  <outline>
    <contour>
      <point x="168.0" y="-360.0" type="curve"/>
      <point x="426.0" y="-360.0" type="line"/>
      <point x="554.0" y="-218.0"/>
      <point x="634.0" y="-24.0"/>
      <point x="634.0" y="160.0" type="curve" smooth="yes"/>
      <point x="634.0" y="380.0"/>
      <point x="534.0" y="492.0"/>
      <point x="342.0" y="492.0" type="curve" smooth="yes"/>
      <point x="162.0" y="492.0"/>
      <point x="58.0" y="394.0"/>
      <point x="58.0" y="236.0" type="curve" smooth="yes"/>
      <point x="58.0" y="78.0"/>
      <point x="166.0" y="-20.0"/>
      <point x="348.0" y="-20.0" type="curve" smooth="yes"/>
      <point x="404.0" y="-20.0" type="line"/>
      <point x="300.0" y="52.0" type="line"/>
      <point x="300.0" y="-82.0"/>
      <point x="252.0" y="-206.0"/>
    </contour>
    <contour>
      <point x="804.0" y="-360.0" type="curve"/>
      <point x="1062.0" y="-360.0" type="line"/>
      <point x="1190.0" y="-218.0"/>
      <point x="1270.0" y="-24.0"/>
      <point x="1270.0" y="160.0" type="curve" smooth="yes"/>
      <point x="1270.0" y="380.0"/>
      <point x="1170.0" y="492.0"/>
      <point x="978.0" y="492.0" type="curve" smooth="yes"/>
      <point x="798.0" y="492.0"/>
      <point x="694.0" y="394.0"/>
      <point x="694.0" y="236.0" type="curve" smooth="yes"/>
      <point x="694.0" y="78.0"/>
      <point x="802.0" y="-20.0"/>
      <point x="984.0" y="-20.0" type="curve" smooth="yes"/>
      <point x="1040.0" y="-20.0" type="line"/>
      <point x="936.0" y="52.0" type="line"/>
      <point x="936.0" y="-82.0"/>
      <point x="888.0" y="-206.0"/>
    </contour>
  </outline>
</glyph>
<glyph name="daggerdbl" format="2">
  <advance width="1182.0"/>
  <unicode hex="2021"/>
  <outline>
    <contour>
      <point x="446.0" y="160.0" type="line"/>
      <point x="736.0" y="160.0" type="line"/>
      <point x="736.0" y="320.0" type="line"/>
      <point x="704.0" y="462.0" type="line"/>
      <point x="924.0" y="430.0" type="line"/>
      <point x="1124.0" y="430.0" type="line"/>
      <point x="1124.0" y="714.0" type="line"/>
      <point x="924.0" y="714.0" type="line"/>
      <point x="704.0" y="682.0" type="line"/>
      <point x="736.0" y="824.0" type="line"/>
      <point x="736.0" y="952.0" type="line"/>
      <point x="704.0" y="1094.0" type="line"/>
      <point x="924.0" y="1062.0" type="line"/>
      <point x="1124.0" y="1062.0" type="line"/>
      <point x="1124.0" y="1346.0" type="line"/>
      <point x="924.0" y="1346.0" type="line"/>
      <point x="704.0" y="1314.0" type="line"/>
      <point x="736.0" y="1456.0" type="line"/>
      <point x="736.0" y="1616.0" type="line"/>
      <point x="446.0" y="1616.0" type="line"/>
      <point x="446.0" y="1456.0" type="line"/>
      <point x="478.0" y="1314.0" type="line"/>
      <point x="258.0" y="1346.0" type="line"/>
      <point x="58.0" y="1346.0" type="line"/>
      <point x="58.0" y="1062.0" type="line"/>
      <point x="258.0" y="1062.0" type="line"/>
      <point x="478.0" y="1094.0" type="line"/>
      <point x="446.0" y="952.0" type="line"/>
      <point x="446.0" y="824.0" type="line"/>
      <point x="478.0" y="682.0" type="line"/>
      <point x="258.0" y="714.0" type="line"/>
      <point x="58.0" y="714.0" type="line"/>
      <point x="58.0" y="430.0" type="line"/>
      <point x="258.0" y="430.0" type="line"/>
      <point x="478.0" y="462.0" type="line"/>
      <point x="446.0" y="320.0" type="line"/>
    </contour>
  </outline>
</glyph>
<glyph name="bullet" format="2">
  <advance width="836.0"/>
  <unicode hex="2022"/>
  <outline>
    <contour>
      <point x="418.0" y="200.0" type="curve" smooth="yes"/>
      <point x="620.0" y="200.0"/>
      <point x="778.0" y="352.0"/>
      <point x="778.0" y="560.0" type="curve" smooth="yes"/>
      <point x="778.0" y="770.0"/>
      <point x="620.0" y="920.0"/>
      <point x="418.0" y="920.0" type="curve" smooth="yes"/>
      <point x="216.0" y="920.0"/>
      <point x="58.0" y="770.0"/>
      <point x="58.0" y="560.0" type="curve" smooth="yes"/>
      <point x="58.0" y="352.0"/>
      <point x="216.0" y="200.0"/>
    </contour>
  </outline>
</glyph>
<glyph name="perthousand" format="2">
  <advance width="3562.0"/>
  <unicode hex="2030"/>
  <outline>
    <contour>
      <point x="2988.0" y="-18.0" type="curve" smooth="yes"/>
      <point x="3274.0" y="-18.0"/>
      <point x="3472.0" y="156.0"/>
      <point x="3472.0" y="448.0" type="curve" smooth="yes"/>
      <point x="3472.0" y="740.0"/>
      <point x="3274.0" y="916.0"/>
      <point x="2988.0" y="916.0" type="curve" smooth="yes"/>
      <point x="2702.0" y="916.0"/>
      <point x="2504.0" y="740.0"/>
      <point x="2504.0" y="448.0" type="curve" smooth="yes"/>
      <point x="2504.0" y="156.0"/>
      <point x="2702.0" y="-18.0"/>
    </contour>
    <contour>
      <point x="2988.0" y="254.0" type="curve" smooth="yes"/>
      <point x="2912.0" y="254.0"/>
      <point x="2854.0" y="310.0"/>
      <point x="2854.0" y="448.0" type="curve" smooth="yes"/>
      <point x="2854.0" y="586.0"/>
      <point x="2912.0" y="644.0"/>
      <point x="2988.0" y="644.0" type="curve" smooth="yes"/>
      <point x="3064.0" y="644.0"/>
      <point x="3122.0" y="586.0"/>
      <point x="3122.0" y="448.0" type="curve" smooth="yes"/>
      <point x="3122.0" y="310.0"/>
      <point x="3064.0" y="254.0"/>
    </contour>
    <component base="percent"/>
  </outline>
</glyph>
<glyph name="guilsinglleft" format="2">
  <advance width="882.0"/>
  <unicode hex="2039"/>
  <outline>
    <contour>
      <point x="370.0" y="130.0" type="line"/>
      <point x="850.0" y="130.0" type="line"/>
      <point x="552.0" y="570.0" type="line"/>
      <point x="850.0" y="1010.0" type="line"/>
      <point x="370.0" y="1010.0" type="line"/>
      <point x="72.0" y="570.0" type="line"/>
    </contour>
  </outline>
</glyph>
<glyph name="fraction" format="2">
  <advance width="516.0"/>
  <unicode hex="2044"/>
  <outline>
    <contour>
      <point x="-380.0" y="-136.0" type="line"/>
      <point x="2.0" y="-136.0" type="line"/>
      <point x="896.0" y="1616.0" type="line"/>
      <point x="514.0" y="1616.0" type="line"/>
    </contour>
  </outline>
</glyph>
<glyph name="threeinferior" format="2">
  <advance width="980.0"/>
  <unicode hex="2083"/>
  <outline>
    <contour>
      <point x="400.0" y="602.0" type="curve" smooth="yes"/>
      <point x="752.0" y="602.0"/>
      <point x="890.0" y="722.0"/>
      <point x="890.0" y="904.0" type="curve" smooth="yes"/>
      <point x="890.0" y="1042.0"/>
      <point x="806.0" y="1112.0"/>
      <point x="686.0" y="1134.0" type="curve"/>
      <point x="686.0" y="1128.0" type="line"/>
      <point x="788.0" y="1152.0"/>
      <point x="852.0" y="1234.0"/>
      <point x="852.0" y="1338.0" type="curve" smooth="yes"/>
      <point x="852.0" y="1524.0"/>
      <point x="708.0" y="1630.0"/>
      <point x="384.0" y="1630.0" type="curve" smooth="yes"/>
      <point x="280.0" y="1630.0"/>
      <point x="148.0" y="1612.0"/>
      <point x="76.0" y="1590.0" type="curve"/>
      <point x="76.0" y="1344.0" type="line"/>
      <point x="152.0" y="1370.0"/>
      <point x="266.0" y="1388.0"/>
      <point x="348.0" y="1388.0" type="curve" smooth="yes"/>
      <point x="466.0" y="1388.0"/>
      <point x="504.0" y="1358.0"/>
      <point x="504.0" y="1312.0" type="curve" smooth="yes"/>
      <point x="504.0" y="1276.0"/>
      <point x="480.0" y="1248.0"/>
      <point x="376.0" y="1248.0" type="curve" smooth="yes"/>
      <point x="156.0" y="1248.0" type="line"/>
      <point x="156.0" y="1004.0" type="line"/>
      <point x="396.0" y="1004.0" type="line" smooth="yes"/>
      <point x="518.0" y="1004.0"/>
      <point x="552.0" y="976.0"/>
      <point x="552.0" y="926.0" type="curve" smooth="yes"/>
      <point x="552.0" y="876.0"/>
      <point x="508.0" y="846.0"/>
      <point x="378.0" y="846.0" type="curve" smooth="yes"/>
      <point x="282.0" y="846.0"/>
      <point x="164.0" y="860.0"/>
      <point x="62.0" y="884.0" type="curve"/>
      <point x="62.0" y="638.0" type="line"/>
      <point x="166.0" y="614.0"/>
      <point x="278.0" y="602.0"/>
    </contour>
  </outline>
</glyph>
<glyph name="sixinferior" format="2">
  <advance width="980.0"/>
  <unicode hex="2086"/>
  <outline>
    <contour>
      <point x="526.0" y="602.0" type="curve" smooth="yes"/>
      <point x="798.0" y="602.0"/>
      <point x="946.0" y="740.0"/>
      <point x="946.0" y="930.0" type="curve" smooth="yes"/>
      <point x="946.0" y="1152.0"/>
      <point x="794.0" y="1246.0"/>
      <point x="604.0" y="1246.0" type="curve" smooth="yes"/>
      <point x="508.0" y="1246.0"/>
      <point x="412.0" y="1218.0"/>
      <point x="362.0" y="1178.0" type="curve"/>
      <point x="362.0" y="966.0" type="line"/>
      <point x="416.0" y="998.0"/>
      <point x="462.0" y="1016.0"/>
      <point x="522.0" y="1016.0" type="curve" smooth="yes"/>
      <point x="578.0" y="1016.0"/>
      <point x="618.0" y="988.0"/>
      <point x="618.0" y="922.0" type="curve" smooth="yes"/>
      <point x="618.0" y="864.0"/>
      <point x="586.0" y="832.0"/>
      <point x="526.0" y="832.0" type="curve" smooth="yes"/>
      <point x="456.0" y="832.0"/>
      <point x="412.0" y="874.0"/>
      <point x="412.0" y="1026.0" type="curve" smooth="yes"/>
      <point x="412.0" y="1182.0" type="line" smooth="yes"/>
      <point x="412.0" y="1298.0"/>
      <point x="482.0" y="1380.0"/>
      <point x="654.0" y="1380.0" type="curve" smooth="yes"/>
      <point x="728.0" y="1380.0"/>
      <point x="812.0" y="1366.0"/>
      <point x="880.0" y="1340.0" type="curve"/>
      <point x="880.0" y="1592.0" type="line"/>
      <point x="802.0" y="1620.0"/>
      <point x="724.0" y="1630.0"/>
      <point x="628.0" y="1630.0" type="curve" smooth="yes"/>
      <point x="264.0" y="1630.0"/>
      <point x="60.0" y="1424.0"/>
      <point x="60.0" y="1076.0" type="curve" smooth="yes"/>
      <point x="60.0" y="758.0"/>
      <point x="256.0" y="602.0"/>
    </contour>
  </outline>
</glyph>
<glyph name="franc" format="2">
  <advance width="1624.0"/>
  <unicode hex="20A3"/>
  <outline>
    <contour>
      <point x="280.0" y="0.0" type="line"/>
      <point x="756.0" y="0.0" type="line"/>
      <point x="756.0" y="1120.0" type="line"/>
      <point x="1552.0" y="1120.0" type="line"/>
      <point x="1552.0" y="1480.0" type="line"/>
      <point x="280.0" y="1480.0" type="line"/>
    </contour>
    <contour>
      <point x="80.0" y="150.0" type="line"/>
      <point x="1096.0" y="150.0" type="line"/>
      <point x="1096.0" y="470.0" type="line"/>
      <point x="80.0" y="470.0" type="line"/>
    </contour>
    <contour>
      <point x="540.0" y="606.0" type="line"/>
      <point x="1440.0" y="606.0" type="line"/>
      <point x="1440.0" y="966.0" type="line"/>
      <point x="540.0" y="966.0" type="line"/>
    </contour>
  </outline>
</glyph>
<glyph name="peseta" format="2">
  <advance width="3536.0"/>
  <unicode hex="20A7"/>
  <outline>
    <contour>
      <point x="130.0" y="0.0" type="line"/>
      <point x="606.0" y="0.0" type="line"/>
      <point x="606.0" y="390.0" type="line"/>
      <point x="644.0" y="390.0"/>
      <point x="688.0" y="388.0"/>
      <point x="730.0" y="388.0" type="curve" smooth="yes"/>
      <point x="1202.0" y="388.0"/>
      <point x="1450.0" y="574.0"/>
      <point x="1450.0" y="944.0" type="curve" smooth="yes"/>
      <point x="1450.0" y="1330.0"/>
      <point x="1196.0" y="1500.0"/>
      <point x="676.0" y="1500.0" type="curve" smooth="yes"/>
      <point x="472.0" y="1500.0"/>
      <point x="294.0" y="1480.0"/>
      <point x="130.0" y="1450.0" type="curve"/>
    </contour>
    <contour>
      <point x="734.0" y="714.0" type="curve" smooth="yes"/>
      <point x="686.0" y="714.0"/>
      <point x="652.0" y="716.0"/>
      <point x="606.0" y="722.0" type="curve"/>
      <point x="606.0" y="1166.0" type="line"/>
      <point x="644.0" y="1172.0"/>
      <point x="678.0" y="1174.0"/>
      <point x="722.0" y="1174.0" type="curve" smooth="yes"/>
      <point x="910.0" y="1174.0"/>
      <point x="992.0" y="1106.0"/>
      <point x="992.0" y="944.0" type="curve" smooth="yes"/>
      <point x="992.0" y="772.0"/>
      <point x="910.0" y="714.0"/>
    </contour>
    <contour>
      <point x="2078.0" y="-22.0" type="curve" smooth="yes"/>
      <point x="2162.0" y="-22.0"/>
      <point x="2264.0" y="-8.0"/>
      <point x="2330.0" y="6.0" type="curve"/>
      <point x="2330.0" y="354.0" type="line"/>
      <point x="2284.0" y="346.0"/>
      <point x="2250.0" y="342.0"/>
      <point x="2216.0" y="342.0" type="curve" smooth="yes"/>
      <point x="2098.0" y="342.0"/>
      <point x="2054.0" y="380.0"/>
      <point x="2054.0" y="512.0" type="curve" smooth="yes"/>
      <point x="2054.0" y="1480.0" type="line"/>
      <point x="1676.0" y="1480.0" type="line"/>
      <point x="1590.0" y="1100.0" type="line"/>
      <point x="1590.0" y="424.0" type="line" smooth="yes"/>
      <point x="1590.0" y="126.0"/>
      <point x="1758.0" y="-22.0"/>
    </contour>
    <contour>
      <point x="1410.0" y="740.0" type="line"/>
      <point x="2310.0" y="740.0" type="line"/>
      <point x="2310.0" y="1100.0" type="line"/>
      <point x="1410.0" y="1100.0" type="line"/>
    </contour>
    <contour>
      <point x="2838.0" y="-22.0" type="curve" smooth="yes"/>
      <point x="3266.0" y="-22.0"/>
      <point x="3482.0" y="120.0"/>
      <point x="3482.0" y="356.0" type="curve" smooth="yes"/>
      <point x="3482.0" y="584.0"/>
      <point x="3348.0" y="664.0"/>
      <point x="3124.0" y="692.0" type="curve" smooth="yes"/>
      <point x="2888.0" y="722.0" type="line" smooth="yes"/>
      <point x="2838.0" y="728.0"/>
      <point x="2826.0" y="738.0"/>
      <point x="2826.0" y="756.0" type="curve" smooth="yes"/>
      <point x="2826.0" y="784.0"/>
      <point x="2854.0" y="814.0"/>
      <point x="3082.0" y="814.0" type="curve" smooth="yes"/>
      <point x="3204.0" y="814.0"/>
      <point x="3328.0" y="800.0"/>
      <point x="3420.0" y="780.0" type="curve"/>
      <point x="3420.0" y="1086.0" type="line"/>
      <point x="3328.0" y="1106.0"/>
      <point x="3198.0" y="1118.0"/>
      <point x="3086.0" y="1118.0" type="curve" smooth="yes"/>
      <point x="2592.0" y="1118.0"/>
      <point x="2390.0" y="970.0"/>
      <point x="2390.0" y="736.0" type="curve" smooth="yes"/>
      <point x="2390.0" y="552.0"/>
      <point x="2484.0" y="438.0"/>
      <point x="2750.0" y="404.0" type="curve" smooth="yes"/>
      <point x="2986.0" y="374.0" type="line" smooth="yes"/>
      <point x="3036.0" y="368.0"/>
      <point x="3046.0" y="358.0"/>
      <point x="3046.0" y="336.0" type="curve" smooth="yes"/>
      <point x="3046.0" y="302.0"/>
      <point x="3006.0" y="282.0"/>
      <point x="2830.0" y="282.0" type="curve" smooth="yes"/>
      <point x="2714.0" y="282.0"/>
      <point x="2546.0" y="300.0"/>
      <point x="2420.0" y="330.0" type="curve"/>
      <point x="2420.0" y="24.0" type="line"/>
      <point x="2546.0" y="-6.0"/>
      <point x="2714.0" y="-22.0"/>
    </contour>
  </outline>
</glyph>
<glyph name="won" format="2">
  <advance width="3000.0"/>
  <unicode hex="20A9"/>
  <outline>
    <contour>
      <point x="592.0" y="0.0" type="line"/>
      <point x="1192.0" y="0.0" type="line"/>
      <point x="1572.0" y="1236.0" type="line"/>
      <point x="1442.0" y="1236.0" type="line"/>
      <point x="1808.0" y="0.0" type="line"/>
      <point x="2408.0" y="0.0" type="line"/>
      <point x="2850.0" y="1480.0" type="line"/>
      <point x="2398.0" y="1480.0" type="line"/>
      <point x="2042.0" y="236.0" type="line"/>
      <point x="2134.0" y="236.0" type="line"/>
      <point x="1772.0" y="1480.0" type="line"/>
      <point x="1252.0" y="1480.0" type="line"/>
      <point x="872.0" y="236.0" type="line"/>
      <point x="978.0" y="236.0" type="line"/>
      <point x="630.0" y="1480.0" type="line"/>
      <point x="150.0" y="1480.0" type="line"/>
    </contour>
    <contour>
      <point x="80.0" y="448.0" type="line"/>
      <point x="658.0" y="448.0" type="line"/>
      <point x="658.0" y="698.0" type="line"/>
      <point x="80.0" y="698.0" type="line"/>
    </contour>
    <contour>
      <point x="80.0" y="802.0" type="line"/>
      <point x="458.0" y="802.0" type="line"/>
      <point x="458.0" y="1052.0" type="line"/>
      <point x="80.0" y="1052.0" type="line"/>
    </contour>
    <contour>
      <point x="2342.0" y="448.0" type="line"/>
      <point x="2920.0" y="448.0" type="line"/>
      <point x="2920.0" y="698.0" type="line"/>
      <point x="2342.0" y="698.0" type="line"/>
    </contour>
    <contour>
      <point x="2542.0" y="802.0" type="line"/>
      <point x="2920.0" y="802.0" type="line"/>
      <point x="2920.0" y="1052.0" type="line"/>
      <point x="2542.0" y="1052.0" type="line"/>
    </contour>
  </outline>
</glyph>
<glyph name="euro" format="2">
  <advance width="1684.0"/>
  <unicode hex="20AC"/>
  <outline>
    <contour>
      <point x="1244.0" y="-20.0" type="curve" smooth="yes"/>
      <point x="1372.0" y="-20.0"/>
      <point x="1504.0" y="-4.0"/>
      <point x="1612.0" y="20.0" type="curve"/>
      <point x="1612.0" y="376.0" type="line"/>
      <point x="1514.0" y="356.0"/>
      <point x="1398.0" y="340.0"/>
      <point x="1274.0" y="340.0" type="curve" smooth="yes"/>
      <point x="914.0" y="340.0"/>
      <point x="766.0" y="476.0"/>
      <point x="766.0" y="740.0" type="curve" smooth="yes"/>
      <point x="766.0" y="1004.0"/>
      <point x="914.0" y="1140.0"/>
      <point x="1294.0" y="1140.0" type="curve" smooth="yes"/>
      <point x="1410.0" y="1140.0"/>
      <point x="1514.0" y="1130.0"/>
      <point x="1612.0" y="1112.0" type="curve"/>
      <point x="1612.0" y="1468.0" type="line"/>
      <point x="1498.0" y="1490.0"/>
      <point x="1380.0" y="1500.0"/>
      <point x="1254.0" y="1500.0" type="curve" smooth="yes"/>
      <point x="630.0" y="1500.0"/>
      <point x="280.0" y="1202.0"/>
      <point x="280.0" y="736.0" type="curve" smooth="yes"/>
      <point x="280.0" y="242.0"/>
      <point x="624.0" y="-20.0"/>
    </contour>
    <contour>
      <point x="80.0" y="448.0" type="line"/>
      <point x="1372.0" y="448.0" type="line"/>
      <point x="1372.0" y="698.0" type="line"/>
      <point x="80.0" y="698.0" type="line"/>
    </contour>
    <contour>
      <point x="80.0" y="802.0" type="line"/>
      <point x="1372.0" y="802.0" type="line"/>
      <point x="1372.0" y="1052.0" type="line"/>
      <point x="80.0" y="1052.0" type="line"/>
    </contour>
  </outline>
</glyph>
<glyph name="guarani" format="2">
  <advance width="1678.0"/>
  <unicode hex="20B2"/>
  <outline>
    <contour>
      <point x="1096.0" y="-20.0" type="curve" smooth="yes"/>
      <point x="1248.0" y="-20.0"/>
      <point x="1394.0" y="-4.0"/>
      <point x="1540.0" y="20.0" type="curve"/>
      <point x="1540.0" y="720.0" type="line"/>
      <point x="1098.0" y="720.0" type="line"/>
      <point x="1098.0" y="154.0" type="line"/>
      <point x="1356.0" y="376.0" type="line"/>
      <point x="1270.0" y="364.0"/>
      <point x="1160.0" y="356.0"/>
      <point x="1068.0" y="356.0" type="curve" smooth="yes"/>
      <point x="724.0" y="356.0"/>
      <point x="578.0" y="496.0"/>
      <point x="578.0" y="724.0" type="curve" smooth="yes"/>
      <point x="578.0" y="982.0"/>
      <point x="730.0" y="1118.0"/>
      <point x="1156.0" y="1120.0" type="curve" smooth="yes"/>
      <point x="1270.0" y="1120.0"/>
      <point x="1384.0" y="1110.0"/>
      <point x="1482.0" y="1092.0" type="curve"/>
      <point x="1482.0" y="1468.0" type="line"/>
      <point x="1366.0" y="1490.0"/>
      <point x="1230.0" y="1500.0"/>
      <point x="1120.0" y="1500.0" type="curve" smooth="yes"/>
      <point x="418.0" y="1500.0"/>
      <point x="84.0" y="1202.0"/>
      <point x="84.0" y="732.0" type="curve" smooth="yes"/>
      <point x="84.0" y="242.0"/>
      <point x="408.0" y="-20.0"/>
    </contour>
    <contour>
      <point x="742.0" y="-240.0" type="line"/>
      <point x="1182.0" y="-240.0" type="line"/>
      <point x="1182.0" y="60.0" type="line"/>
      <point x="742.0" y="60.0" type="line"/>
    </contour>
    <contour>
      <point x="742.0" y="1420.0" type="line"/>
      <point x="1182.0" y="1420.0" type="line"/>
      <point x="1182.0" y="1720.0" type="line"/>
      <point x="742.0" y="1720.0" type="line"/>
    </contour>
  </outline>
</glyph>
<glyph name="cedi" format="2">
  <advance width="1488.0"/>
  <unicode hex="20B5"/>
  <outline>
    <contour>
      <point x="1048.0" y="-20.0" type="curve" smooth="yes"/>
      <point x="1176.0" y="-20.0"/>
      <point x="1308.0" y="-4.0"/>
      <point x="1416.0" y="20.0" type="curve"/>
      <point x="1416.0" y="396.0" type="line"/>
      <point x="1318.0" y="376.0"/>
      <point x="1202.0" y="360.0"/>
      <point x="1078.0" y="360.0" type="curve" smooth="yes"/>
      <point x="728.0" y="360.0"/>
      <point x="582.0" y="496.0"/>
      <point x="582.0" y="740.0" type="curve" smooth="yes"/>
      <point x="582.0" y="984.0"/>
      <point x="728.0" y="1120.0"/>
      <point x="1098.0" y="1120.0" type="curve" smooth="yes"/>
      <point x="1214.0" y="1120.0"/>
      <point x="1318.0" y="1110.0"/>
      <point x="1416.0" y="1092.0" type="curve"/>
      <point x="1416.0" y="1468.0" type="line"/>
      <point x="1302.0" y="1490.0"/>
      <point x="1184.0" y="1500.0"/>
      <point x="1058.0" y="1500.0" type="curve" smooth="yes"/>
      <point x="414.0" y="1500.0"/>
      <point x="84.0" y="1202.0"/>
      <point x="84.0" y="736.0" type="curve" smooth="yes"/>
      <point x="84.0" y="242.0"/>
      <point x="408.0" y="-20.0"/>
    </contour>
    <contour>
      <point x="710.0" y="-240.0" type="line"/>
      <point x="1150.0" y="-240.0" type="line"/>
      <point x="1150.0" y="60.0" type="line"/>
      <point x="710.0" y="60.0" type="line"/>
    </contour>
    <contour>
      <point x="710.0" y="1420.0" type="line"/>
      <point x="1150.0" y="1420.0" type="line"/>
      <point x="1150.0" y="1720.0" type="line"/>
      <point x="710.0" y="1720.0" type="line"/>
    </contour>
  </outline>
</glyph>
<glyph name="rupeeIndian" format="2">
  <advance width="1298.0"/>
  <unicode hex="20B9"/>
  <outline>
    <contour>
      <point x="370.0" y="476.0" type="curve" smooth="yes"/>
      <point x="816.0" y="476.0"/>
      <point x="1068.0" y="654.0"/>
      <point x="1068.0" y="952.0" type="curve" smooth="yes"/>
      <point x="1068.0" y="1214.0"/>
      <point x="864.0" y="1380.0"/>
      <point x="338.0" y="1380.0" type="curve"/>
      <point x="338.0" y="1226.0" type="line"/>
      <point x="546.0" y="1226.0"/>
      <point x="638.0" y="1176.0"/>
      <point x="638.0" y="1006.0" type="curve" smooth="yes"/>
      <point x="638.0" y="828.0"/>
      <point x="546.0" y="770.0"/>
      <point x="344.0" y="770.0" type="curve" smooth="yes"/>
      <point x="234.0" y="770.0"/>
      <point x="166.0" y="774.0"/>
      <point x="80.0" y="780.0" type="curve"/>
      <point x="80.0" y="492.0" type="line"/>
      <point x="170.0" y="484.0"/>
      <point x="262.0" y="476.0"/>
    </contour>
    <contour>
      <point x="714.0" y="0.0" type="line"/>
      <point x="1246.0" y="0.0" type="line"/>
      <point x="682.0" y="672.0" type="line"/>
      <point x="228.0" y="588.0" type="line"/>
    </contour>
    <contour>
      <point x="80.0" y="872.0" type="line"/>
      <point x="1268.0" y="872.0" type="line"/>
      <point x="1268.0" y="1122.0" type="line"/>
      <point x="80.0" y="1122.0" type="line"/>
    </contour>
    <contour>
      <point x="80.0" y="1226.0" type="line"/>
      <point x="1268.0" y="1226.0" type="line"/>
      <point x="1268.0" y="1480.0" type="line"/>
      <point x="80.0" y="1480.0" type="line"/>
    </contour>
  </outline>
</glyph>
<glyph name="manat" format="2">
  <advance width="1792.0"/>
  <unicode hex="20BC"/>
  <outline>
    <contour>
      <point x="112.0" y="0.0" type="curve"/>
      <point x="558.0" y="0.0" type="line"/>
      <point x="558.0" y="1066.0"/>
      <point x="650.0" y="1136.0"/>
      <point x="898.0" y="1136.0" type="curve" smooth="yes"/>
      <point x="1144.0" y="1136.0"/>
      <point x="1234.0" y="1066.0"/>
      <point x="1234.0" y="0.0" type="curve"/>
      <point x="1680.0" y="0.0" type="line"/>
      <point x="1680.0" y="1106.0"/>
      <point x="1504.0" y="1500.0"/>
      <point x="898.0" y="1500.0" type="curve" smooth="yes"/>
      <point x="290.0" y="1500.0"/>
      <point x="112.0" y="1106.0"/>
    </contour>
    <contour>
      <point x="738.0" y="490.0" type="line"/>
      <point x="1058.0" y="490.0" type="line"/>
      <point x="1058.0" y="1288.0" type="line"/>
      <point x="1118.0" y="1414.0" type="line"/>
      <point x="1118.0" y="1720.0" type="line"/>
      <point x="678.0" y="1720.0" type="line"/>
      <point x="678.0" y="1414.0" type="line"/>
      <point x="738.0" y="1288.0" type="line"/>
    </contour>
  </outline>
</glyph>
<glyph name="literSign" format="2">
  <advance width="942.0"/>
  <unicode hex="2113"/>
  <outline>
    <contour>
      <point x="568.0" y="-34.0" type="curve" smooth="yes"/>
      <point x="696.0" y="-34.0"/>
      <point x="808.0" y="12.0"/>
      <point x="902.0" y="102.0" type="curve"/>
      <point x="824.0" y="240.0" type="line"/>
      <point x="754.0" y="194.0"/>
      <point x="704.0" y="170.0"/>
      <point x="648.0" y="170.0" type="curve" smooth="yes"/>
      <point x="580.0" y="170.0"/>
      <point x="544.0" y="210.0"/>
      <point x="544.0" y="306.0" type="curve" smooth="yes"/>
      <point x="544.0" y="1164.0" type="line" smooth="yes"/>
      <point x="544.0" y="1240.0"/>
      <point x="572.0" y="1282.0"/>
      <point x="628.0" y="1282.0" type="curve" smooth="yes"/>
      <point x="670.0" y="1282.0"/>
      <point x="694.0" y="1252.0"/>
      <point x="694.0" y="1196.0" type="curve" smooth="yes"/>
      <point x="694.0" y="994.0"/>
      <point x="526.0" y="814.0"/>
      <point x="20.0" y="476.0" type="curve"/>
      <point x="110.0" y="344.0" type="line"/>
      <point x="690.0" y="730.0"/>
      <point x="876.0" y="964.0"/>
      <point x="876.0" y="1236.0" type="curve" smooth="yes"/>
      <point x="876.0" y="1404.0"/>
      <point x="772.0" y="1500.0"/>
      <point x="594.0" y="1500.0" type="curve" smooth="yes"/>
      <point x="368.0" y="1500.0"/>
      <point x="238.0" y="1378.0"/>
      <point x="238.0" y="1164.0" type="curve" smooth="yes"/>
      <point x="238.0" y="254.0" type="line" smooth="yes"/>
      <point x="238.0" y="62.0"/>
      <point x="356.0" y="-34.0"/>
    </contour>
  </outline>
</glyph>
<glyph name="estimated" format="2">
  <advance width="1562.0"/>
  <unicode hex="212E"/>
  <outline>
    <contour>
      <point x="780.0" y="-18.0" type="curve" smooth="yes"/>
      <point x="1032.0" y="-18.0"/>
      <point x="1220.0" y="82.0"/>
      <point x="1404.0" y="352.0" type="curve"/>
      <point x="1348.0" y="390.0" type="line"/>
      <point x="1178.0" y="140.0"/>
      <point x="1008.0" y="46.0"/>
      <point x="780.0" y="46.0" type="curve" smooth="yes"/>
      <point x="624.0" y="46.0"/>
      <point x="498.0" y="96.0"/>
      <point x="394.0" y="198.0" type="curve"/>
      <point x="394.0" y="738.0" type="line"/>
      <point x="1478.0" y="738.0" type="line"/>
      <point x="1456.0" y="1204.0"/>
      <point x="1184.0" y="1498.0"/>
      <point x="780.0" y="1498.0" type="curve" smooth="yes"/>
      <point x="370.0" y="1498.0"/>
      <point x="84.0" y="1186.0"/>
      <point x="84.0" y="738.0" type="curve" smooth="yes"/>
      <point x="84.0" y="306.0"/>
      <point x="382.0" y="-18.0"/>
    </contour>
    <contour>
      <point x="394.0" y="802.0" type="line"/>
      <point x="394.0" y="1280.0" type="line"/>
      <point x="478.0" y="1380.0"/>
      <point x="624.0" y="1434.0"/>
      <point x="778.0" y="1434.0" type="curve" smooth="yes"/>
      <point x="926.0" y="1434.0"/>
      <point x="1074.0" y="1380.0"/>
      <point x="1168.0" y="1280.0" type="curve"/>
      <point x="1168.0" y="802.0" type="line"/>
    </contour>
  </outline>
</glyph>
<glyph name="seveneighths" format="2">
  <advance width="2476.0"/>
  <unicode hex="215E"/>
  <outline>
    <contour>
      <point x="208.0" y="616.0" type="line"/>
      <point x="584.0" y="616.0" type="line"/>
      <point x="900.0" y="1436.0" type="line"/>
      <point x="900.0" y="1616.0" type="line"/>
      <point x="56.0" y="1616.0" type="line"/>
      <point x="56.0" y="1342.0" type="line"/>
      <point x="674.0" y="1342.0" type="line"/>
      <point x="544.0" y="1436.0" type="line"/>
    </contour>
    <contour>
      <point x="600.0" y="-136.0" type="line"/>
      <point x="982.0" y="-136.0" type="line"/>
      <point x="1876.0" y="1616.0" type="line"/>
      <point x="1494.0" y="1616.0" type="line"/>
    </contour>
    <contour>
      <point x="1990.0" y="-150.0" type="curve" smooth="yes"/>
      <point x="2322.0" y="-150.0"/>
      <point x="2446.0" y="-2.0"/>
      <point x="2446.0" y="160.0" type="curve" smooth="yes"/>
      <point x="2446.0" y="306.0"/>
      <point x="2374.0" y="410.0"/>
      <point x="2092.0" y="478.0" type="curve" smooth="yes"/>
      <point x="1908.0" y="526.0"/>
      <point x="1888.0" y="552.0"/>
      <point x="1888.0" y="594.0" type="curve" smooth="yes"/>
      <point x="1888.0" y="624.0"/>
      <point x="1914.0" y="658.0"/>
      <point x="2006.0" y="658.0" type="curve" smooth="yes"/>
      <point x="2082.0" y="658.0"/>
      <point x="2112.0" y="630.0"/>
      <point x="2112.0" y="584.0" type="curve" smooth="yes"/>
      <point x="2112.0" y="544.0"/>
      <point x="2084.0" y="500.0"/>
      <point x="2008.0" y="458.0" type="curve"/>
      <point x="2216.0" y="388.0" type="line"/>
      <point x="2378.0" y="438.0"/>
      <point x="2422.0" y="530.0"/>
      <point x="2422.0" y="628.0" type="curve" smooth="yes"/>
      <point x="2422.0" y="786.0"/>
      <point x="2278.0" y="878.0"/>
      <point x="2016.0" y="878.0" type="curve" smooth="yes"/>
      <point x="1690.0" y="878.0"/>
      <point x="1554.0" y="750.0"/>
      <point x="1554.0" y="582.0" type="curve" smooth="yes"/>
      <point x="1554.0" y="436.0"/>
      <point x="1636.0" y="314.0"/>
      <point x="1912.0" y="254.0" type="curve" smooth="yes"/>
      <point x="2084.0" y="216.0"/>
      <point x="2112.0" y="188.0"/>
      <point x="2112.0" y="142.0" type="curve" smooth="yes"/>
      <point x="2112.0" y="100.0"/>
      <point x="2082.0" y="70.0"/>
      <point x="1992.0" y="70.0" type="curve" smooth="yes"/>
      <point x="1902.0" y="70.0"/>
      <point x="1864.0" y="102.0"/>
      <point x="1864.0" y="156.0" type="curve" smooth="yes"/>
      <point x="1864.0" y="196.0"/>
      <point x="1890.0" y="246.0"/>
      <point x="1986.0" y="280.0" type="curve"/>
      <point x="1754.0" y="346.0" type="line"/>
      <point x="1608.0" y="310.0"/>
      <point x="1530.0" y="224.0"/>
      <point x="1530.0" y="110.0" type="curve" smooth="yes"/>
      <point x="1530.0" y="-30.0"/>
      <point x="1652.0" y="-150.0"/>
    </contour>
  </outline>
</glyph>
<glyph name="partialdiff" format="2">
  <advance width="1472.0"/>
  <unicode hex="2202"/>
  <outline>
    <contour>
      <point x="678.0" y="-20.0" type="curve" smooth="yes"/>
      <point x="1090.0" y="-20.0"/>
      <point x="1368.0" y="218.0"/>
      <point x="1368.0" y="682.0" type="curve" smooth="yes"/>
      <point x="1368.0" y="1200.0"/>
      <point x="1082.0" y="1500.0"/>
      <point x="530.0" y="1500.0" type="curve" smooth="yes"/>
      <point x="384.0" y="1500.0"/>
      <point x="266.0" y="1486.0"/>
      <point x="150.0" y="1444.0" type="curve"/>
      <point x="150.0" y="1106.0" type="line"/>
      <point x="254.0" y="1144.0"/>
      <point x="382.0" y="1164.0"/>
      <point x="496.0" y="1164.0" type="curve" smooth="yes"/>
      <point x="788.0" y="1164.0"/>
      <point x="912.0" y="1028.0"/>
      <point x="912.0" y="822.0" type="curve" smooth="yes"/>
      <point x="912.0" y="616.0" type="line" smooth="yes"/>
      <point x="912.0" y="370.0"/>
      <point x="824.0" y="296.0"/>
      <point x="678.0" y="296.0" type="curve" smooth="yes"/>
      <point x="556.0" y="296.0"/>
      <point x="486.0" y="350.0"/>
      <point x="486.0" y="488.0" type="curve" smooth="yes"/>
      <point x="486.0" y="636.0"/>
      <point x="564.0" y="684.0"/>
      <point x="694.0" y="684.0" type="curve" smooth="yes"/>
      <point x="796.0" y="684.0"/>
      <point x="892.0" y="656.0"/>
      <point x="976.0" y="604.0" type="curve"/>
      <point x="976.0" y="898.0" type="line"/>
      <point x="894.0" y="960.0"/>
      <point x="740.0" y="1000.0"/>
      <point x="596.0" y="1000.0" type="curve" smooth="yes"/>
      <point x="280.0" y="1000.0"/>
      <point x="62.0" y="862.0"/>
      <point x="62.0" y="498.0" type="curve" smooth="yes"/>
      <point x="62.0" y="178.0"/>
      <point x="276.0" y="-20.0"/>
    </contour>
  </outline>
</glyph>
<glyph name="product" format="2">
  <advance width="1676.0"/>
  <unicode hex="220F"/>
  <outline>
    <contour>
      <point x="130.0" y="-440.0" type="line"/>
      <point x="606.0" y="-440.0" type="line"/>
      <point x="606.0" y="1078.0" type="line"/>
      <point x="1070.0" y="1078.0" type="line"/>
      <point x="1070.0" y="-440.0" type="line"/>
      <point x="1546.0" y="-440.0" type="line"/>
      <point x="1546.0" y="1480.0" type="line"/>
      <point x="130.0" y="1480.0" type="line"/>
    </contour>
  </outline>
</glyph>
<glyph name="summation" format="2">
  <advance width="1482.0"/>
  <unicode hex="2211"/>
  <outline>
    <contour>
      <point x="84.0" y="-440.0" type="line"/>
      <point x="1378.0" y="-440.0" type="line"/>
      <point x="1378.0" y="-72.0" type="line"/>
      <point x="698.0" y="-72.0" type="line"/>
      <point x="1174.0" y="520.0" type="line"/>
      <point x="698.0" y="1112.0" type="line"/>
      <point x="1378.0" y="1112.0" type="line"/>
      <point x="1378.0" y="1480.0" type="line"/>
      <point x="84.0" y="1480.0" type="line"/>
      <point x="84.0" y="1226.0" type="line"/>
      <point x="782.0" y="358.0" type="line"/>
      <point x="782.0" y="682.0" type="line"/>
      <point x="84.0" y="-186.0" type="line"/>
    </contour>
  </outline>
</glyph>
<glyph name="bulletoperator" format="2">
  <advance width="696.0"/>
  <unicode hex="2219"/>
  <anchor x="348.0" y="760.0" name="_periodcentered"/>
  <outline>
    <contour>
      <point x="348.0" y="504.0" type="curve" smooth="yes"/>
      <point x="530.0" y="504.0"/>
      <point x="638.0" y="606.0"/>
      <point x="638.0" y="760.0" type="curve" smooth="yes"/>
      <point x="638.0" y="914.0"/>
      <point x="534.0" y="1016.0"/>
      <point x="348.0" y="1016.0" type="curve" smooth="yes"/>
      <point x="162.0" y="1016.0"/>
      <point x="58.0" y="918.0"/>
      <point x="58.0" y="760.0" type="curve" smooth="yes"/>
      <point x="58.0" y="602.0"/>
      <point x="166.0" y="504.0"/>
    </contour>
  </outline>
</glyph>
<glyph name="radical" format="2">
  <advance width="1676.0"/>
  <unicode hex="221A"/>
  <outline>
    <contour>
      <point x="568.0" y="0.0" type="line"/>
      <point x="1170.0" y="0.0" type="line"/>
      <point x="1670.0" y="1480.0" type="line"/>
      <point x="1246.0" y="1480.0" type="line"/>
      <point x="826.0" y="196.0" type="line"/>
      <point x="920.0" y="196.0" type="line"/>
      <point x="626.0" y="1100.0" type="line"/>
      <point x="74.0" y="1100.0" type="line"/>
      <point x="74.0" y="760.0" type="line"/>
      <point x="304.0" y="760.0" type="line"/>
    </contour>
  </outline>
</glyph>
<glyph name="approxequal" format="2">
  <advance width="1196.0"/>
  <unicode hex="2248"/>
  <outline>
    <contour>
      <point x="814.0" y="780.0" type="curve" smooth="yes"/>
      <point x="930.0" y="780.0"/>
      <point x="1010.0" y="810.0"/>
      <point x="1082.0" y="882.0" type="curve"/>
      <point x="1082.0" y="1224.0" type="line"/>
      <point x="996.0" y="1146.0"/>
      <point x="920.0" y="1114.0"/>
      <point x="818.0" y="1114.0" type="curve" smooth="yes"/>
      <point x="680.0" y="1114.0"/>
      <point x="554.0" y="1232.0"/>
      <point x="382.0" y="1232.0" type="curve" smooth="yes"/>
      <point x="266.0" y="1232.0"/>
      <point x="186.0" y="1202.0"/>
      <point x="114.0" y="1130.0" type="curve"/>
      <point x="114.0" y="788.0" type="line"/>
      <point x="200.0" y="866.0"/>
      <point x="276.0" y="898.0"/>
      <point x="378.0" y="898.0" type="curve" smooth="yes"/>
      <point x="516.0" y="898.0"/>
      <point x="642.0" y="780.0"/>
    </contour>
    <contour>
      <point x="814.0" y="288.0" type="curve" smooth="yes"/>
      <point x="930.0" y="288.0"/>
      <point x="1010.0" y="318.0"/>
      <point x="1082.0" y="390.0" type="curve"/>
      <point x="1082.0" y="732.0" type="line"/>
      <point x="996.0" y="654.0"/>
      <point x="920.0" y="622.0"/>
      <point x="818.0" y="622.0" type="curve" smooth="yes"/>
      <point x="680.0" y="622.0"/>
      <point x="554.0" y="740.0"/>
      <point x="382.0" y="740.0" type="curve" smooth="yes"/>
      <point x="266.0" y="740.0"/>
      <point x="186.0" y="710.0"/>
      <point x="114.0" y="638.0" type="curve"/>
      <point x="114.0" y="296.0" type="line"/>
      <point x="200.0" y="374.0"/>
      <point x="276.0" y="406.0"/>
      <point x="378.0" y="406.0" type="curve" smooth="yes"/>
      <point x="516.0" y="406.0"/>
      <point x="642.0" y="288.0"/>
    </contour>
  </outline>
</glyph>
<glyph name="lessequal" format="2">
  <advance width="1196.0"/>
  <unicode hex="2264"/>
  <outline>
    <contour>
      <point x="1082.0" y="420.0" type="line"/>
      <point x="1082.0" y="730.0" type="line"/>
      <point x="352.0" y="922.0" type="line"/>
      <point x="352.0" y="808.0" type="line"/>
      <point x="1082.0" y="990.0" type="line"/>
      <point x="1082.0" y="1300.0" type="line"/>
      <point x="114.0" y="1034.0" type="line"/>
      <point x="114.0" y="686.0" type="line"/>
    </contour>
    <contour>
      <point x="114.0" y="0.0" type="line"/>
      <point x="1082.0" y="0.0" type="line"/>
      <point x="1082.0" y="340.0" type="line"/>
      <point x="114.0" y="340.0" type="line"/>
    </contour>
  </outline>
</glyph>
<glyph name="greaterequal" format="2">
  <advance width="1196.0"/>
  <unicode hex="2265"/>
  <outline>
    <contour>
      <point x="114.0" y="420.0" type="line"/>
      <point x="1082.0" y="686.0" type="line"/>
      <point x="1082.0" y="1034.0" type="line"/>
      <point x="114.0" y="1300.0" type="line"/>
      <point x="114.0" y="990.0" type="line"/>
      <point x="844.0" y="808.0" type="line"/>
      <point x="844.0" y="922.0" type="line"/>
      <point x="114.0" y="730.0" type="line"/>
    </contour>
    <contour>
      <point x="114.0" y="0.0" type="line"/>
      <point x="1082.0" y="0.0" type="line"/>
      <point x="1082.0" y="340.0" type="line"/>
      <point x="114.0" y="340.0" type="line"/>
    </contour>
  </outline>
</glyph>
<glyph name="acutecomb_dotaccentcomb.case" format="2">
  <outline>
    <contour>
      <point x="300.0" y="1862.0" type="curve" smooth="yes"/>
      <point x="454.0" y="1862.0"/>
      <point x="514.0" y="1922.0"/>
      <point x="514.0" y="2006.0" type="curve" smooth="yes"/>
      <point x="514.0" y="2090.0"/>
      <point x="454.0" y="2150.0"/>
      <point x="300.0" y="2150.0" type="curve" smooth="yes"/>
      <point x="146.0" y="2150.0"/>
      <point x="86.0" y="2090.0"/>
      <point x="86.0" y="2006.0" type="curve" smooth="yes"/>
      <point x="86.0" y="1922.0"/>
      <point x="146.0" y="1862.0"/>
    </contour>
    <component base="acutecomb.case"/>
  </outline>
</glyph>
<glyph name="acutecomb_dotaccentcomb" format="2">
  <outline>
    <contour>
      <point x="360.0" y="1576.0" type="curve" smooth="yes"/>
      <point x="514.0" y="1576.0"/>
      <point x="574.0" y="1636.0"/>
      <point x="574.0" y="1720.0" type="curve" smooth="yes"/>
      <point x="574.0" y="1804.0"/>
      <point x="514.0" y="1864.0"/>
      <point x="360.0" y="1864.0" type="curve" smooth="yes"/>
      <point x="206.0" y="1864.0"/>
      <point x="146.0" y="1804.0"/>
      <point x="146.0" y="1720.0" type="curve" smooth="yes"/>
      <point x="146.0" y="1636.0"/>
      <point x="206.0" y="1576.0"/>
    </contour>
    <component base="acutecomb"/>
  </outline>
</glyph>
<glyph name="asciicircum.tf" format="2">
  <advance width="1440.0"/>
  <outline>
    <contour>
      <point x="34.0" y="740.0" type="line"/>
      <point x="496.0" y="740.0" type="line"/>
      <point x="830.0" y="1284.0" type="line"/>
      <point x="610.0" y="1284.0" type="line"/>
      <point x="944.0" y="740.0" type="line"/>
      <point x="1406.0" y="740.0" type="line"/>
      <point x="952.0" y="1480.0" type="line"/>
      <point x="488.0" y="1480.0" type="line"/>
    </contour>
  </outline>
</glyph>
<glyph name="asciitilde.tf" format="2">
  <advance width="1440.0"/>
  <outline>
    <contour>
      <point x="936.0" y="534.0" type="curve" smooth="yes"/>
      <point x="1052.0" y="534.0"/>
      <point x="1132.0" y="564.0"/>
      <point x="1204.0" y="636.0" type="curve"/>
      <point x="1204.0" y="978.0" type="line"/>
      <point x="1118.0" y="900.0"/>
      <point x="1042.0" y="868.0"/>
      <point x="940.0" y="868.0" type="curve" smooth="yes"/>
      <point x="802.0" y="868.0"/>
      <point x="676.0" y="986.0"/>
      <point x="504.0" y="986.0" type="curve" smooth="yes"/>
      <point x="388.0" y="986.0"/>
      <point x="308.0" y="956.0"/>
      <point x="236.0" y="884.0" type="curve"/>
      <point x="236.0" y="542.0" type="line"/>
      <point x="322.0" y="620.0"/>
      <point x="398.0" y="652.0"/>
      <point x="500.0" y="652.0" type="curve" smooth="yes"/>
      <point x="638.0" y="652.0"/>
      <point x="764.0" y="534.0"/>
    </contour>
  </outline>
</glyph>
<glyph name="asciitilde.tosf" format="2">
  <advance width="1440.0"/>
  <outline>
    <contour>
      <point x="936.0" y="334.0" type="curve" smooth="yes"/>
      <point x="1052.0" y="334.0"/>
      <point x="1132.0" y="364.0"/>
      <point x="1204.0" y="436.0" type="curve"/>
      <point x="1204.0" y="778.0" type="line"/>
      <point x="1118.0" y="700.0"/>
      <point x="1042.0" y="668.0"/>
      <point x="940.0" y="668.0" type="curve" smooth="yes"/>
      <point x="802.0" y="668.0"/>
      <point x="676.0" y="786.0"/>
      <point x="504.0" y="786.0" type="curve" smooth="yes"/>
      <point x="388.0" y="786.0"/>
      <point x="308.0" y="756.0"/>
      <point x="236.0" y="684.0" type="curve"/>
      <point x="236.0" y="342.0" type="line"/>
      <point x="322.0" y="420.0"/>
      <point x="398.0" y="452.0"/>
      <point x="500.0" y="452.0" type="curve" smooth="yes"/>
      <point x="638.0" y="452.0"/>
      <point x="764.0" y="334.0"/>
    </contour>
  </outline>
</glyph>
<glyph name="b.sc" format="2">
  <advance width="1380.0"/>
  <anchor x="730.0" y="0.0" name="bottom"/>
  <anchor x="730.0" y="1230.0" name="top"/>
  <outline>
    <contour>
      <point x="590.0" y="-18.0" type="curve" smooth="yes"/>
      <point x="1152.0" y="-18.0"/>
      <point x="1324.0" y="130.0"/>
      <point x="1324.0" y="350.0" type="curve" smooth="yes"/>
      <point x="1324.0" y="518.0"/>
      <point x="1212.0" y="596.0"/>
      <point x="1092.0" y="618.0" type="curve"/>
      <point x="1094.0" y="608.0" type="line"/>
      <point x="1198.0" y="634.0"/>
      <point x="1292.0" y="730.0"/>
      <point x="1292.0" y="854.0" type="curve" smooth="yes"/>
      <point x="1292.0" y="1078.0"/>
      <point x="1110.0" y="1206.0"/>
      <point x="650.0" y="1206.0" type="curve" smooth="yes"/>
      <point x="494.0" y="1206.0"/>
      <point x="270.0" y="1180.0"/>
      <point x="132.0" y="1148.0" type="curve"/>
      <point x="132.0" y="10.0" type="line"/>
      <point x="248.0" y="-6.0"/>
      <point x="454.0" y="-18.0"/>
    </contour>
    <contour>
      <point x="694.0" y="268.0" type="curve" smooth="yes"/>
      <point x="660.0" y="268.0"/>
      <point x="622.0" y="268.0"/>
      <point x="576.0" y="272.0" type="curve"/>
      <point x="576.0" y="910.0" type="line"/>
      <point x="620.0" y="918.0"/>
      <point x="668.0" y="922.0"/>
      <point x="700.0" y="922.0" type="curve" smooth="yes"/>
      <point x="818.0" y="922.0"/>
      <point x="852.0" y="894.0"/>
      <point x="852.0" y="836.0" type="curve" smooth="yes"/>
      <point x="852.0" y="788.0"/>
      <point x="822.0" y="752.0"/>
      <point x="720.0" y="752.0" type="curve" smooth="yes"/>
      <point x="530.0" y="752.0" type="line"/>
      <point x="530.0" y="460.0" type="line"/>
      <point x="752.0" y="460.0" type="line" smooth="yes"/>
      <point x="864.0" y="460.0"/>
      <point x="898.0" y="432.0"/>
      <point x="898.0" y="366.0" type="curve" smooth="yes"/>
      <point x="898.0" y="304.0"/>
      <point x="858.0" y="268.0"/>
    </contour>
  </outline>
</glyph>
<glyph name="braceleft.sc" format="2">
  <advance width="874.0"/>
  <outline>
    <contour>
      <point x="682.0" y="-260.0" type="curve" smooth="yes"/>
      <point x="766.0" y="-260.0"/>
      <point x="834.0" y="-254.0"/>
      <point x="896.0" y="-246.0" type="curve"/>
      <point x="896.0" y="106.0" type="line"/>
      <point x="760.0" y="106.0" type="line" smooth="yes"/>
      <point x="684.0" y="106.0"/>
      <point x="644.0" y="132.0"/>
      <point x="644.0" y="210.0" type="curve" smooth="yes"/>
      <point x="644.0" y="352.0" type="line" smooth="yes"/>
      <point x="644.0" y="548.0"/>
      <point x="524.0" y="656.0"/>
      <point x="242.0" y="656.0" type="curve"/>
      <point x="242.0" y="608.0" type="line"/>
      <point x="524.0" y="608.0"/>
      <point x="644.0" y="716.0"/>
      <point x="644.0" y="912.0" type="curve" smooth="yes"/>
      <point x="644.0" y="1030.0" type="line" smooth="yes"/>
      <point x="644.0" y="1108.0"/>
      <point x="684.0" y="1134.0"/>
      <point x="760.0" y="1134.0" type="curve" smooth="yes"/>
      <point x="896.0" y="1134.0" type="line"/>
      <point x="896.0" y="1486.0" type="line"/>
      <point x="834.0" y="1494.0"/>
      <point x="766.0" y="1500.0"/>
      <point x="682.0" y="1500.0" type="curve" smooth="yes"/>
      <point x="356.0" y="1500.0"/>
      <point x="190.0" y="1344.0"/>
      <point x="190.0" y="1066.0" type="curve" smooth="yes"/>
      <point x="190.0" y="930.0" type="line" smooth="yes"/>
      <point x="190.0" y="860.0"/>
      <point x="142.0" y="812.0"/>
      <point x="72.0" y="812.0" type="curve" smooth="yes"/>
      <point x="-2.0" y="812.0" type="line"/>
      <point x="-2.0" y="452.0" type="line"/>
      <point x="72.0" y="452.0" type="line" smooth="yes"/>
      <point x="142.0" y="452.0"/>
      <point x="190.0" y="404.0"/>
      <point x="190.0" y="334.0" type="curve" smooth="yes"/>
      <point x="190.0" y="174.0" type="line" smooth="yes"/>
      <point x="190.0" y="-104.0"/>
      <point x="356.0" y="-260.0"/>
    </contour>
  </outline>
</glyph>
<glyph name="brevebelowcomb.sc" format="2">
  <anchor x="600.0" y="0.0" name="_bottom"/>
  <anchor x="600.0" y="-454.0" name="bottom"/>
  <outline>
    <contour>
      <point x="600.0" y="-452.0" type="curve" smooth="yes"/>
      <point x="912.0" y="-452.0"/>
      <point x="1054.0" y="-312.0"/>
      <point x="1084.0" y="-136.0" type="curve"/>
      <point x="810.0" y="-136.0" type="line"/>
      <point x="790.0" y="-198.0"/>
      <point x="728.0" y="-244.0"/>
      <point x="600.0" y="-244.0" type="curve" smooth="yes"/>
      <point x="472.0" y="-244.0"/>
      <point x="410.0" y="-198.0"/>
      <point x="390.0" y="-136.0" type="curve"/>
      <point x="116.0" y="-136.0" type="line"/>
      <point x="146.0" y="-312.0"/>
      <point x="288.0" y="-452.0"/>
    </contour>
  </outline>
</glyph>
<glyph name="brevecomb_hookabovecomb" format="2">
  <anchor x="600.0" y="1200.0" name="_top"/>
  <outline>
    <contour>
      <point x="600.0" y="1232.0" type="curve" smooth="yes"/>
      <point x="912.0" y="1232.0"/>
      <point x="1054.0" y="1372.0"/>
      <point x="1084.0" y="1548.0" type="curve"/>
      <point x="810.0" y="1548.0" type="line"/>
      <point x="790.0" y="1486.0"/>
      <point x="728.0" y="1440.0"/>
      <point x="600.0" y="1440.0" type="curve" smooth="yes"/>
      <point x="472.0" y="1440.0"/>
      <point x="410.0" y="1486.0"/>
      <point x="390.0" y="1548.0" type="curve"/>
      <point x="116.0" y="1548.0" type="line"/>
      <point x="146.0" y="1372.0"/>
      <point x="288.0" y="1232.0"/>
    </contour>
    <contour>
      <point x="492.0" y="1598.0" type="curve"/>
      <point x="708.0" y="1598.0" type="line"/>
      <point x="716.0" y="1642.0"/>
      <point x="900.0" y="1662.0"/>
      <point x="900.0" y="1766.0" type="curve" smooth="yes"/>
      <point x="900.0" y="1848.0"/>
      <point x="806.0" y="1894.0"/>
      <point x="594.0" y="1894.0" type="curve" smooth="yes"/>
      <point x="520.0" y="1894.0"/>
      <point x="422.0" y="1886.0"/>
      <point x="354.0" y="1874.0" type="curve"/>
      <point x="354.0" y="1746.0" type="line"/>
      <point x="436.0" y="1760.0"/>
      <point x="498.0" y="1764.0"/>
      <point x="560.0" y="1764.0" type="curve" smooth="yes"/>
      <point x="636.0" y="1764.0"/>
      <point x="676.0" y="1756.0"/>
      <point x="676.0" y="1740.0" type="curve" smooth="yes"/>
      <point x="676.0" y="1696.0"/>
      <point x="498.0" y="1688.0"/>
    </contour>
  </outline>
</glyph>
<glyph name="brevecomb_tildecomb.case" format="2">
  <anchor x="600.0" y="1520.0" name="_top"/>
  <outline>
    <contour>
      <point x="600.0" y="1586.0" type="curve" smooth="yes"/>
      <point x="872.0" y="1586.0"/>
      <point x="998.0" y="1698.0"/>
      <point x="1030.0" y="1858.0" type="curve"/>
      <point x="804.0" y="1858.0" type="line"/>
      <point x="784.0" y="1796.0"/>
      <point x="746.0" y="1756.0"/>
      <point x="600.0" y="1756.0" type="curve" smooth="yes"/>
      <point x="454.0" y="1756.0"/>
      <point x="416.0" y="1796.0"/>
      <point x="396.0" y="1858.0" type="curve"/>
      <point x="170.0" y="1858.0" type="line"/>
      <point x="202.0" y="1698.0"/>
      <point x="328.0" y="1586.0"/>
    </contour>
    <contour>
      <point x="772.0" y="1900.0" type="curve" smooth="yes"/>
      <point x="856.0" y="1900.0"/>
      <point x="924.0" y="1908.0"/>
      <point x="1030.0" y="1962.0" type="curve"/>
      <point x="1030.0" y="2132.0" type="line"/>
      <point x="914.0" y="2082.0"/>
      <point x="852.0" y="2066.0"/>
      <point x="776.0" y="2066.0" type="curve" smooth="yes"/>
      <point x="670.0" y="2066.0"/>
      <point x="562.0" y="2124.0"/>
      <point x="428.0" y="2124.0" type="curve" smooth="yes"/>
      <point x="344.0" y="2124.0"/>
      <point x="276.0" y="2114.0"/>
      <point x="170.0" y="2060.0" type="curve"/>
      <point x="170.0" y="1890.0" type="line"/>
      <point x="286.0" y="1940.0"/>
      <point x="348.0" y="1956.0"/>
      <point x="424.0" y="1956.0" type="curve" smooth="yes"/>
      <point x="530.0" y="1956.0"/>
      <point x="638.0" y="1900.0"/>
    </contour>
  </outline>
</glyph>
<glyph name="brevecomb_tildecomb" format="2">
  <anchor x="600.0" y="1200.0" name="_top"/>
  <outline>
    <contour>
      <point x="600.0" y="1232.0" type="curve" smooth="yes"/>
      <point x="912.0" y="1232.0"/>
      <point x="1054.0" y="1372.0"/>
      <point x="1084.0" y="1548.0" type="curve"/>
      <point x="810.0" y="1548.0" type="line"/>
      <point x="790.0" y="1486.0"/>
      <point x="728.0" y="1440.0"/>
      <point x="600.0" y="1440.0" type="curve" smooth="yes"/>
      <point x="472.0" y="1440.0"/>
      <point x="410.0" y="1486.0"/>
      <point x="390.0" y="1548.0" type="curve"/>
      <point x="116.0" y="1548.0" type="line"/>
      <point x="146.0" y="1372.0"/>
      <point x="288.0" y="1232.0"/>
    </contour>
    <contour>
      <point x="816.0" y="1596.0" type="curve" smooth="yes"/>
      <point x="934.0" y="1596.0"/>
      <point x="1012.0" y="1614.0"/>
      <point x="1084.0" y="1660.0" type="curve"/>
      <point x="1084.0" y="1860.0" type="line"/>
      <point x="1002.0" y="1822.0"/>
      <point x="932.0" y="1804.0"/>
      <point x="828.0" y="1804.0" type="curve" smooth="yes"/>
      <point x="672.0" y="1804.0"/>
      <point x="558.0" y="1868.0"/>
      <point x="384.0" y="1868.0" type="curve" smooth="yes"/>
      <point x="266.0" y="1868.0"/>
      <point x="188.0" y="1848.0"/>
      <point x="116.0" y="1802.0" type="curve"/>
      <point x="116.0" y="1602.0" type="line"/>
      <point x="198.0" y="1640.0"/>
      <point x="268.0" y="1658.0"/>
      <point x="372.0" y="1658.0" type="curve" smooth="yes"/>
      <point x="528.0" y="1658.0"/>
      <point x="642.0" y="1596.0"/>
    </contour>
  </outline>
</glyph>
<glyph name="breveinvertedcomb.case" format="2">
  <anchor x="600.0" y="1520.0" name="_top"/>
  <anchor x="600.0" y="1920.0" name="top"/>
  <outline>
    <contour>
      <point x="116.0" y="1586.0" type="curve"/>
      <point x="390.0" y="1586.0" type="line"/>
      <point x="410.0" y="1648.0"/>
      <point x="472.0" y="1694.0"/>
      <point x="600.0" y="1694.0" type="curve" smooth="yes"/>
      <point x="728.0" y="1694.0"/>
      <point x="790.0" y="1648.0"/>
      <point x="810.0" y="1586.0" type="curve"/>
      <point x="1084.0" y="1586.0" type="line"/>
      <point x="1054.0" y="1762.0"/>
      <point x="912.0" y="1902.0"/>
      <point x="600.0" y="1902.0" type="curve" smooth="yes"/>
      <point x="288.0" y="1902.0"/>
      <point x="146.0" y="1762.0"/>
    </contour>
  </outline>
</glyph>
<glyph name="brokenbar.tf" format="2">
  <advance width="1440.0"/>
  <outline>
    <contour>
      <point x="510.0" y="836.0" type="line"/>
      <point x="930.0" y="836.0" type="line"/>
      <point x="930.0" y="1616.0" type="line"/>
      <point x="510.0" y="1616.0" type="line"/>
    </contour>
    <contour>
      <point x="510.0" y="-440.0" type="line"/>
      <point x="930.0" y="-440.0" type="line"/>
      <point x="930.0" y="340.0" type="line"/>
      <point x="510.0" y="340.0" type="line"/>
    </contour>
  </outline>
</glyph>
<glyph name="bulletoperator.osf" format="2">
  <advance width="696.0"/>
  <anchor x="348.0" y="560.0" name="_periodcentered"/>
  <outline>
    <contour>
      <point x="348.0" y="304.0" type="curve" smooth="yes"/>
      <point x="530.0" y="304.0"/>
      <point x="638.0" y="406.0"/>
      <point x="638.0" y="560.0" type="curve" smooth="yes"/>
      <point x="638.0" y="714.0"/>
      <point x="534.0" y="816.0"/>
      <point x="348.0" y="816.0" type="curve" smooth="yes"/>
      <point x="162.0" y="816.0"/>
      <point x="58.0" y="718.0"/>
      <point x="58.0" y="560.0" type="curve" smooth="yes"/>
      <point x="58.0" y="402.0"/>
      <point x="166.0" y="304.0"/>
    </contour>
  </outline>
</glyph>
<glyph name="bulletoperator.tosf" format="2">
  <advance width="1440.0"/>
  <anchor x="720.0" y="560.0" name="_periodcentered"/>
  <outline>
    <contour>
      <point x="720.0" y="304.0" type="curve" smooth="yes"/>
      <point x="902.0" y="304.0"/>
      <point x="1010.0" y="406.0"/>
      <point x="1010.0" y="560.0" type="curve" smooth="yes"/>
      <point x="1010.0" y="714.0"/>
      <point x="906.0" y="816.0"/>
      <point x="720.0" y="816.0" type="curve" smooth="yes"/>
      <point x="534.0" y="816.0"/>
      <point x="430.0" y="718.0"/>
      <point x="430.0" y="560.0" type="curve" smooth="yes"/>
      <point x="430.0" y="402.0"/>
      <point x="538.0" y="304.0"/>
    </contour>
  </outline>
</glyph>
